<svg width="15" height="13" viewBox="0 0 15 13" fill="none" xmlns="http://www.w3.org/2000/svg">
<path d="M0.0675436 5.90542C0.112713 5.78371 0.17793 5.67405 0.259949 5.58277L5.01466 0.291028C5.1882 0.0978795 5.41646 2.2063e-05 5.64469 2.20829e-05C5.87292 2.21029e-05 6.10118 0.0965569 6.27472 0.291028C6.62301 0.678648 6.62301 1.30709 6.27472 1.69471L3.04156 5.29305L13.9654 5.29305C14.4575 5.29305 14.8569 5.73756 14.8569 6.28525C14.8569 6.83295 14.4575 7.27745 13.9654 7.27745L3.04272 7.27745L6.27588 10.8758C6.62417 11.2634 6.62417 11.8919 6.27588 12.2795C5.9276 12.6671 5.36294 12.6671 5.01466 12.2795L0.259949 6.98774C0.17793 6.89645 0.112713 6.78679 0.0675435 6.66508C-0.0227951 6.42166 -0.0227951 6.14884 0.0675436 5.90542Z" fill="white"/>
</svg>
