<svg width="27" height="25" viewBox="0 0 27 25" fill="none" xmlns="http://www.w3.org/2000/svg">
<path d="M25.4905 22.6886H25.4435V22.08C25.4435 21.5686 25.0274 21.1525 24.5159 21.1525H23.4111V20.3133C23.4111 19.9147 23.0977 19.5887 22.7044 19.5667V11.6784C23.0977 11.6564 23.4111 11.3304 23.4111 10.9318V10.0926H24.483C24.8914 10.0926 25.2237 9.76035 25.2237 9.3519V8.56102H25.7871C26.1186 8.56102 26.3883 8.29126 26.3883 7.9598V7.27623C26.3883 7.05519 26.2676 6.85256 26.0731 6.74735L17.1983 1.94804C17.0099 1.84598 16.7748 1.91626 16.673 2.10459C16.5712 2.29287 16.6413 2.52805 16.8296 2.6298L25.6132 7.37984V7.78586H0.804873V7.38319L13.3995 0.774865L15.2325 1.76616C15.4209 1.86812 15.6559 1.79789 15.7577 1.60961C15.8595 1.42133 15.7895 1.18615 15.6012 1.0844L13.7682 0.0930523C13.5418 -0.0293891 13.2705 -0.0310919 13.0425 0.0885117L0.351742 6.7456C0.15309 6.84978 0.0297203 7.05379 0.0297203 7.27804V7.95975C0.0297203 8.29126 0.299473 8.56096 0.630989 8.56096H1.19438V9.3519C1.19438 9.7603 1.52662 10.0926 1.93507 10.0926H3.00696V10.9318C3.00696 11.3304 3.32037 11.6564 3.71359 11.6784V16.8137C3.71359 17.0277 3.88712 17.2012 4.10114 17.2012C4.31517 17.2012 4.48869 17.0277 4.48869 16.8137V11.6806H5.7289V19.5646H4.48874V18.6352C4.48874 18.4211 4.31522 18.2477 4.10119 18.2477C3.88717 18.2477 3.71364 18.4211 3.71364 18.6352V19.5667C3.32042 19.5887 3.00701 19.9147 3.00701 20.3133V21.1525H1.90215C1.39071 21.1525 0.974578 21.5686 0.974578 22.08V22.6886H0.927572C0.416084 22.6886 0 23.1047 0 23.6162V24.4269C0 24.7428 0.257112 25 0.573096 25H25.8449C26.1609 25 26.418 24.7429 26.418 24.4269V23.6162C26.418 23.1047 26.002 22.6886 25.4905 22.6886ZM1.96954 9.31749V8.56102H24.4485V9.31749H1.96954ZM22.6359 20.3397V21.1525H19.9825V20.3397H22.6359ZM20.6891 19.5645V11.6805H21.9293V19.5645H20.6891ZM19.9825 10.9054V10.0926H22.6359V10.9054H19.9825ZM17.3043 19.5667V11.6784C17.6976 11.6564 18.011 11.3304 18.011 10.9318V10.0926H19.2073V10.9318C19.2073 11.3304 19.5207 11.6564 19.9139 11.6784V19.5667C19.5207 19.5887 19.2073 19.9147 19.2073 20.3133V21.1525H18.011V20.3133C18.011 19.9147 17.6976 19.5887 17.3043 19.5667ZM17.2358 20.3397V21.1525H14.5823V20.3397H17.2358ZM15.289 19.5645V11.6805H16.5292V19.5645H15.289ZM14.5823 10.9054V10.0926H17.2358V10.9054H14.5823ZM11.9042 19.5667V11.6784C12.2974 11.6564 12.6108 11.3304 12.6108 10.9318V10.0926H13.8072V10.9318C13.8072 11.3304 14.1206 11.6564 14.5138 11.6784V19.5667C14.1206 19.5887 13.8072 19.9147 13.8072 20.3133V21.1525H12.6108V20.3133C12.6108 19.9147 12.2974 19.5887 11.9042 19.5667ZM11.5166 20.3397H11.8357V21.1525H9.18223V20.3397H9.50131H11.5166ZM9.88886 19.5645V11.6805H11.1291V19.5645H9.88886ZM9.18223 10.9054V10.0926H11.8357V10.9054H9.18223ZM6.5041 19.5667V11.6784C6.89733 11.6564 7.21073 11.3304 7.21073 10.9318V10.0926H8.40708V10.9318C8.40708 11.3304 8.72048 11.6564 9.11371 11.6784V19.5667C8.72048 19.5887 8.40708 19.9147 8.40708 20.3133V21.1525H7.21073V20.3133C7.21073 19.9147 6.89733 19.5887 6.5041 19.5667ZM3.78211 10.9054V10.0926H6.43558V10.9054H3.78211ZM3.78211 20.3397H4.10119H6.11655H6.43563V21.1525H3.78211V20.3397ZM1.74973 22.08C1.74973 21.996 1.8181 21.9276 1.90215 21.9276H24.5159C24.5999 21.9276 24.6683 21.996 24.6683 22.08V22.6886H1.74973V22.08ZM25.6429 24.2248H0.775153V23.6162C0.775153 23.5322 0.84352 23.4638 0.927572 23.4638H25.4905C25.5745 23.4638 25.6429 23.5321 25.6429 23.6162V24.2248Z" fill="#113E5B"/>
</svg>
