<svg width="18" height="18" viewBox="0 0 18 18" fill="none" xmlns="http://www.w3.org/2000/svg">
<path d="M7.01558 15.75C7.54443 16.2168 8.23912 16.5 8.99995 16.5C9.76079 16.5 10.4555 16.2168 10.9843 15.75M13.5 6C13.5 4.80653 13.0258 3.66193 12.1819 2.81802C11.338 1.97411 10.1934 1.5 8.99995 1.5C7.80648 1.5 6.66189 1.97411 5.81797 2.81802C4.97406 3.66193 4.49995 4.80653 4.49995 6C4.49995 8.31764 3.91531 9.90447 3.2622 10.9541C2.7113 11.8394 2.43585 12.2821 2.44595 12.4056C2.45713 12.5423 2.4861 12.5944 2.59628 12.6762C2.6958 12.75 3.1444 12.75 4.04159 12.75H13.9583C14.8555 12.75 15.3041 12.75 15.4036 12.6762C15.5138 12.5944 15.5428 12.5423 15.554 12.4056C15.5641 12.2821 15.2886 11.8394 14.7377 10.9541C14.0846 9.90447 13.5 8.31764 13.5 6Z" stroke="#113E5B" stroke-width="1.5" stroke-linecap="round" stroke-linejoin="round"/>
</svg>
