<svg width="23" height="34" viewBox="0 0 23 34" fill="none" xmlns="http://www.w3.org/2000/svg">
<path d="M20.8589 34.0004H1.64514C1.35571 34.0004 1.0714 33.9241 0.820913 33.7791C0.570429 33.634 0.362633 33.4255 0.218501 33.1745C0.0743698 32.9235 -0.000996689 32.639 9.95329e-06 32.3495C0.0010166 32.0601 0.0783604 31.776 0.224235 31.5261L6.86481 20.1418V13.7097C6.86481 13.5642 6.92258 13.4247 7.02543 13.3219C7.12827 13.219 7.26776 13.1613 7.41321 13.1613H15.0908C15.2362 13.1613 15.3757 13.219 15.4786 13.3219C15.5814 13.4247 15.6392 13.5642 15.6392 13.7097V20.1418L22.2798 31.5261C22.4256 31.776 22.503 32.0601 22.504 32.3495C22.505 32.639 22.4296 32.9235 22.2855 33.1745C22.1414 33.4255 21.9336 33.634 21.6831 33.7791C21.4326 33.9241 21.1483 34.0004 20.8589 34.0004ZM7.96161 14.2581V20.2905C7.96127 20.3868 7.93554 20.4814 7.88702 20.5647L1.17132 32.081C1.12324 32.1643 1.0979 32.2588 1.09785 32.355C1.0978 32.4511 1.12304 32.5456 1.17104 32.629C1.21904 32.7123 1.28811 32.7815 1.37133 32.8298C1.45454 32.878 1.54897 32.9034 1.64514 32.9036H20.8589C20.955 32.9034 21.0495 32.878 21.1327 32.8298C21.2159 32.7815 21.285 32.7123 21.333 32.629C21.381 32.5456 21.4062 32.4511 21.4062 32.355C21.4061 32.2588 21.3808 32.1643 21.3327 32.081L14.617 20.5647C14.5685 20.4814 14.5427 20.3868 14.5424 20.2905V14.2581H7.96161Z" fill="#113E5B"/>
<path d="M17.3335 24.6777H5.16998C5.02454 24.6777 4.88505 24.62 4.7822 24.5171C4.67936 24.4143 4.62158 24.2748 4.62158 24.1293C4.62158 23.9839 4.67936 23.8444 4.7822 23.7416C4.88505 23.6387 5.02454 23.5809 5.16998 23.5809H17.3335C17.4789 23.5809 17.6184 23.6387 17.7213 23.7416C17.8241 23.8444 17.8819 23.9839 17.8819 24.1293C17.8819 24.2748 17.8241 24.4143 17.7213 24.5171C17.6184 24.62 17.4789 24.6777 17.3335 24.6777Z" fill="#113E5B"/>
<path d="M11.252 29.6133C11.1066 29.6133 10.9671 29.5555 10.8642 29.4526C10.7614 29.3498 10.7036 29.2103 10.7036 29.0649V25.7745C10.7036 25.629 10.7614 25.4895 10.8642 25.3867C10.9671 25.2839 11.1066 25.2261 11.252 25.2261C11.3975 25.2261 11.5369 25.2839 11.6398 25.3867C11.7426 25.4895 11.8004 25.629 11.8004 25.7745V29.0649C11.8004 29.2103 11.7426 29.3498 11.6398 29.4526C11.5369 29.5555 11.3975 29.6133 11.252 29.6133Z" fill="#113E5B"/>
<path d="M11.252 24.6777C11.1066 24.6777 10.9671 24.6199 10.8642 24.5171C10.7614 24.4142 10.7036 24.2747 10.7036 24.1293V7.67731C10.7036 7.53186 10.7614 7.39237 10.8642 7.28953C10.9671 7.18668 11.1066 7.12891 11.252 7.12891C11.3975 7.12891 11.5369 7.18668 11.6398 7.28953C11.7426 7.39237 11.8004 7.53186 11.8004 7.67731V24.1293C11.8004 24.2747 11.7426 24.4142 11.6398 24.5171C11.5369 24.6199 11.3975 24.6777 11.252 24.6777Z" fill="#FF992A"/>
<path d="M13.4907 11.5194C12.7666 11.5216 12.045 11.4373 11.3409 11.2682C11.2476 11.2434 11.1624 11.1942 11.0942 11.1259C11.0259 11.0575 10.9769 10.9723 10.9521 10.8789C10.9077 10.7144 9.89041 6.75985 12.2924 4.35677C14.6434 2.00632 19.301 2.19333 19.4978 2.19936C19.6344 2.20564 19.7637 2.26272 19.8604 2.3594C19.9571 2.45609 20.0142 2.5854 20.0205 2.72199C20.0292 2.91886 20.2135 7.57587 17.863 9.92741C17.2747 10.4673 16.5857 10.8858 15.8354 11.159C15.0852 11.4321 14.2884 11.5546 13.4907 11.5194ZM11.9442 10.2756C12.8534 10.444 15.4846 10.7544 17.0876 9.15142C18.6818 7.55668 18.9045 4.51087 18.9297 3.29342C17.7117 3.317 14.662 3.54184 13.0711 5.1322C11.466 6.73517 11.7764 9.3653 11.9442 10.2756Z" fill="#FF992A"/>
<path d="M9.01358 9.32578C8.216 9.36122 7.41926 9.23899 6.66898 8.96609C5.9187 8.6932 5.22962 8.27499 4.64119 7.73542C2.29075 5.38224 2.47775 0.725227 2.48379 0.528352C2.49007 0.391766 2.54715 0.262453 2.64383 0.165771C2.74051 0.0690877 2.86982 0.0120091 3.00641 0.00572717C3.20219 -0.000305226 7.86139 -0.186761 10.2102 2.16313C12.6122 4.56622 11.5949 8.51799 11.5505 8.68525C11.5257 8.77865 11.4767 8.86385 11.4084 8.93222C11.3402 9.0006 11.255 9.04972 11.1617 9.07461C10.4582 9.24344 9.73705 9.32776 9.01358 9.32578ZM5.41663 6.95779C7.02508 8.56625 9.65137 8.25256 10.5601 8.08311C10.7279 7.17331 11.0388 4.54209 9.43585 2.93857C7.84549 1.34821 4.79639 1.12337 3.57784 1.09978C3.60142 2.31833 3.82627 5.36743 5.41663 6.95779Z" fill="#FF992A"/>
<path d="M11.022 9.09275C10.8766 9.09272 10.7371 9.03492 10.6343 8.93207L4.83168 3.12945C4.73178 3.02602 4.67651 2.8875 4.67776 2.74371C4.679 2.59992 4.73668 2.46237 4.83836 2.3607C4.94004 2.25902 5.07758 2.20134 5.22137 2.20009C5.36516 2.19884 5.50369 2.25412 5.60711 2.35402L11.4097 8.15663C11.4864 8.23333 11.5386 8.33103 11.5598 8.4374C11.5809 8.54376 11.5701 8.65401 11.5286 8.7542C11.4871 8.85439 11.4168 8.94003 11.3266 9.00029C11.2365 9.06055 11.1305 9.09273 11.022 9.09275Z" fill="#FF992A"/>
<path d="M9.05817 7.1289C8.91272 7.1289 8.77323 7.07112 8.67039 6.96828C8.56754 6.86543 8.50977 6.72594 8.50977 6.5805V4.3869C8.50977 4.24146 8.56754 4.10197 8.67039 3.99912C8.77323 3.89628 8.91272 3.8385 9.05817 3.8385C9.20361 3.8385 9.3431 3.89628 9.44594 3.99912C9.54879 4.10197 9.60656 4.24146 9.60656 4.3869V6.5805C9.60656 6.72594 9.54879 6.86543 9.44594 6.96828C9.3431 7.07112 9.20361 7.1289 9.05817 7.1289Z" fill="#FF992A"/>
<path d="M7.41333 5.48376H5.76813C5.62268 5.48376 5.48319 5.42598 5.38035 5.32314C5.2775 5.22029 5.21973 5.08081 5.21973 4.93536C5.21973 4.78992 5.2775 4.65043 5.38035 4.54759C5.48319 4.44474 5.62268 4.38696 5.76813 4.38696H7.41333C7.55877 4.38696 7.69826 4.44474 7.8011 4.54759C7.90395 4.65043 7.96172 4.78992 7.96172 4.93536C7.96172 5.08081 7.90395 5.22029 7.8011 5.32314C7.69826 5.42598 7.55877 5.48376 7.41333 5.48376Z" fill="#FF992A"/>
<path d="M11.4819 11.2864C11.3734 11.2863 11.2674 11.2542 11.1773 11.1939C11.0871 11.1336 11.0168 11.048 10.9753 10.9478C10.9338 10.8476 10.923 10.7374 10.9441 10.631C10.9653 10.5246 11.0175 10.4269 11.0942 10.3502L16.8968 4.54762C17.0002 4.44772 17.1387 4.39245 17.2825 4.3937C17.4263 4.39495 17.5639 4.45262 17.6655 4.5543C17.7672 4.65598 17.8249 4.79352 17.8261 4.93731C17.8274 5.0811 17.7721 5.21963 17.6722 5.32306L11.8696 11.1257C11.7668 11.2285 11.6273 11.2863 11.4819 11.2864Z" fill="#FF992A"/>
<path d="M13.4454 9.3225C13.2999 9.3225 13.1604 9.26472 13.0576 9.16188C12.9547 9.05904 12.897 8.91955 12.897 8.7741V6.5805C12.897 6.43506 12.9547 6.29557 13.0576 6.19273C13.1604 6.08988 13.2999 6.0321 13.4454 6.0321C13.5908 6.0321 13.7303 6.08988 13.8331 6.19273C13.936 6.29557 13.9938 6.43506 13.9938 6.5805V8.7741C13.9938 8.91955 13.936 9.05904 13.8331 9.16188C13.7303 9.26472 13.5908 9.3225 13.4454 9.3225Z" fill="#FF992A"/>
<path d="M16.7361 7.67724H15.0909C14.9454 7.67724 14.8059 7.61947 14.7031 7.51662C14.6003 7.41378 14.5425 7.27429 14.5425 7.12884C14.5425 6.9834 14.6003 6.84391 14.7031 6.74107C14.8059 6.63822 14.9454 6.58044 15.0909 6.58044H16.7361C16.8815 6.58044 17.021 6.63822 17.1239 6.74107C17.2267 6.84391 17.2845 6.9834 17.2845 7.12884C17.2845 7.27429 17.2267 7.41378 17.1239 7.51662C17.021 7.61947 16.8815 7.67724 16.7361 7.67724Z" fill="#FF992A"/>
</svg>
