<svg width="24" height="24" viewBox="0 0 24 24" fill="none" xmlns="http://www.w3.org/2000/svg">
<path d="M12 5C8.13991 5 5 8.14056 5 12C5 15.8594 8.13991 19 12 19C15.8601 19 19 15.8594 19 12C19 8.14056 15.8601 5 12 5ZM12 18.0233C8.67842 18.0233 5.97674 15.3216 5.97674 12C5.97674 8.67842 8.67842 5.97674 12 5.97674C15.3216 5.97674 18.0233 8.67842 18.0233 12C18.0233 15.3216 15.3216 18.0233 12 18.0233ZM14.2986 10.3916L12.6902 12L14.2986 13.6084C14.4894 13.7991 14.4894 14.1085 14.2986 14.2993C14.2035 14.3943 14.0785 14.4425 13.9535 14.4425C13.8285 14.4425 13.7034 14.395 13.6084 14.2993L12 12.6909L10.3916 14.2993C10.2966 14.3943 10.1715 14.4425 10.0465 14.4425C9.92149 14.4425 9.79647 14.395 9.7014 14.2993C9.51061 14.1085 9.51061 13.7991 9.7014 13.6084L11.3098 12L9.7014 10.3916C9.51061 10.2009 9.51061 9.89153 9.7014 9.70074C9.89219 9.50995 10.2015 9.50995 10.3923 9.70074L12.0007 11.3091L13.609 9.70074C13.7998 9.50995 14.1091 9.50995 14.2999 9.70074C14.4894 9.89153 14.4894 10.2015 14.2986 10.3916Z" fill="#25314C"/>
</svg>
