<svg width="10" height="10" viewBox="0 0 10 10" fill="none" xmlns="http://www.w3.org/2000/svg">
<path d="M7.875 0.75H7.25V0.375C7.25 0.168 7.082 0 6.875 0C6.668 0 6.5 0.168 6.5 0.375V0.75H3.25V0.375C3.25 0.168 3.082 0 2.875 0C2.668 0 2.5 0.168 2.5 0.375V0.75H1.875C0.666 0.75 0 1.416 0 2.625V7.875C0 9.084 0.666 9.75 1.875 9.75H7.875C9.084 9.75 9.75 9.084 9.75 7.875V2.625C9.75 1.416 9.084 0.75 7.875 0.75ZM1.875 1.5H2.5V1.875C2.5 2.082 2.668 2.25 2.875 2.25C3.082 2.25 3.25 2.082 3.25 1.875V1.5H6.5V1.875C6.5 2.082 6.668 2.25 6.875 2.25C7.082 2.25 7.25 2.082 7.25 1.875V1.5H7.875C8.6635 1.5 9 1.8365 9 2.625V3H0.75V2.625C0.75 1.8365 1.0865 1.5 1.875 1.5ZM7.875 9H1.875C1.0865 9 0.75 8.6635 0.75 7.875V3.75H9V7.875C9 8.6635 8.6635 9 7.875 9ZM3.38501 5.375C3.38501 5.651 3.16151 5.875 2.88501 5.875C2.60901 5.875 2.38245 5.651 2.38245 5.375C2.38245 5.099 2.604 4.875 2.88 4.875H2.88501C3.16101 4.875 3.38501 5.099 3.38501 5.375ZM5.38501 5.375C5.38501 5.651 5.16151 5.875 4.88501 5.875C4.60901 5.875 4.38245 5.651 4.38245 5.375C4.38245 5.099 4.604 4.875 4.88 4.875H4.88501C5.16101 4.875 5.38501 5.099 5.38501 5.375ZM7.38501 5.375C7.38501 5.651 7.16151 5.875 6.88501 5.875C6.60901 5.875 6.38245 5.651 6.38245 5.375C6.38245 5.099 6.604 4.875 6.88 4.875H6.88501C7.16101 4.875 7.38501 5.099 7.38501 5.375ZM3.38501 7.375C3.38501 7.651 3.16151 7.875 2.88501 7.875C2.60901 7.875 2.38245 7.651 2.38245 7.375C2.38245 7.099 2.604 6.875 2.88 6.875H2.88501C3.16101 6.875 3.38501 7.099 3.38501 7.375ZM5.38501 7.375C5.38501 7.651 5.16151 7.875 4.88501 7.875C4.60901 7.875 4.38245 7.651 4.38245 7.375C4.38245 7.099 4.604 6.875 4.88 6.875H4.88501C5.16101 6.875 5.38501 7.099 5.38501 7.375ZM7.38501 7.375C7.38501 7.651 7.16151 7.875 6.88501 7.875C6.60901 7.875 6.38245 7.651 6.38245 7.375C6.38245 7.099 6.604 6.875 6.88 6.875H6.88501C7.16101 6.875 7.38501 7.099 7.38501 7.375Z" fill="#909090"/>
</svg>
