<svg width="13" height="13" viewBox="0 0 13 13" fill="none" xmlns="http://www.w3.org/2000/svg">
<path d="M12.1618 6.23381V7.98381C12.1618 9.24845 12.1618 9.88077 11.9157 10.3638C11.6992 10.7887 11.3537 11.1341 10.9289 11.3506C10.4458 11.5967 9.81351 11.5967 8.54888 11.5967H4.48436C3.21973 11.5967 2.58741 11.5967 2.10438 11.3506C1.6795 11.1341 1.33406 10.7887 1.11757 10.3638C0.87146 9.88077 0.87146 9.24845 0.87146 7.98381V5.04833C0.87146 3.7837 0.87146 3.15138 1.11757 2.66835C1.33406 2.24347 1.6795 1.89803 2.10438 1.68154C2.58741 1.43543 3.21973 1.43543 4.48436 1.43543H6.79888M10.4682 4.25801V0.870911M8.77469 2.56446H12.1618M8.77469 6.51607C8.77469 7.76317 7.76372 8.77414 6.51662 8.77414C5.26953 8.77414 4.25856 7.76317 4.25856 6.51607C4.25856 5.26898 5.26953 4.25801 6.51662 4.25801C7.76372 4.25801 8.77469 5.26898 8.77469 6.51607Z" stroke="#113E5B" stroke-linecap="round" stroke-linejoin="round"/>
</svg>
