<svg width="43" height="35" viewBox="0 0 43 35" fill="none" xmlns="http://www.w3.org/2000/svg">
<path d="M1.43061 5.85094C2.28897 4.9517 3.47433 4.42033 4.82319 4.42033H11.6084V4.33858C11.6084 3.31672 12.0171 2.33573 12.712 1.68174C13.4068 0.98687 14.347 0.578125 15.3688 0.578125H27.6312C28.6939 0.578125 29.634 0.98687 30.3289 1.68174C31.0238 2.3766 31.4325 3.31672 31.4325 4.33858V4.42033H38.1768C39.5257 4.42033 40.711 4.9517 41.5694 5.85094C42.4278 6.7093 43 7.93554 43 9.24352V29.599C43 30.9479 42.4686 32.1333 41.5694 32.9916C40.711 33.85 39.4848 34.4222 38.1768 34.4222H4.82319C3.47433 34.4222 2.28897 33.8909 1.43061 32.9916C0.572243 32.1333 0 30.907 0 29.599V9.24352C0 7.89467 0.531368 6.7093 1.43061 5.85094ZM2.12547 29.599H2.16635C2.16635 30.3348 2.45247 30.9888 2.94297 31.4793C3.43346 31.9698 4.08745 32.2559 4.82319 32.2559H38.1768C38.9125 32.2559 39.5665 31.9698 40.057 31.4793C40.5475 30.9888 40.8337 30.3348 40.8337 29.599V9.24352C40.8337 8.50778 40.5475 7.85379 40.057 7.3633C39.5665 6.8728 38.9125 6.58668 38.1768 6.58668H30.288C29.6749 6.58668 29.1844 6.09619 29.1844 5.48307V4.29771C29.1844 3.84809 29.0209 3.43934 28.7348 3.15322C28.4487 2.8671 28.0399 2.7036 27.5903 2.7036H15.3688C14.9192 2.7036 14.5105 2.8671 14.2243 3.15322C13.9382 3.43934 13.7747 3.84809 13.7747 4.29771V5.48307C13.7747 6.09619 13.2842 6.58668 12.6711 6.58668H4.78232C4.04658 6.58668 3.39259 6.8728 2.90209 7.3633C2.4116 7.85379 2.12547 8.50778 2.12547 9.24352V29.599Z" fill="#BCBDBE"/>
<path d="M21.4996 9.36621C24.279 9.36621 26.8132 10.5107 28.6117 12.3092C30.4511 14.1485 31.5547 16.6419 31.5547 19.4213C31.5547 22.2008 30.4102 24.735 28.6117 26.5335C26.7724 28.3729 24.279 29.4765 21.4996 29.4765C18.7201 29.4765 16.1859 28.332 14.3874 26.5335C12.548 24.6942 11.4444 22.2008 11.4444 19.4213C11.4444 16.6419 12.5889 14.1077 14.3874 12.3092C16.1859 10.5107 18.7201 9.36621 21.4996 9.36621ZM15.9406 25.0212C17.3712 26.4109 19.3332 27.3101 21.4996 27.3101C23.6659 27.3101 25.6279 26.4109 27.0585 25.0212C28.4891 23.5905 29.3475 21.6286 29.3475 19.4622C29.3475 17.2959 28.4482 15.3339 27.0585 13.9033C25.6279 12.4727 23.6659 11.6143 21.4996 11.6143C19.3332 11.6143 17.3712 12.5135 15.9406 13.9033C14.51 15.3339 13.6516 17.2959 13.6516 19.4622C13.6108 21.6286 14.51 23.5905 15.9406 25.0212Z" fill="#BCBDBE"/>
<path d="M6.94832 13.3309C5.84218 13.3309 4.94547 12.4342 4.94547 11.328C4.94547 10.2219 5.84218 9.3252 6.94832 9.3252C8.05447 9.3252 8.95117 10.2219 8.95117 11.328C8.95117 12.4342 8.05447 13.3309 6.94832 13.3309Z" fill="#BCBDBE"/>
</svg>
