<svg width="24" height="24" viewBox="0 0 24 24" fill="none" xmlns="http://www.w3.org/2000/svg">
<path d="M3.12164 20.8794L3.12126 20.879C2.78106 20.5396 2.66563 20.0508 2.81533 19.5994C2.81541 19.5991 2.81549 19.5989 2.81557 19.5986L3.65584 17.0993L3.65589 17.0994L3.65822 17.0921C3.78618 16.6912 3.78787 16.2496 3.60878 15.8698C3.04802 14.6635 2.75392 13.326 2.75392 11.999C2.75392 6.9001 6.90318 2.75 12.002 2.75C17.1018 2.75 21.251 6.89917 21.251 11.999C21.251 17.0989 17.1018 21.248 12.002 21.248C10.6764 21.248 9.33937 20.9532 8.14032 20.3958C7.75297 20.211 7.30934 20.2157 6.90067 20.3455L6.90065 20.3454L6.89282 20.348L4.40643 21.1832C4.40603 21.1833 4.40563 21.1834 4.40523 21.1836C4.27018 21.228 4.1353 21.249 4.0049 21.249C3.6805 21.249 3.36386 21.1216 3.12164 20.8794ZM4.05949 15.6536L4.05947 15.6536L4.06133 15.6575C4.27686 16.1113 4.31405 16.6767 4.1326 17.2508L3.28999 19.7577L3.28997 19.7577C3.15962 20.1457 3.37392 20.4261 3.47435 20.5265C3.57593 20.6281 3.85727 20.841 4.24417 20.711C4.24419 20.711 4.24421 20.711 4.24423 20.711L6.73834 19.8733C7.32464 19.6875 7.89034 19.7238 8.34937 19.9431L8.34936 19.9432L8.35408 19.9454C9.48258 20.4703 10.7456 20.749 12.001 20.749C16.8261 20.749 20.75 16.8251 20.75 12C20.75 7.17493 16.8262 3.25 12.001 3.25C7.17682 3.25 3.25295 7.17392 3.25295 11.999C3.25295 13.2547 3.53179 14.5175 4.05949 15.6536ZM12.0049 12.5C11.7259 12.5 11.5 12.2727 11.5 12C11.5 11.7209 11.7225 11.5 11.9951 11.5H12.0049C12.2814 11.5 12.5049 11.7238 12.5049 12C12.5049 12.2762 12.2814 12.5 12.0049 12.5ZM16.0049 11.5C16.2814 11.5 16.5049 11.7238 16.5049 12C16.5049 12.2762 16.2814 12.5 16.0049 12.5C15.7259 12.5 15.5 12.2727 15.5 12C15.5 11.7209 15.7225 11.5 15.9951 11.5H16.0049ZM8.0049 11.5C8.28143 11.5 8.5049 11.7238 8.5049 12C8.5049 12.2762 8.28143 12.5 8.0049 12.5C7.72587 12.5 7.50002 12.2727 7.50002 12C7.50002 11.7209 7.72246 11.5 7.99514 11.5H8.0049Z" fill="#7B8C97" stroke="#7B8C97"/>
</svg>
