<svg width="22" height="22" viewBox="0 0 22 22" fill="none" xmlns="http://www.w3.org/2000/svg">
<path d="M12.4975 0.396625L12.4975 0.396629C14.4272 0.681972 16.1604 1.40886 17.6747 2.63245L17.6747 2.63248C19.7612 4.31793 21.0509 6.4762 21.5328 9.11743L21.5328 9.11775C21.5813 9.38187 21.615 9.64292 21.65 9.91329C21.6659 10.0364 21.6821 10.1615 21.7 10.2897V11.7011C21.6985 11.7082 21.6968 11.7158 21.6951 11.7238C21.6843 11.7735 21.6703 11.8382 21.662 11.8934L21.6616 11.8959C21.6389 12.0572 21.6209 12.2113 21.6034 12.3611C21.5694 12.6525 21.5372 12.9276 21.4755 13.2076L21.4754 13.2081C20.9159 15.7689 19.6187 17.8713 17.5451 19.4673C15.1825 21.2853 12.5018 21.976 9.54501 21.6017C8.24953 21.4363 6.99851 21.0207 5.86144 20.3781C5.76529 20.3221 5.65758 20.2888 5.54656 20.2808C5.43869 20.2729 5.33049 20.2892 5.22976 20.3283C3.87652 20.768 2.52483 21.2055 1.1684 21.6275L1.16837 21.6274L1.16142 21.6297C1.0136 21.6797 0.855356 21.6903 0.702296 21.6605C0.528018 21.6122 0.424041 21.515 0.370014 21.3978C0.312653 21.2733 0.296984 21.0928 0.369412 20.8665L0.369461 20.8663C0.796141 19.5304 1.22568 18.1958 1.65808 16.8627C1.7061 16.731 1.72424 16.5903 1.71114 16.4507C1.69805 16.3112 1.65409 16.1763 1.58248 16.0559C0.497156 14.0656 0.084576 11.7774 0.40646 9.53315L0.406489 9.53315L0.407026 9.52899C0.65407 7.61663 1.43132 5.81162 2.6508 4.31825L2.6515 4.31739C4.33481 2.24032 6.48832 0.954426 9.12117 0.473304L9.12118 0.473327L9.12488 0.472603C9.40225 0.418306 9.67732 0.382152 9.96262 0.344654C10.0716 0.330328 10.1821 0.315805 10.2948 0.3H11.7186C11.7962 0.309386 11.8723 0.318224 11.9476 0.32696C12.1337 0.348571 12.3145 0.369553 12.4975 0.396625Z" fill="#113E5B" stroke="white" stroke-width="0.6"/>
<path d="M7.99993 11.992C8.00152 12.1234 7.97706 12.2539 7.92798 12.3759C7.87889 12.4978 7.80614 12.6089 7.71393 12.7026C7.62171 12.7963 7.51186 12.8708 7.3907 12.9218C7.26955 12.9729 7.13948 12.9994 7.00802 12.9999C6.87656 13.0015 6.74609 12.9771 6.62413 12.928C6.50217 12.8789 6.39114 12.8061 6.29743 12.7139C6.20373 12.6217 6.12921 12.5119 6.07817 12.3907C6.02714 12.2695 6.00059 12.1395 6.00007 12.008C5.99848 11.8766 6.02294 11.7461 6.07202 11.6241C6.12111 11.5022 6.19386 11.3911 6.28607 11.2974C6.37829 11.2037 6.48814 11.1292 6.6093 11.0782C6.73045 11.0271 6.86052 11.0006 6.99198 11.0001C7.12344 10.9985 7.25391 11.0229 7.37587 11.072C7.49783 11.1211 7.60886 11.1939 7.70257 11.2861C7.79627 11.3783 7.87079 11.4881 7.92183 11.6093C7.97286 11.7305 7.99941 11.8605 7.99993 11.992Z" fill="white"/>
<path d="M11.9999 11.992C12.0015 12.1234 11.9771 12.2539 11.928 12.3759C11.8789 12.4978 11.8061 12.6089 11.7139 12.7026C11.6217 12.7963 11.5119 12.8708 11.3907 12.9218C11.2695 12.9729 11.1395 12.9994 11.008 12.9999C10.8766 13.0015 10.7461 12.9771 10.6241 12.928C10.5022 12.8789 10.3911 12.8061 10.2974 12.7139C10.2037 12.6217 10.1292 12.5119 10.0782 12.3907C10.0271 12.2695 10.0006 12.1395 10.0001 12.008C9.99848 11.8764 10.023 11.7458 10.0722 11.6238C10.1214 11.5017 10.1943 11.3906 10.2866 11.2969C10.379 11.2031 10.4891 11.1286 10.6104 11.0777C10.7317 11.0268 10.862 11.0004 10.9936 11.0001C11.1249 10.9986 11.2553 11.0231 11.3771 11.0723C11.4989 11.1214 11.6098 11.1942 11.7034 11.2864C11.7969 11.3786 11.8713 11.4884 11.9222 11.6095C11.9731 11.7306 11.9995 11.8606 11.9999 11.992Z" fill="white"/>
<path d="M16 11.9976C16.0009 12.1292 15.9758 12.2596 15.926 12.3814C15.8762 12.5032 15.8028 12.6139 15.7099 12.7071C15.6171 12.8003 15.5067 12.8742 15.3851 12.9245C15.2635 12.9747 15.1332 13.0004 15.0016 13C14.8702 13.0008 14.7399 12.9756 14.6182 12.9259C14.4966 12.8761 14.386 12.8027 14.2929 12.7099C14.1998 12.6172 14.126 12.5069 14.0757 12.3855C14.0254 12.264 13.9997 12.1338 14 12.0024C13.9991 11.8706 14.0243 11.7399 14.0743 11.6179C14.1243 11.4959 14.198 11.385 14.2912 11.2918C14.3844 11.1985 14.4952 11.1247 14.6171 11.0746C14.7391 11.0245 14.8698 10.9992 15.0016 11C15.1328 10.9996 15.2627 11.0251 15.384 11.0751C15.5052 11.1251 15.6154 11.1985 15.7082 11.2912C15.801 11.3839 15.8745 11.4941 15.9246 11.6153C15.9747 11.7365 16.0003 11.8664 16 11.9976Z" fill="white"/>
</svg>
