<svg width="262" height="233" viewBox="0 0 262 233" fill="none" xmlns="http://www.w3.org/2000/svg">
<g clip-path="url(#clip0_19_1812)">
<path fill-rule="evenodd" clip-rule="evenodd" d="M67.4698 79.1795L60.5498 80.4895L57.7198 86.9295L54.3398 80.7595L47.3398 80.0495L52.1598 74.9295L50.6698 68.0595L57.0298 71.0595L63.1098 67.5195L62.2198 74.4895L67.4698 79.1795Z" fill="#FF992A"/>
<path fill-rule="evenodd" clip-rule="evenodd" d="M178.02 23.0503L180.39 19.3603L178.7 15.3103L182.94 16.4303L186.27 13.5703L186.52 17.9503L190.27 20.2303L186.18 21.8203L185.17 26.1003L182.39 22.7003L178.02 23.0503Z" fill="#FF992A"/>
<path fill-rule="evenodd" clip-rule="evenodd" d="M243.78 123.97L238.22 123.77L234.91 128.24L233.38 122.89L228.11 121.12L232.72 118.02L232.78 112.46L237.16 115.88L242.46 114.22L240.56 119.44L243.78 123.97Z" fill="#FF992A"/>
<path fill-rule="evenodd" clip-rule="evenodd" d="M37.4196 177.83L30.8596 176.45L25.9996 181.07L25.2896 174.4L19.3896 171.21L25.5096 168.47L26.7296 161.88L31.2196 166.85L37.8596 165.97L34.5196 171.78L37.4196 177.83Z" fill="#FF992A"/>
<path fill-rule="evenodd" clip-rule="evenodd" d="M241.78 207.01L236.9 207.32L234.38 211.52L232.58 206.97L227.81 205.88L231.58 202.76L231.14 197.88L235.28 200.5L239.78 198.58L238.56 203.32L241.78 207.01Z" fill="#FF992A"/>
<path fill-rule="evenodd" clip-rule="evenodd" d="M82.95 217.96L77.41 216.07L72.71 219.58L72.79 213.72L68 210.34L73.6 208.6L75.34 203.01L78.72 207.79L84.57 207.72L81.07 212.41L82.95 217.96Z" fill="#FF992A"/>
<path fill-rule="evenodd" clip-rule="evenodd" d="M70.2998 24.1904L74.1898 20.1704L73.0898 14.6804L78.1098 17.1404L82.9898 14.4004L82.1998 19.9404L86.3198 23.7304L80.8098 24.6904L78.4798 29.7804L75.8598 24.8304L70.2998 24.1904Z" fill="#FF992A"/>
<path fill-rule="evenodd" clip-rule="evenodd" d="M14.1696 116.6L9.78957 117.08L7.70957 120.96L5.88957 116.95L1.55957 116.16L4.81957 113.2L4.21957 108.83L8.04957 111.02L12.0196 109.1L11.1296 113.42L14.1696 116.6Z" fill="#FF992A"/>
<path fill-rule="evenodd" clip-rule="evenodd" d="M234.99 43.1796L237.87 39.6596L236.6 35.2896L240.84 36.9396L244.61 34.3896L244.35 38.9296L247.94 41.7197L243.54 42.8696L242 47.1497L239.54 43.3297L234.99 43.1796Z" fill="#FF992A"/>
<path fill-rule="evenodd" clip-rule="evenodd" d="M189.92 85.2096L192.97 81.1896L191.39 76.3896L196.16 78.0496L200.23 75.0596L200.13 80.1096L204.23 83.0596L199.39 84.5196L197.86 89.3296L194.97 85.1796L189.92 85.2096Z" fill="#FF992A"/>
<path fill-rule="evenodd" clip-rule="evenodd" d="M228.47 171.59L220.22 171.88L215.78 178.85L212.96 171.09L204.96 169.03L211.47 163.94L210.96 155.7L217.81 160.31L225.49 157.28L223.22 165.22L228.47 171.59Z" fill="#FF992A"/>
<path fill-rule="evenodd" clip-rule="evenodd" d="M22.6795 49.1296L20.1495 49.1196L18.7095 51.1896L17.9395 48.7896L15.5195 48.0596L17.5695 46.5796L17.5195 44.0596L19.5595 45.5496L21.9395 44.7196L21.1495 47.1196L22.6795 49.1296Z" fill="#FF992A"/>
<path fill-rule="evenodd" clip-rule="evenodd" d="M254.55 146.65L256.13 144.75L255.46 142.37L257.76 143.28L259.82 141.91L259.65 144.38L261.59 145.91L259.2 146.52L258.34 148.84L257.02 146.75L254.55 146.65Z" fill="#FF992A"/>
<path fill-rule="evenodd" clip-rule="evenodd" d="M144 25.7003L141.53 25.2403L139.75 27.0103L139.43 24.5203L137.2 23.3803L139.47 22.3003L139.86 19.8203L141.59 21.6403L144.07 21.2603L142.87 23.4603L144 25.7003Z" fill="#FF992A"/>
<path fill-rule="evenodd" clip-rule="evenodd" d="M88.8195 181.77L86.3495 181.31L84.5695 183.07L84.2495 180.59L82.0195 179.44L84.2795 178.37L84.6795 175.89L86.4095 177.71L88.8895 177.32L87.6895 179.53L88.8195 181.77Z" fill="#FF992A"/>
<path fill-rule="evenodd" clip-rule="evenodd" d="M169.7 175.37L170.84 172.57L169.18 170.05L172.19 170.26L174.08 167.9L174.8 170.84L177.63 171.9L175.07 173.5L174.93 176.52L172.62 174.57L169.7 175.37Z" fill="#FF992A"/>
<path fill-rule="evenodd" clip-rule="evenodd" d="M196.16 45.3499L194.81 45.4599L194.13 46.6299L193.62 45.3799L192.29 45.0999L193.32 44.2199L193.18 42.8799L194.34 43.5799L195.57 43.0299L195.25 44.3499L196.16 45.3499Z" fill="#FF992A"/>
<path fill-rule="evenodd" clip-rule="evenodd" d="M43.4704 125.48L43.7004 123.12L41.9004 121.59L44.2104 121.09L45.1104 118.9L46.3004 120.94L48.6604 121.12L47.0804 122.89L47.6504 125.19L45.4804 124.23L43.4704 125.48Z" fill="#FF992A"/>
<path fill-rule="evenodd" clip-rule="evenodd" d="M146.97 201.89L143.82 201.76L141.94 204.27L141.09 201.25L138.11 200.23L140.73 198.49L140.78 195.34L143.24 197.29L146.25 196.37L145.16 199.31L146.97 201.89Z" fill="#FF992A"/>
<path d="M71.3398 53.53C71.2779 53.53 71.2179 53.5088 71.1698 53.47C71.124 53.4232 71.0983 53.3604 71.0983 53.295C71.0983 53.2295 71.124 53.1667 71.1698 53.12C72.4798 51.64 71.9298 49.18 70.5998 47.81C69.052 46.4749 67.1468 45.6231 65.1198 45.36L64.1198 45.17C62.3518 44.926 60.6337 44.4028 59.0298 43.62C57.6921 42.8478 56.5846 41.7327 55.8217 40.3897C55.0588 39.0467 54.668 37.5244 54.6898 35.98C54.7529 34.9208 54.9136 33.8696 55.1698 32.84C55.4844 31.6659 55.6425 30.4554 55.6398 29.24C55.4998 26.43 53.6398 23.76 50.0198 21.06L48.4098 19.9C46.0798 18.25 43.6698 16.54 42.1798 14.06C42.1627 14.0317 42.1514 14.0004 42.1464 13.9678C42.1415 13.9352 42.143 13.9019 42.1509 13.8699C42.1587 13.8378 42.1729 13.8077 42.1924 13.7811C42.212 13.7545 42.2366 13.732 42.2648 13.715C42.293 13.6979 42.3244 13.6865 42.357 13.6816C42.3896 13.6766 42.4229 13.6781 42.4549 13.686C42.4869 13.6939 42.5171 13.708 42.5437 13.7276C42.5703 13.7471 42.5927 13.7717 42.6098 13.8C44.0498 16.19 46.4098 17.87 48.6998 19.49C49.2498 19.88 49.7898 20.26 50.3198 20.65C54.0798 23.45 55.9898 26.25 56.1398 29.22C56.1466 30.4791 55.9852 31.7335 55.6598 32.95C55.4061 33.9323 55.2487 34.9371 55.1898 35.95C55.1639 37.4105 55.5295 38.8513 56.2488 40.1228C56.968 41.3942 58.0146 42.4498 59.2798 43.18C60.8561 43.9427 62.544 44.4491 64.2798 44.68L65.2798 44.87C67.4044 45.1458 69.399 46.0474 71.0098 47.46C72.5098 48.99 73.0998 51.76 71.6098 53.46C71.5777 53.4983 71.5344 53.5257 71.486 53.5382C71.4376 53.5508 71.3865 53.5479 71.3398 53.53Z" fill="white"/>
<path d="M44.5802 97.9897C39.4801 97.9816 34.4623 96.7031 29.9802 94.2697C28.7902 93.6197 27.6302 92.8797 26.5002 92.1597C24.5279 90.793 22.412 89.6461 20.1902 88.7397C16.8802 87.5297 12.4402 87.5597 9.98022 90.3697C9.93349 90.4155 9.87066 90.4411 9.80522 90.4411C9.73978 90.4411 9.67695 90.4155 9.63022 90.3697C9.60602 90.3463 9.58678 90.3184 9.57363 90.2874C9.56049 90.2565 9.55371 90.2233 9.55371 90.1897C9.55371 90.156 9.56049 90.1228 9.57363 90.0919C9.58678 90.0609 9.60602 90.033 9.63022 90.0097C12.2502 87.0097 16.9202 87.0097 20.3902 88.2397C22.6465 89.1602 24.7958 90.3238 26.8002 91.7096C27.9202 92.4196 29.0702 93.1597 30.2502 93.7997C35.1107 96.4418 40.6049 97.6942 46.1302 97.4196C46.1642 97.4154 46.1986 97.4184 46.2313 97.4285C46.264 97.4387 46.2941 97.4557 46.3197 97.4784C46.3452 97.5011 46.3657 97.529 46.3795 97.5603C46.3934 97.5916 46.4005 97.6254 46.4002 97.6597C46.4016 97.6925 46.3964 97.7253 46.3851 97.7561C46.3737 97.787 46.3564 97.8153 46.3341 97.8394C46.3118 97.8636 46.285 97.8831 46.2552 97.8968C46.2253 97.9106 46.1931 97.9184 46.1602 97.9196C45.6102 97.9796 45.1002 97.9897 44.5802 97.9897Z" fill="white"/>
<path d="M44.5296 198.44C44.4856 198.441 44.4421 198.431 44.4035 198.41C44.3648 198.389 44.3325 198.358 44.3096 198.32C44.2768 198.263 44.2678 198.195 44.2847 198.132C44.3015 198.068 44.3428 198.014 44.3996 197.98C49.8212 194.728 53.903 189.646 55.9096 183.65C56.6432 181.22 57.2013 178.74 57.5796 176.23C57.9273 174.051 58.3879 171.892 58.9596 169.76C60.5496 164.22 63.7396 160.27 67.6896 158.92C67.7211 158.91 67.7544 158.906 67.7875 158.908C67.8207 158.91 67.853 158.919 67.8827 158.934C67.9124 158.949 67.9389 158.969 67.9607 158.994C67.9825 159.02 67.9991 159.049 68.0096 159.08C68.0201 159.112 68.0243 159.145 68.0219 159.178C68.0196 159.211 68.0107 159.244 67.9959 159.273C67.981 159.303 67.9604 159.33 67.9353 159.351C67.9102 159.373 67.8811 159.39 67.8496 159.4C64.0596 160.69 60.9896 164.52 59.4396 169.9C58.8698 172.011 58.4158 174.15 58.0796 176.31C57.695 178.848 57.1269 181.355 56.3796 183.81C54.3368 189.921 50.1763 195.099 44.6496 198.41L44.5296 198.44Z" fill="white"/>
<path d="M249.38 148.37C249.315 148.357 249.258 148.32 249.221 148.266C249.183 148.211 249.169 148.145 249.18 148.08C249.99 143.47 246.01 139.23 241.79 138.16C236.9 136.93 231.92 138.91 228.6 140.8L228.34 140.95C226.56 141.95 224.54 143.12 222.51 142.51C220.81 142.01 219.8 140.51 218.83 139.03C218.52 138.57 218.2 138.09 217.83 137.66C216.246 135.735 214.039 134.423 211.59 133.952C209.142 133.481 206.606 133.88 204.42 135.08C204.362 135.113 204.292 135.122 204.227 135.105C204.162 135.089 204.106 135.047 204.07 134.99C204.038 134.933 204.029 134.865 204.045 134.801C204.062 134.737 204.104 134.683 204.16 134.65C206.459 133.379 209.129 132.954 211.708 133.447C214.288 133.94 216.613 135.321 218.28 137.35C218.62 137.8 218.94 138.28 219.28 138.75C220.28 140.21 221.16 141.58 222.69 142.04C224.52 142.58 226.44 141.48 228.13 140.51L228.4 140.36C231.79 138.43 236.9 136.36 241.95 137.68C246.39 138.8 250.57 143.28 249.71 148.16C249.705 148.196 249.691 148.231 249.671 148.262C249.651 148.293 249.624 148.32 249.593 148.339C249.562 148.359 249.527 148.372 249.49 148.377C249.453 148.383 249.416 148.38 249.38 148.37Z" fill="white"/>
<path d="M195.68 97.65C194.85 97.6511 194.021 97.5876 193.2 97.46C193.138 97.4478 193.082 97.412 193.045 97.3599C193.007 97.3078 192.992 97.2434 193 97.18C193.004 97.1474 193.014 97.1159 193.031 97.0874C193.047 97.0589 193.069 97.0341 193.095 97.0144C193.121 96.9947 193.151 96.9806 193.183 96.973C193.215 96.9653 193.248 96.9643 193.28 96.97C199.48 97.97 205.56 94.87 210.17 92.08C211.06 91.54 211.96 90.99 212.85 90.43C217.08 87.78 221.45 85.05 226.38 84C227.75 83.71 229.16 83.55 230.53 83.4C232.238 83.2479 233.933 82.9705 235.6 82.57C239.07 81.63 241.55 79.57 242.25 76.99C242.273 76.9323 242.316 76.885 242.371 76.8571C242.426 76.8291 242.489 76.8226 242.549 76.8388C242.609 76.8549 242.66 76.8926 242.694 76.9445C242.727 76.9965 242.74 77.059 242.73 77.12C241.99 79.85 239.37 82.07 235.73 83.05C234.038 83.4619 232.316 83.7427 230.58 83.89C229.23 84.05 227.83 84.2 226.49 84.49C221.64 85.49 217.31 88.23 213.11 90.85C212.22 91.41 211.32 91.97 210.43 92.51C206.36 94.97 201.15 97.65 195.68 97.65Z" fill="white"/>
<path d="M174.62 50.95H174.54C174.478 50.9294 174.427 50.8854 174.397 50.8275C174.367 50.7696 174.361 50.7023 174.38 50.64C175.566 47.1022 177.589 43.9033 180.277 41.3159C182.965 38.7285 186.239 36.8293 189.82 35.78C191.234 35.4041 192.665 35.1004 194.11 34.87C195.32 34.66 196.57 34.43 197.78 34.13C203.56 32.6352 208.655 29.209 212.22 24.42C212.239 24.393 212.263 24.37 212.291 24.3523C212.319 24.3346 212.35 24.3226 212.382 24.3171C212.415 24.3115 212.448 24.3124 212.481 24.3198C212.513 24.3272 212.543 24.3408 212.57 24.36C212.623 24.3998 212.658 24.459 212.667 24.5247C212.677 24.5903 212.66 24.657 212.62 24.71C208.99 29.5965 203.795 33.0908 197.9 34.61C196.68 34.92 195.42 35.15 194.2 35.36C192.79 35.61 191.34 35.87 189.95 36.26C186.45 37.2897 183.251 39.148 180.622 41.6774C177.994 44.2068 176.014 47.3326 174.85 50.79C174.833 50.8374 174.802 50.8784 174.761 50.9071C174.719 50.9358 174.67 50.9508 174.62 50.95Z" fill="white"/>
<path d="M119.76 42.0804C119.712 42.08 119.666 42.0661 119.626 42.0405C119.586 42.0148 119.555 41.9784 119.535 41.9355C119.515 41.8925 119.508 41.8448 119.514 41.7979C119.52 41.7509 119.539 41.7067 119.57 41.6703C121.38 39.5403 123.25 37.3404 124.19 34.6704C125.19 31.7704 124.78 28.7204 123.07 26.9004C122.336 26.1845 121.509 25.5721 120.61 25.0804C120.19 24.8204 119.75 24.5504 119.34 24.2703C118.39 23.6103 116.8 22.2704 116.78 20.3504C116.76 18.4304 118.09 17.3004 119.38 16.0704C119.8 15.6604 120.24 15.2404 120.62 14.8104C122.029 13.0446 122.685 10.794 122.446 8.54728C122.206 6.30056 121.09 4.23906 119.34 2.81035C119.313 2.79065 119.291 2.76597 119.274 2.73773C119.258 2.70948 119.247 2.67821 119.242 2.64571C119.237 2.61321 119.239 2.58011 119.247 2.54831C119.255 2.5165 119.27 2.48662 119.29 2.46035C119.309 2.43409 119.334 2.41196 119.362 2.39523C119.39 2.37851 119.422 2.36751 119.454 2.36286C119.487 2.35822 119.52 2.36002 119.552 2.36817C119.583 2.37632 119.613 2.39065 119.64 2.41035C121.484 3.92078 122.661 6.09615 122.915 8.46672C123.17 10.8373 122.482 13.2128 121 15.0804C120.61 15.5204 120.16 15.9504 119.72 16.3704C118.46 17.5804 117.27 18.7204 117.28 20.2903C117.29 21.8603 118.76 23.1904 119.63 23.8004C120.03 24.0704 120.45 24.3403 120.87 24.5903C121.805 25.1051 122.666 25.7442 123.43 26.4904C125.27 28.4904 125.75 31.6904 124.67 34.7704C123.67 37.5303 121.67 39.8703 119.95 41.9304C119.933 41.9694 119.907 42.0036 119.874 42.0299C119.841 42.0561 119.801 42.0735 119.76 42.0804Z" fill="white"/>
<path d="M17.8598 144.91H17.7498C17.6897 144.88 17.6436 144.827 17.6213 144.764C17.5989 144.701 17.6019 144.631 17.6298 144.57C19.7798 140.01 21.7698 138.52 24.3398 136.91C27.2598 135.09 31.0998 135.11 33.1198 135.29C34.1198 135.38 35.2198 135.52 36.2398 135.66C38.0181 135.957 39.8169 136.114 41.6198 136.13C43.5198 136.13 47.0198 135.69 49.1798 133.18C49.2265 133.134 49.2893 133.108 49.3548 133.108C49.4202 133.108 49.483 133.134 49.5298 133.18C49.5762 133.228 49.6022 133.293 49.6022 133.36C49.6022 133.427 49.5762 133.491 49.5298 133.54C47.2398 136.19 43.5298 136.63 41.5998 136.66C39.7708 136.635 37.9461 136.477 36.1398 136.19C35.1398 136.05 34.0798 135.91 33.0398 135.82C30.1282 135.441 27.1711 135.979 24.5798 137.36C22.0698 138.93 20.1398 140.36 18.0598 144.82C18.0346 144.848 18.0038 144.871 17.9693 144.886C17.9349 144.902 17.8976 144.91 17.8598 144.91Z" fill="white"/>
<path d="M102.6 64.8195C102.535 64.8073 102.476 64.7704 102.437 64.7165C102.398 64.6625 102.381 64.5956 102.39 64.5295C102.96 60.3595 103.39 55.6395 100.68 52.5295C99.8278 51.6163 98.8674 50.8104 97.82 50.1296C96.5447 49.3299 95.418 48.3148 94.49 47.1296C93.5606 45.697 93.1868 43.9741 93.4392 42.2852C93.6915 40.5963 94.5525 39.0579 95.86 37.9595C95.8825 37.9356 95.9096 37.9166 95.9397 37.9035C95.9698 37.8905 96.0022 37.8838 96.035 37.8838C96.0678 37.8838 96.1003 37.8905 96.1304 37.9035C96.1605 37.9166 96.1876 37.9356 96.21 37.9595C96.2558 38.0063 96.2815 38.0691 96.2815 38.1346C96.2815 38.2 96.2558 38.2628 96.21 38.3096C94.9915 39.321 94.1884 40.7459 93.9541 42.3121C93.7199 43.8782 94.0709 45.4758 94.94 46.7996C95.8401 47.9317 96.9296 48.8994 98.16 49.6596C99.2402 50.3636 100.231 51.1964 101.11 52.1395C103.9 55.4095 103.52 60.2596 102.93 64.5396C102.942 64.5833 102.94 64.6294 102.927 64.6726C102.913 64.7157 102.888 64.7541 102.853 64.7834C102.819 64.8127 102.777 64.8316 102.732 64.838C102.687 64.8444 102.641 64.838 102.6 64.8195Z" fill="white"/>
<path d="M152.66 63.5998C152.61 63.5991 152.562 63.5835 152.521 63.555C152.48 63.5265 152.448 63.4864 152.43 63.4398C151.552 61.2687 151.24 58.9102 151.523 56.5855C151.807 54.2608 152.676 52.0463 154.05 50.1498C154.677 49.3426 155.344 48.5682 156.05 47.8298C156.64 47.1998 157.25 46.5498 157.79 45.8298C159.004 44.4504 159.657 42.6666 159.62 40.8298C159.615 40.7623 159.635 40.6954 159.678 40.6431C159.721 40.5908 159.783 40.5573 159.85 40.5498C159.915 40.5441 159.979 40.5639 160.03 40.605C160.08 40.6461 160.113 40.7052 160.12 40.7698C160.192 42.7492 159.497 44.68 158.18 46.1598C157.63 46.8698 157.01 47.5298 156.42 48.1598C155.711 48.8811 155.043 49.6424 154.42 50.4398C153.097 52.2664 152.26 54.3993 151.987 56.6382C151.714 58.8772 152.014 61.1488 152.86 63.2398C152.884 63.3022 152.882 63.3713 152.856 63.4328C152.83 63.4942 152.781 63.5432 152.72 63.5698L152.66 63.5998Z" fill="white"/>
<path d="M113.13 224.13C113.08 224.13 113.031 224.114 112.99 224.085C112.949 224.057 112.918 224.017 112.9 223.97C111.08 219.19 112.69 213.83 114.33 209.18L114.39 209.03C116.06 204.32 117.79 199.45 116.55 194.73C116.535 194.667 116.545 194.6 116.579 194.543C116.612 194.487 116.667 194.447 116.73 194.43C116.762 194.421 116.796 194.419 116.829 194.423C116.862 194.427 116.894 194.438 116.923 194.455C116.952 194.471 116.977 194.494 116.997 194.521C117.017 194.547 117.032 194.578 117.04 194.61C118.31 199.47 116.56 204.42 114.86 209.2L114.81 209.35C113.19 213.91 111.61 219.17 113.36 223.79C113.373 223.82 113.379 223.853 113.379 223.885C113.379 223.918 113.372 223.95 113.359 223.98C113.346 224.01 113.327 224.037 113.303 224.06C113.279 224.082 113.251 224.099 113.22 224.11L113.13 224.13Z" fill="white"/>
<path d="M160.41 222.74C160.372 222.74 160.333 222.731 160.299 222.714C160.264 222.697 160.234 222.671 160.21 222.64C157.97 219.81 158.73 215.89 159.38 213.81C159.74 212.65 160.21 211.51 160.66 210.4C161.388 208.793 161.957 207.118 162.36 205.4C163.36 200.1 161.15 194.6 159.36 190.93C158.85 189.88 158.3 188.84 157.76 187.79C155.804 184.372 154.298 180.715 153.28 176.91C153.274 176.878 153.274 176.845 153.28 176.813C153.286 176.781 153.299 176.75 153.317 176.723C153.335 176.695 153.358 176.672 153.385 176.653C153.413 176.635 153.443 176.622 153.475 176.615C153.508 176.609 153.541 176.609 153.573 176.615C153.605 176.621 153.636 176.634 153.663 176.652C153.691 176.67 153.714 176.693 153.733 176.72C153.751 176.748 153.764 176.778 153.77 176.81C154.773 180.554 156.258 184.151 158.19 187.51C158.73 188.51 159.27 189.61 159.79 190.66C161.61 194.4 163.91 200 162.79 205.45C162.385 207.217 161.805 208.938 161.06 210.59C160.62 211.69 160.15 212.82 159.8 213.95C158.74 217.34 159.01 220.39 160.55 222.33C160.594 222.378 160.618 222.441 160.618 222.505C160.618 222.57 160.594 222.633 160.55 222.68C160.511 222.714 160.462 222.735 160.41 222.74Z" fill="white"/>
<path d="M201.45 207C201.405 207.014 201.356 207.014 201.31 207C196.4 203.58 194.06 197.57 192.24 192.22L191.99 191.49C190.2 186.2 188.35 180.73 184.32 176.98C184.274 176.931 184.248 176.867 184.248 176.8C184.248 176.732 184.274 176.668 184.32 176.62C184.37 176.575 184.434 176.551 184.5 176.551C184.567 176.551 184.631 176.575 184.68 176.62C188.8 180.46 190.68 185.99 192.48 191.34L192.73 192.07C194.52 197.35 196.84 203.26 201.61 206.6C201.638 206.618 201.662 206.641 201.681 206.669C201.699 206.696 201.712 206.727 201.719 206.76C201.725 206.792 201.725 206.826 201.719 206.859C201.712 206.891 201.699 206.922 201.68 206.95C201.649 206.976 201.612 206.995 201.572 207.003C201.532 207.012 201.49 207.011 201.45 207Z" fill="white"/>
<path d="M40.82 59.3402C40.82 59.5661 40.7529 59.7869 40.6272 59.9746C40.5015 60.1623 40.3228 60.3084 40.114 60.3944C39.9051 60.4804 39.6753 60.5024 39.4539 60.4575C39.2325 60.4127 39.0294 60.3032 38.8704 60.1427C38.7114 59.9823 38.6036 59.7782 38.5607 59.5564C38.5179 59.3347 38.5419 59.1051 38.6297 58.897C38.7175 58.6889 38.8652 58.5115 39.054 58.3875C39.2428 58.2634 39.4642 58.1983 39.69 58.2002C39.9906 58.2029 40.278 58.3241 40.4897 58.5376C40.7013 58.7512 40.8201 59.0396 40.82 59.3402Z" fill="white"/>
<path d="M106.58 12.5699C107.519 12.5699 108.28 11.8088 108.28 10.8699C108.28 9.93104 107.519 9.16992 106.58 9.16992C105.641 9.16992 104.88 9.93104 104.88 10.8699C104.88 11.8088 105.641 12.5699 106.58 12.5699Z" fill="white"/>
<path d="M145.84 38.3696C146.546 38.3696 147.12 37.7965 147.12 37.0896C147.12 36.3826 146.546 35.8096 145.84 35.8096C145.133 35.8096 144.56 36.3826 144.56 37.0896C144.56 37.7965 145.133 38.3696 145.84 38.3696Z" fill="white"/>
<path d="M222.52 52.8203C222.52 53.2159 222.402 53.6026 222.182 53.9315C221.963 54.2604 221.65 54.5167 221.285 54.6681C220.919 54.8195 220.517 54.8591 220.129 54.7819C219.741 54.7047 219.385 54.5142 219.105 54.2345C218.826 53.9548 218.635 53.5985 218.558 53.2105C218.481 52.8225 218.52 52.4204 218.672 52.0549C218.823 51.6895 219.079 51.3771 219.408 51.1574C219.737 50.9376 220.124 50.8203 220.52 50.8203C221.05 50.8203 221.559 51.031 221.934 51.4061C222.309 51.7812 222.52 52.2899 222.52 52.8203Z" fill="white"/>
<path d="M189.07 60.0801C189.07 60.2779 189.012 60.4712 188.902 60.6357C188.792 60.8001 188.636 60.9283 188.453 61.004C188.27 61.0796 188.069 61.0994 187.875 61.0609C187.681 61.0223 187.503 60.927 187.363 60.7872C187.223 60.6473 187.128 60.4692 187.09 60.2752C187.051 60.0812 187.071 59.8801 187.146 59.6974C187.222 59.5147 187.35 59.3585 187.515 59.2486C187.679 59.1387 187.873 59.0801 188.07 59.0801C188.336 59.0801 188.59 59.1854 188.777 59.373C188.965 59.5605 189.07 59.8149 189.07 60.0801Z" fill="white"/>
<path d="M245.48 99.1703C245.478 99.5338 245.368 99.8886 245.165 100.19C244.961 100.491 244.673 100.725 244.337 100.863C244.001 101.001 243.631 101.036 243.275 100.964C242.918 100.892 242.592 100.716 242.335 100.458C242.079 100.2 241.905 99.8723 241.834 99.5156C241.764 99.159 241.801 98.7895 241.941 98.4539C242.08 98.1183 242.316 97.8315 242.619 97.6297C242.921 97.428 243.276 97.3203 243.64 97.3203C243.882 97.3203 244.122 97.3682 244.346 97.4613C244.57 97.5544 244.773 97.6908 244.944 97.8628C245.115 98.0347 245.251 98.2387 245.343 98.4631C245.434 98.6875 245.481 98.9278 245.48 99.1703Z" fill="white"/>
<path d="M254.55 127.8C254.55 127.94 254.508 128.078 254.43 128.194C254.352 128.311 254.241 128.402 254.112 128.456C253.982 128.51 253.839 128.524 253.701 128.496C253.564 128.469 253.437 128.401 253.338 128.302C253.239 128.203 253.171 128.076 253.144 127.938C253.116 127.801 253.13 127.658 253.184 127.528C253.238 127.398 253.329 127.288 253.445 127.21C253.562 127.132 253.699 127.09 253.84 127.09C253.933 127.089 254.026 127.106 254.113 127.141C254.2 127.176 254.279 127.229 254.345 127.295C254.411 127.361 254.463 127.44 254.499 127.527C254.534 127.613 254.551 127.706 254.55 127.8Z" fill="white"/>
<path d="M215.15 128.65C215.15 128.848 215.092 129.041 214.982 129.206C214.872 129.37 214.716 129.499 214.533 129.574C214.35 129.65 214.149 129.67 213.955 129.631C213.761 129.593 213.583 129.497 213.443 129.357C213.303 129.218 213.208 129.039 213.17 128.845C213.131 128.651 213.151 128.45 213.227 128.268C213.302 128.085 213.43 127.929 213.595 127.819C213.759 127.709 213.953 127.65 214.15 127.65C214.416 127.65 214.67 127.756 214.857 127.943C215.045 128.131 215.15 128.385 215.15 128.65Z" fill="white"/>
<path d="M200.27 150.34C200.977 150.34 201.55 149.767 201.55 149.06C201.55 148.353 200.977 147.78 200.27 147.78C199.563 147.78 198.99 148.353 198.99 149.06C198.99 149.767 199.563 150.34 200.27 150.34Z" fill="white"/>
<path d="M204.66 184.63C205.599 184.63 206.36 183.869 206.36 182.93C206.36 181.992 205.599 181.23 204.66 181.23C203.721 181.23 202.96 181.992 202.96 182.93C202.96 183.869 203.721 184.63 204.66 184.63Z" fill="white"/>
<path d="M244.91 177.68C244.91 177.877 244.852 178.071 244.742 178.235C244.632 178.4 244.476 178.528 244.293 178.604C244.11 178.679 243.909 178.699 243.715 178.66C243.521 178.622 243.343 178.527 243.203 178.387C243.063 178.247 242.968 178.069 242.929 177.875C242.891 177.681 242.911 177.48 242.986 177.297C243.062 177.114 243.19 176.958 243.355 176.848C243.519 176.738 243.712 176.68 243.91 176.68C244.175 176.68 244.43 176.785 244.617 176.973C244.805 177.16 244.91 177.414 244.91 177.68Z" fill="white"/>
<path d="M218.55 203.34C218.55 203.621 218.466 203.896 218.31 204.13C218.153 204.364 217.931 204.546 217.671 204.653C217.411 204.76 217.125 204.787 216.849 204.732C216.574 204.676 216.321 204.54 216.122 204.34C215.924 204.141 215.79 203.887 215.736 203.611C215.682 203.335 215.712 203.049 215.821 202.79C215.93 202.53 216.114 202.309 216.348 202.154C216.583 202 216.859 201.918 217.14 201.92C217.515 201.923 217.873 202.073 218.138 202.339C218.402 202.605 218.55 202.965 218.55 203.34Z" fill="white"/>
<path d="M180 209.43C180.002 209.684 179.929 209.933 179.789 210.145C179.649 210.357 179.449 210.523 179.215 210.621C178.981 210.719 178.722 210.745 178.473 210.696C178.224 210.647 177.995 210.525 177.815 210.345C177.636 210.166 177.514 209.937 177.465 209.687C177.415 209.438 177.442 209.18 177.54 208.946C177.638 208.711 177.804 208.512 178.016 208.372C178.228 208.232 178.476 208.158 178.73 208.16C178.897 208.16 179.062 208.193 179.216 208.257C179.37 208.321 179.51 208.414 179.628 208.532C179.746 208.65 179.84 208.79 179.904 208.944C179.968 209.098 180 209.263 180 209.43Z" fill="white"/>
<path d="M182.28 179.67C182.28 179.868 182.222 180.061 182.112 180.225C182.002 180.39 181.846 180.518 181.663 180.594C181.48 180.669 181.279 180.689 181.085 180.651C180.891 180.612 180.713 180.517 180.573 180.377C180.433 180.237 180.338 180.059 180.299 179.865C180.261 179.671 180.281 179.47 180.356 179.287C180.432 179.105 180.56 178.948 180.725 178.838C180.889 178.729 181.082 178.67 181.28 178.67C181.545 178.67 181.8 178.775 181.987 178.963C182.175 179.15 182.28 179.405 182.28 179.67Z" fill="white"/>
<path d="M126.28 199.09C126.987 199.09 127.56 198.517 127.56 197.81C127.56 197.103 126.987 196.53 126.28 196.53C125.573 196.53 125 197.103 125 197.81C125 198.517 125.573 199.09 126.28 199.09Z" fill="white"/>
<path d="M145.99 218.65C145.99 218.818 145.94 218.982 145.847 219.122C145.753 219.262 145.621 219.371 145.465 219.435C145.31 219.499 145.139 219.516 144.974 219.483C144.809 219.451 144.658 219.37 144.539 219.251C144.42 219.132 144.339 218.981 144.306 218.816C144.274 218.651 144.29 218.48 144.355 218.325C144.419 218.169 144.528 218.036 144.668 217.943C144.808 217.85 144.972 217.8 145.14 217.8C145.365 217.8 145.582 217.889 145.741 218.049C145.9 218.208 145.99 218.424 145.99 218.65Z" fill="white"/>
<path d="M68.74 183.78C69.2868 183.78 69.73 183.337 69.73 182.79C69.73 182.243 69.2868 181.8 68.74 181.8C68.1932 181.8 67.75 182.243 67.75 182.79C67.75 183.337 68.1932 183.78 68.74 183.78Z" fill="white"/>
<path d="M103.47 220.2C103.472 220.509 103.382 220.812 103.212 221.07C103.041 221.328 102.798 221.529 102.514 221.649C102.229 221.768 101.915 221.801 101.611 221.742C101.308 221.683 101.029 221.535 100.81 221.317C100.591 221.099 100.441 220.821 100.38 220.518C100.319 220.216 100.35 219.901 100.467 219.616C100.585 219.33 100.785 219.086 101.042 218.914C101.299 218.742 101.601 218.65 101.91 218.65C102.322 218.65 102.717 218.813 103.009 219.104C103.301 219.394 103.467 219.788 103.47 220.2Z" fill="white"/>
<path d="M101.48 177.83C101.48 178.111 101.564 178.386 101.72 178.619C101.876 178.853 102.098 179.035 102.357 179.142C102.617 179.25 102.902 179.278 103.177 179.223C103.453 179.168 103.706 179.033 103.905 178.834C104.103 178.636 104.238 178.383 104.293 178.107C104.348 177.832 104.32 177.546 104.212 177.287C104.105 177.027 103.923 176.806 103.689 176.649C103.456 176.493 103.181 176.41 102.9 176.41C102.524 176.41 102.163 176.56 101.896 176.826C101.63 177.092 101.48 177.454 101.48 177.83Z" fill="white"/>
<path d="M40.54 189.73C40.54 190.126 40.4227 190.513 40.203 190.842C39.9832 191.171 39.6709 191.427 39.3054 191.578C38.94 191.73 38.5378 191.769 38.1499 191.692C37.7619 191.615 37.4055 191.424 37.1258 191.145C36.8461 190.865 36.6556 190.509 36.5785 190.121C36.5013 189.733 36.5409 189.331 36.6923 188.965C36.8437 188.6 37.1 188.287 37.4289 188.068C37.7578 187.848 38.1445 187.73 38.54 187.73C39.0705 187.73 39.5792 187.941 39.9543 188.316C40.3293 188.691 40.54 189.2 40.54 189.73Z" fill="white"/>
<path d="M35.4299 147.21C35.4299 147.433 35.3641 147.651 35.2408 147.836C35.1175 148.021 34.9422 148.166 34.7368 148.252C34.5315 148.338 34.3054 148.362 34.0867 148.32C33.8681 148.278 33.6667 148.172 33.5079 148.016C33.3491 147.86 33.24 147.661 33.1941 147.443C33.1483 147.225 33.1678 146.998 33.2503 146.791C33.3328 146.585 33.4745 146.407 33.6577 146.28C33.8408 146.154 34.0573 146.084 34.2799 146.08C34.43 146.078 34.5791 146.105 34.7185 146.16C34.8579 146.216 34.9849 146.299 35.0919 146.404C35.199 146.509 35.284 146.635 35.342 146.773C35.4001 146.912 35.4299 147.06 35.4299 147.21Z" fill="white"/>
<path d="M50.3103 158.27C50.8571 158.27 51.3003 157.827 51.3003 157.28C51.3003 156.733 50.8571 156.29 50.3103 156.29C49.7636 156.29 49.3203 156.733 49.3203 157.28C49.3203 157.827 49.7636 158.27 50.3103 158.27Z" fill="white"/>
<path d="M24.66 127.23C24.66 127.538 24.5685 127.84 24.3971 128.097C24.2257 128.353 23.9821 128.553 23.697 128.671C23.412 128.789 23.0983 128.82 22.7957 128.76C22.4931 128.7 22.2151 128.551 21.997 128.333C21.7788 128.115 21.6302 127.837 21.57 127.534C21.5098 127.232 21.5407 126.918 21.6588 126.633C21.7769 126.348 21.9768 126.104 22.2334 125.933C22.4899 125.761 22.7915 125.67 23.1 125.67C23.5138 125.67 23.9106 125.834 24.2031 126.127C24.4957 126.419 24.66 126.816 24.66 127.23Z" fill="white"/>
<path d="M21.8305 99.3103C22.2999 99.3103 22.6805 98.9298 22.6805 98.4604C22.6805 97.9909 22.2999 97.6104 21.8305 97.6104C21.361 97.6104 20.9805 97.9909 20.9805 98.4604C20.9805 98.9298 21.361 99.3103 21.8305 99.3103Z" fill="white"/>
<path d="M44.0798 115.75C44.7867 115.75 45.3598 115.177 45.3598 114.47C45.3598 113.764 44.7867 113.19 44.0798 113.19C43.3729 113.19 42.7998 113.764 42.7998 114.47C42.7998 115.177 43.3729 115.75 44.0798 115.75Z" fill="white"/>
<path d="M22.1097 77.34C22.1097 77.7044 22.0015 78.0605 21.7989 78.3633C21.5963 78.6661 21.3083 78.9019 20.9715 79.0409C20.6347 79.1799 20.2642 79.2157 19.907 79.1439C19.5498 79.0721 19.222 78.8959 18.9651 78.6375C18.7081 78.3792 18.5337 78.0504 18.4638 77.6928C18.394 77.3352 18.4318 76.965 18.5726 76.6289C18.7134 76.2929 18.9508 76.0062 19.2547 75.8052C19.5586 75.6043 19.9154 75.498 20.2797 75.5C20.766 75.5027 21.2314 75.6977 21.5743 76.0425C21.9172 76.3873 22.1097 76.8538 22.1097 77.34Z" fill="white"/>
<path d="M64.3496 54.0801C64.3496 54.2779 64.291 54.4712 64.1811 54.6357C64.0712 54.8001 63.915 54.9283 63.7323 55.004C63.5496 55.0796 63.3485 55.0994 63.1545 55.0609C62.9605 55.0223 62.7824 54.927 62.6425 54.7872C62.5026 54.6473 62.4074 54.4692 62.3688 54.2752C62.3302 54.0812 62.35 53.8801 62.4257 53.6974C62.5014 53.5147 62.6296 53.3585 62.794 53.2486C62.9585 53.1387 63.1518 53.0801 63.3496 53.0801C63.6148 53.0801 63.8692 53.1854 64.0567 53.373C64.2443 53.5605 64.3496 53.8149 64.3496 54.0801Z" fill="white"/>
<path d="M130.4 55.3704C130.402 55.5971 130.336 55.8193 130.211 56.0085C130.086 56.1977 129.908 56.3453 129.699 56.4325C129.489 56.5197 129.259 56.5426 129.036 56.4981C128.814 56.4536 128.61 56.3438 128.45 56.1827C128.291 56.0217 128.183 55.8167 128.14 55.594C128.098 55.3713 128.123 55.141 128.212 54.9324C128.301 54.7239 128.45 54.5467 128.64 54.4234C128.831 54.3002 129.053 54.2364 129.28 54.2404C129.578 54.243 129.863 54.3633 130.073 54.5749C130.282 54.7865 130.4 55.0724 130.4 55.3704Z" fill="white"/>
<path d="M72.8496 35.3896C72.8496 35.5874 72.791 35.7808 72.6811 35.9452C72.5712 36.1097 72.415 36.2378 72.2323 36.3135C72.0496 36.3892 71.8485 36.409 71.6545 36.3704C71.4605 36.3318 71.2824 36.2366 71.1425 36.0968C71.0026 35.9569 70.9074 35.7787 70.8688 35.5847C70.8302 35.3908 70.85 35.1897 70.9257 35.007C71.0014 34.8242 71.1296 34.6681 71.294 34.5582C71.4585 34.4483 71.6518 34.3896 71.8496 34.3896C72.1148 34.3896 72.3692 34.495 72.5567 34.6825C72.7443 34.8701 72.8496 35.1244 72.8496 35.3896Z" fill="white"/>
<path d="M141.17 172.44C141.172 172.666 141.106 172.887 140.982 173.076C140.858 173.264 140.681 173.412 140.473 173.5C140.265 173.588 140.035 173.612 139.813 173.569C139.592 173.526 139.388 173.418 139.227 173.259C139.067 173.1 138.957 172.897 138.912 172.676C138.867 172.454 138.889 172.225 138.975 172.016C139.061 171.807 139.208 171.628 139.395 171.502C139.583 171.377 139.804 171.31 140.03 171.31C140.179 171.308 140.327 171.337 140.465 171.393C140.603 171.449 140.729 171.532 140.835 171.637C140.941 171.742 141.025 171.867 141.083 172.005C141.14 172.143 141.17 172.29 141.17 172.44Z" fill="white"/>
<path d="M10.9602 189.35C11.7941 189.35 12.4702 188.674 12.4702 187.84C12.4702 187.006 11.7941 186.33 10.9602 186.33C10.1262 186.33 9.4502 187.006 9.4502 187.84C9.4502 188.674 10.1262 189.35 10.9602 189.35Z" fill="white"/>
<path d="M2.65024 159.31C2.65012 159.572 2.57302 159.827 2.42857 160.045C2.28412 160.263 2.07872 160.433 1.83801 160.535C1.59731 160.637 1.33197 160.665 1.07513 160.617C0.818282 160.569 0.581315 160.446 0.393817 160.264C0.206319 160.082 0.0765973 159.849 0.0208505 159.594C-0.0348964 159.338 -0.0141982 159.072 0.0803607 158.829C0.17492 158.585 0.339149 158.375 0.552541 158.224C0.765933 158.073 1.01903 157.988 1.28023 157.98C1.45859 157.974 1.63646 158.003 1.80309 158.067C1.96973 158.131 2.12167 158.228 2.24973 158.352C2.37779 158.477 2.47931 158.626 2.54815 158.79C2.61699 158.955 2.65172 159.132 2.65024 159.31Z" fill="white"/>
<path d="M32.6902 24.19C33.6291 24.19 34.3902 23.4289 34.3902 22.49C34.3902 21.5512 33.6291 20.79 32.6902 20.79C31.7513 20.79 30.9902 21.5512 30.9902 22.49C30.9902 23.4289 31.7513 24.19 32.6902 24.19Z" fill="white"/>
<path d="M142.11 4.54C143.364 4.54 144.38 3.52369 144.38 2.27C144.38 1.01631 143.364 0 142.11 0C140.856 0 139.84 1.01631 139.84 2.27C139.84 3.52369 140.856 4.54 142.11 4.54Z" fill="white"/>
<path d="M257.39 64.0798C257.392 64.3432 257.316 64.6014 257.171 64.8214C257.026 65.0414 256.819 65.2134 256.576 65.3156C256.334 65.4178 256.066 65.4456 255.807 65.3954C255.548 65.3452 255.311 65.2194 255.124 65.0338C254.937 64.8482 254.809 64.6112 254.757 64.3529C254.705 64.0947 254.73 63.8267 254.831 63.5831C254.931 63.3395 255.102 63.1312 255.32 62.9846C255.539 62.838 255.797 62.7598 256.06 62.7598C256.411 62.7598 256.748 62.8985 256.997 63.1458C257.246 63.393 257.388 63.7288 257.39 64.0798Z" fill="white"/>
<path d="M238.28 153.26C238.28 153.521 238.202 153.777 238.057 153.994C237.912 154.211 237.706 154.38 237.465 154.48C237.224 154.58 236.958 154.606 236.702 154.555C236.446 154.504 236.211 154.378 236.026 154.194C235.842 154.009 235.716 153.774 235.665 153.518C235.614 153.262 235.64 152.996 235.74 152.755C235.84 152.514 236.009 152.308 236.226 152.163C236.443 152.018 236.699 151.94 236.96 151.94C237.31 151.94 237.645 152.079 237.893 152.327C238.141 152.575 238.28 152.91 238.28 153.26Z" fill="white"/>
<path d="M179.91 231.5C179.91 231.763 179.832 232.02 179.686 232.239C179.54 232.458 179.332 232.628 179.089 232.729C178.846 232.829 178.579 232.856 178.321 232.804C178.063 232.753 177.826 232.626 177.64 232.44C177.454 232.254 177.327 232.017 177.276 231.759C177.224 231.501 177.251 231.234 177.351 230.991C177.452 230.748 177.622 230.54 177.841 230.394C178.06 230.248 178.317 230.17 178.58 230.17C178.755 230.17 178.928 230.204 179.089 230.271C179.25 230.338 179.397 230.436 179.52 230.559C179.644 230.683 179.742 230.83 179.809 230.991C179.876 231.152 179.91 231.325 179.91 231.5Z" fill="white"/>
<path d="M144 228.85C144 229.111 143.923 229.367 143.778 229.584C143.633 229.801 143.427 229.97 143.185 230.07C142.944 230.17 142.679 230.196 142.423 230.145C142.167 230.094 141.932 229.968 141.747 229.784C141.562 229.599 141.437 229.364 141.386 229.108C141.335 228.852 141.361 228.586 141.461 228.345C141.561 228.104 141.73 227.898 141.947 227.753C142.164 227.608 142.419 227.53 142.68 227.53C143.03 227.53 143.366 227.669 143.614 227.917C143.861 228.164 144 228.5 144 228.85Z" fill="white"/>
</g>
<g clip-path="url(#clip1_19_1812)">
<path fill-rule="evenodd" clip-rule="evenodd" d="M126 68C99.525 68 78 89.525 78 116C78 142.475 99.525 164 126 164C152.475 164 174 142.475 174 116C174 89.525 152.475 68 126 68Z" fill="#4BAE4F"/>
<path fill-rule="evenodd" clip-rule="evenodd" d="M149.213 99.8186C150.375 100.981 150.375 102.894 149.213 104.056L121.088 132.181C120.507 132.762 119.738 133.062 118.969 133.062C118.2 133.062 117.432 132.762 116.85 132.181L102.788 118.119C101.625 116.956 101.625 115.044 102.788 113.881C103.95 112.719 105.863 112.719 107.025 113.881L118.969 125.825L144.975 99.8186C146.138 98.6373 148.05 98.6373 149.213 99.8186Z" fill="white"/>
</g>
<defs>
<clipPath id="clip0_19_1812">
<rect width="261.59" height="232.82" fill="white"/>
</clipPath>
<clipPath id="clip1_19_1812">
<rect width="96" height="96" fill="white" transform="translate(78 68)"/>
</clipPath>
</defs>
</svg>
