<svg width="33" height="33" viewBox="0 0 33 33" fill="none" xmlns="http://www.w3.org/2000/svg">
<g clip-path="url(#clip0_1_1185)">
<path d="M16.585 10.4185C13.2972 10.4185 10.6344 13.0814 10.6344 16.3691C10.6344 19.6568 13.2972 22.3198 16.585 22.3198C19.8727 22.3198 22.5356 19.6568 22.5356 16.3691C22.5356 13.0815 19.8726 10.4185 16.585 10.4185ZM29.8846 14.8814C29.2003 8.67791 24.2761 3.75378 18.0726 3.06948V0.00488281H15.0973V3.06948C8.89373 3.75378 3.9696 8.67791 3.2853 14.8814H0.220703V17.8568H3.2853C3.9696 24.0603 8.8938 28.9844 15.0973 29.6688V32.7334H18.0726V29.6688C24.2761 28.9844 29.2003 24.0603 29.8846 17.8568H32.9492V14.8814H29.8846ZM16.585 26.7827C10.8352 26.7827 6.17138 22.1189 6.17138 16.3691C6.17138 10.6194 10.8352 5.95556 16.585 5.95556C22.3347 5.95556 26.9986 10.6193 26.9986 16.3691C26.9986 22.119 22.3347 26.7827 16.585 26.7827Z" fill="#636363"/>
</g>
<defs>
<clipPath id="clip0_1_1185">
<rect width="32.7285" height="32.7285" fill="white" transform="translate(0.220703 0.00488281)"/>
</clipPath>
</defs>
</svg>
