<svg width="21" height="24" viewBox="0 0 21 24" fill="none" xmlns="http://www.w3.org/2000/svg">
<path d="M20 10.6113V18.4167C19.9985 19.6318 19.4975 20.7967 18.6071 21.656C17.7166 22.5152 16.5093 22.9985 15.25 23H5.74999C4.49068 22.9985 3.28338 22.5152 2.39291 21.656C1.50244 20.7967 1.00151 19.6318 1 18.4167V5.58335C1.00151 4.36822 1.50244 3.20328 2.39291 2.34405C3.28338 1.48483 4.49068 1.00148 5.74999 1.00002H10.0392C10.3614 0.999221 10.6825 1.02115 11 1.06534C11.5433 1.14097 12.076 1.28177 12.5854 1.48536C13.3926 1.80791 14.1255 2.28165 14.7417 2.87919L18.0515 6.07468C18.6712 6.6689 19.1624 7.37585 19.4969 8.15457C19.6644 8.54469 19.791 8.94893 19.8752 9.36122C19.9592 9.77192 20.0012 10.1906 20 10.6113Z" fill="#113E5B" stroke="white" stroke-width="0.6"/>
<path d="M14.5 13.9167C14.5 14.1598 14.3999 14.3929 14.2217 14.5648C14.0436 14.7368 13.8019 14.8333 13.55 14.8333H5.95C5.69804 14.8333 5.45641 14.7368 5.27825 14.5648C5.10009 14.3929 5 14.1598 5 13.9167C5 13.6736 5.10009 13.4404 5.27825 13.2685C5.45641 13.0966 5.69804 13 5.95 13H13.55C13.8019 13 14.0436 13.0966 14.2217 13.2685C14.3999 13.4404 14.5 13.6736 14.5 13.9167Z" fill="white" stroke="#113E5B" stroke-width="0.6"/>
<path d="M13 6V2C15.4 3.2 18.4413 6.5 19.1016 8H15C13.8954 8 13 7.10457 13 6Z" fill="#113E5B" stroke="white"/>
<path d="M10.7 17H5.95C5.69804 17 5.45641 17.0966 5.27825 17.2685C5.10009 17.4404 5 17.6736 5 17.9167C5 18.1598 5.10009 18.3929 5.27825 18.5648C5.45641 18.7368 5.69804 18.8333 5.95 18.8333H10.7C10.9519 18.8333 11.1936 18.7368 11.3717 18.5648C11.5499 18.3929 11.65 18.1598 11.65 17.9167C11.65 17.6736 11.5499 17.4404 11.3717 17.2685C11.1936 17.0966 10.9519 17 10.7 17Z" fill="white" stroke="#113E5B" stroke-width="0.6"/>
</svg>
