<svg width="21" height="24" viewBox="0 0 21 24" fill="none" xmlns="http://www.w3.org/2000/svg">
<path d="M15.25 13.8333C15.25 14.0765 15.1499 14.3096 14.9717 14.4815C14.7936 14.6534 14.5519 14.75 14.3 14.75H6.69999C6.44804 14.75 6.2064 14.6534 6.02824 14.4815C5.85008 14.3096 5.74999 14.0765 5.74999 13.8333C5.74999 13.5902 5.85008 13.3571 6.02824 13.1852C6.2064 13.0133 6.44804 12.9167 6.69999 12.9167H14.3C14.5519 12.9167 14.7936 13.0133 14.9717 13.1852C15.1499 13.3571 15.25 13.5902 15.25 13.8333ZM11.45 16.5833H6.69999C6.44804 16.5833 6.2064 16.6799 6.02824 16.8518C5.85008 17.0237 5.74999 17.2569 5.74999 17.5C5.74999 17.7431 5.85008 17.9763 6.02824 18.1482C6.2064 18.3201 6.44804 18.4167 6.69999 18.4167H11.45C11.7019 18.4167 11.9436 18.3201 12.1217 18.1482C12.2999 17.9763 12.4 17.7431 12.4 17.5C12.4 17.2569 12.2999 17.0237 12.1217 16.8518C11.9436 16.6799 11.7019 16.5833 11.45 16.5833ZM20 10.6113V18.4167C19.9985 19.6318 19.4975 20.7967 18.6071 21.656C17.7166 22.5152 16.5093 22.9985 15.25 23H5.74999C4.49068 22.9985 3.28338 22.5152 2.39291 21.656C1.50244 20.7967 1.00151 19.6318 1 18.4167V5.58335C1.00151 4.36822 1.50244 3.20328 2.39291 2.34405C3.28338 1.48483 4.49068 1.00148 5.74999 1.00002H10.0392C10.9129 0.997851 11.7783 1.16281 12.5854 1.48536C13.3926 1.80791 14.1255 2.28165 14.7417 2.87919L18.0515 6.07468C18.6712 6.6689 19.1624 7.37585 19.4969 8.15457C19.8313 8.9333 20.0023 9.76832 20 10.6113ZM13.3984 4.17535C13.0995 3.89592 12.7638 3.65553 12.4 3.46035V7.41668C12.4 7.6598 12.5001 7.89295 12.6782 8.06486C12.8564 8.23677 13.098 8.33335 13.35 8.33335H17.4502C17.2478 7.98244 16.9983 7.65881 16.7082 7.37085L13.3984 4.17535ZM18.1 10.6113C18.1 10.46 18.0696 10.3152 18.0553 10.1667H13.35C12.5941 10.1667 11.8692 9.87695 11.3347 9.36122C10.8003 8.8455 10.5 8.14603 10.5 7.41668V2.87644C10.3461 2.86269 10.195 2.83335 10.0392 2.83335H5.74999C4.99413 2.83335 4.26922 3.12308 3.73474 3.63881C3.20026 4.15453 2.9 4.85401 2.9 5.58335V18.4167C2.9 19.146 3.20026 19.8455 3.73474 20.3612C4.26922 20.8769 4.99413 21.1667 5.74999 21.1667H15.25C16.0058 21.1667 16.7308 20.8769 17.2652 20.3612C17.7997 19.8455 18.1 19.146 18.1 18.4167V10.6113Z" fill="#7B8C97" stroke="white" stroke-width="0.6"/>
</svg>
