<svg width="39" height="39" viewBox="0 0 39 39" fill="none" xmlns="http://www.w3.org/2000/svg">
<path d="M0 19.5C0 30.2696 8.73045 39 19.5 39C30.2696 39 39 30.2696 39 19.5C39 8.73045 30.2696 0 19.5 0C8.73045 0 0 8.73045 0 19.5Z" fill="#1877F2"/>
<path d="M29.25 19.5C29.25 14.1375 24.8625 9.75 19.5 9.75C14.1375 9.75 9.75 14.1375 9.75 19.5C9.75 24.375 13.2844 28.3969 17.9156 29.1281V22.3031H15.4781V19.5H17.9156V17.3062C17.9156 14.8687 19.3781 13.5281 21.5719 13.5281C22.6688 13.5281 23.7656 13.7719 23.7656 13.7719V16.2094H22.5469C21.3281 16.2094 20.9625 16.9406 20.9625 17.6719V19.5H23.6437L23.1562 22.3031H20.8406V29.25C25.7156 28.5187 29.25 24.375 29.25 19.5Z" fill="white"/>
</svg>
