<svg width="24" height="23" viewBox="0 0 24 23" fill="none" xmlns="http://www.w3.org/2000/svg">
<path d="M5.01391 3.85123H0.690078C0.308911 3.85123 0 3.54211 0 3.16115C0 2.78019 0.308911 2.47107 0.690078 2.47107H5.01391C5.39508 2.47107 5.70399 2.78019 5.70399 3.16115C5.70399 3.54211 5.39508 3.85123 5.01391 3.85123Z" fill="white"/>
<path d="M7.48464 6.32187C5.74166 6.32187 4.32373 4.90394 4.32373 3.16111C4.32373 1.41793 5.74166 0 7.48464 0C9.22762 0 10.6455 1.41793 10.6455 3.16111C10.6455 4.90399 9.22762 6.32187 7.48464 6.32187ZM7.48464 1.38021C6.50271 1.38021 5.70389 2.17918 5.70389 3.16111C5.70389 4.14304 6.50271 4.94166 7.48464 4.94166C8.46657 4.94166 9.26539 4.14304 9.26539 3.16111C9.26539 2.17918 8.46657 1.38021 7.48464 1.38021Z" fill="white"/>
<path d="M22.773 3.85123H12.4591C12.078 3.85123 11.769 3.54211 11.769 3.16115C11.769 2.78019 12.078 2.47107 12.4591 2.47107H22.773C23.1542 2.47107 23.4631 2.78019 23.4631 3.16115C23.4631 3.54211 23.1542 3.85123 22.773 3.85123Z" fill="white"/>
<path d="M16.7503 14.6608C15.0072 14.6608 13.5894 13.2429 13.5894 11.5C13.5894 9.75722 15.0073 8.33929 16.7503 8.33929C18.4932 8.33929 19.9112 9.75722 19.9112 11.5C19.9112 13.2429 18.4933 14.6608 16.7503 14.6608ZM16.7503 9.7195C15.7683 9.7195 14.9695 10.5181 14.9695 11.5C14.9695 12.482 15.7683 13.2806 16.7503 13.2806C17.7322 13.2806 18.531 12.482 18.531 11.5C18.531 10.5181 17.7322 9.7195 16.7503 9.7195Z" fill="white"/>
<path d="M11.7762 12.1902H0.690079C0.308911 12.1902 0 11.881 0 11.5001C0 11.1191 0.308911 10.81 0.690079 10.81H11.7762C12.1574 10.81 12.4663 11.1191 12.4663 11.5001C12.4663 11.881 12.1574 12.1902 11.7762 12.1902Z" fill="white"/>
<path d="M22.7731 12.1902H19.2213C18.8402 12.1902 18.5312 11.881 18.5312 11.5001C18.5312 11.1191 18.8402 10.81 19.2213 10.81H22.7731C23.1543 10.81 23.4632 11.1191 23.4632 11.5001C23.4632 11.881 23.1543 12.1902 22.7731 12.1902Z" fill="white"/>
<path d="M6.71266 23C4.96969 23 3.55176 21.582 3.55176 19.8389C3.55176 18.096 4.96969 16.6781 6.71266 16.6781C8.45564 16.6781 9.87357 18.096 9.87357 19.8389C9.87357 21.582 8.45564 23 6.71266 23ZM6.71266 18.0583C5.73074 18.0583 4.93191 18.8569 4.93191 19.8389C4.93191 20.8208 5.73074 21.6198 6.71266 21.6198C7.69459 21.6198 8.49341 20.8208 8.49341 19.8389C8.49341 18.8569 7.69459 18.0583 6.71266 18.0583Z" fill="white"/>
<path d="M22.7728 20.529H11.6867C11.3055 20.529 10.9966 20.2198 10.9966 19.8389C10.9966 19.4579 11.3055 19.1488 11.6867 19.1488H22.7728C23.1539 19.1488 23.4629 19.4579 23.4629 19.8389C23.4629 20.2198 23.1539 20.529 22.7728 20.529Z" fill="white"/>
<path d="M4.24187 20.529H0.690079C0.308911 20.529 0 20.2199 0 19.8389C0 19.4579 0.308911 19.1488 0.690079 19.1488H4.24187C4.62303 19.1488 4.93194 19.4579 4.93194 19.8389C4.93194 20.2199 4.62303 20.529 4.24187 20.529Z" fill="white"/>
</svg>
