<svg width="26" height="26" viewBox="0 0 26 26" fill="none" xmlns="http://www.w3.org/2000/svg">
<path d="M15.1257 3.51389L15.126 3.51412L21.3659 7.87987C21.366 7.8799 21.366 7.87993 21.366 7.87995C21.8649 8.22919 22.3406 8.8046 22.6921 9.47788C23.0436 10.1512 23.2442 10.8712 23.2442 11.4833V18.8283C23.2442 21.2595 21.2703 23.2333 18.8392 23.2333H7.16083C4.73139 23.2333 2.75583 21.2503 2.75583 18.8175V11.3425C2.75583 10.7747 2.93726 10.0912 3.25746 9.44087C3.57749 8.79087 4.01062 8.22592 4.46402 7.87227L4.46415 7.87217L9.88999 3.63762C9.89025 3.63742 9.8905 3.63722 9.89076 3.63703C11.3188 2.53116 13.6405 2.47332 15.1257 3.51389Z" stroke="#7B8C97" stroke-width="1.2"/>
<path d="M13.85 20C13.85 20.4638 13.4638 20.85 13 20.85C12.5362 20.85 12.15 20.4638 12.15 20V16C12.15 15.5362 12.5362 15.15 13 15.15C13.4638 15.15 13.85 15.5362 13.85 16V20Z" fill="#7B8C97" stroke="white" stroke-width="0.3"/>
</svg>
