<svg width="26" height="26" viewBox="0 0 26 26" fill="none" xmlns="http://www.w3.org/2000/svg">
<path d="M21.71 7.38833L15.47 3.0225C13.7692 1.83083 11.1583 1.89583 9.5225 3.16333L4.095 7.39917C3.01167 8.24417 2.15583 9.9775 2.15583 11.3425V18.8175C2.15583 21.58 4.39833 23.8333 7.16083 23.8333H18.8392C21.6017 23.8333 23.8442 21.5908 23.8442 18.8283V11.4833C23.8442 10.0208 22.9017 8.2225 21.71 7.38833ZM13.8125 19.5C13.8125 19.9442 13.4442 20.3125 13 20.3125C12.5558 20.3125 12.1875 19.9442 12.1875 19.5V16.25C12.1875 15.8058 12.5558 15.4375 13 15.4375C13.4442 15.4375 13.8125 15.8058 13.8125 16.25V19.5Z" fill="#113E5B"/>
</svg>
