<svg width="39" height="39" viewBox="0 0 39 39" fill="none" xmlns="http://www.w3.org/2000/svg">
<path d="M0 19.5C0 30.2696 8.73045 39 19.5 39C30.2696 39 39 30.2696 39 19.5C39 8.73045 30.2696 0 19.5 0C8.73045 0 0 8.73045 0 19.5Z" fill="#F00073"/>
<path d="M19.4999 11.2129C22.1811 11.2129 22.5468 11.2129 23.6436 11.2129C24.6186 11.2129 25.1061 11.4566 25.4718 11.5785C25.9593 11.8223 26.3249 11.9441 26.6905 12.3098C27.0561 12.6754 27.2999 13.041 27.4218 13.5285C27.5436 13.8941 27.6655 14.3816 27.7874 15.3566C27.7874 16.4535 27.7874 16.6973 27.7874 19.5004C27.7874 22.3035 27.7874 22.5473 27.7874 23.6441C27.7874 24.6191 27.5436 25.1066 27.4218 25.4723C27.178 25.9598 27.0561 26.3254 26.6905 26.691C26.3249 27.0566 25.9593 27.3004 25.4718 27.4223C25.1061 27.5441 24.6186 27.666 23.6436 27.7879C22.5468 27.7879 22.303 27.7879 19.4999 27.7879C16.6968 27.7879 16.453 27.7879 15.3562 27.7879C14.3812 27.7879 13.8937 27.5441 13.528 27.4223C13.0405 27.1785 12.6749 27.0566 12.3093 26.691C11.9437 26.3254 11.6999 25.9598 11.578 25.4723C11.4562 25.1066 11.3343 24.6191 11.2124 23.6441C11.2124 22.5473 11.2124 22.3035 11.2124 19.5004C11.2124 16.6973 11.2124 16.4535 11.2124 15.3566C11.2124 14.3816 11.4562 13.8941 11.578 13.5285C11.8218 13.041 11.9437 12.6754 12.3093 12.3098C12.6749 11.9441 13.0405 11.7004 13.528 11.5785C13.8937 11.4566 14.3812 11.3348 15.3562 11.2129C16.453 11.2129 16.8187 11.2129 19.4999 11.2129ZM19.4999 9.38477C16.6968 9.38477 16.453 9.38477 15.3562 9.38477C14.2593 9.38477 13.528 9.62852 12.9187 9.87227C12.3093 10.116 11.6999 10.4816 11.0905 11.091C10.4812 11.7004 10.2374 12.1879 9.87178 12.9191C9.62803 13.5285 9.50615 14.2598 9.38428 15.3566C9.38428 16.4535 9.38428 16.8191 9.38428 19.5004C9.38428 22.3035 9.38428 22.5473 9.38428 23.6441C9.38428 24.741 9.62803 25.4723 9.87178 26.0816C10.1155 26.691 10.4812 27.3004 11.0905 27.9098C11.6999 28.5191 12.1874 28.7629 12.9187 29.1285C13.528 29.3723 14.2593 29.4941 15.3562 29.616C16.453 29.616 16.8187 29.616 19.4999 29.616C22.1811 29.616 22.5468 29.616 23.6436 29.616C24.7405 29.616 25.4718 29.3723 26.0811 29.1285C26.6905 28.8848 27.2999 28.5191 27.9093 27.9098C28.5186 27.3004 28.7624 26.8129 29.128 26.0816C29.3718 25.4723 29.4936 24.741 29.6155 23.6441C29.6155 22.5473 29.6155 22.1816 29.6155 19.5004C29.6155 16.8191 29.6155 16.4535 29.6155 15.3566C29.6155 14.2598 29.3718 13.5285 29.128 12.9191C28.8843 12.3098 28.5186 11.7004 27.9093 11.091C27.2999 10.4816 26.8124 10.2379 26.0811 9.87227C25.4718 9.62852 24.7405 9.50664 23.6436 9.38477C22.5468 9.38477 22.303 9.38477 19.4999 9.38477Z" fill="white"/>
<path d="M19.4999 14.2598C16.5749 14.2598 14.2593 16.5754 14.2593 19.5004C14.2593 22.4254 16.5749 24.741 19.4999 24.741C22.4249 24.741 24.7405 22.4254 24.7405 19.5004C24.7405 16.5754 22.4249 14.2598 19.4999 14.2598ZM19.4999 22.9129C17.6718 22.9129 16.0874 21.4504 16.0874 19.5004C16.0874 17.6723 17.5499 16.0879 19.4999 16.0879C21.328 16.0879 22.9124 17.5504 22.9124 19.5004C22.9124 21.3285 21.328 22.9129 19.4999 22.9129Z" fill="white"/>
<path d="M24.8624 15.3566C25.5355 15.3566 26.0811 14.811 26.0811 14.1379C26.0811 13.4648 25.5355 12.9191 24.8624 12.9191C24.1893 12.9191 23.6436 13.4648 23.6436 14.1379C23.6436 14.811 24.1893 15.3566 24.8624 15.3566Z" fill="white"/>
</svg>
