<svg width="39" height="39" viewBox="0 0 39 39" fill="none" xmlns="http://www.w3.org/2000/svg">
<path d="M0 19.5C0 30.2696 8.73045 39 19.5 39C30.2696 39 39 30.2696 39 19.5C39 8.73045 30.2696 0 19.5 0C8.73045 0 0 8.73045 0 19.5Z" fill="#2867B2"/>
<path d="M14.1375 29.25H9.99375V16.2094H14.1375V29.25ZM12.0656 14.3813C10.725 14.3813 9.75 13.4062 9.75 12.0656C9.75 10.725 10.8469 9.75 12.0656 9.75C13.4063 9.75 14.3813 10.725 14.3813 12.0656C14.3813 13.4062 13.4063 14.3813 12.0656 14.3813ZM29.25 29.25H25.1063V22.1813C25.1063 20.1094 24.2531 19.5 23.0344 19.5C21.8156 19.5 20.5969 20.475 20.5969 22.3031V29.25H16.4531V16.2094H20.3531V18.0375C20.7187 17.1844 22.1812 15.8438 24.2531 15.8438C26.5687 15.8438 29.0063 17.1844 29.0063 21.2062V29.25H29.25Z" fill="white"/>
</svg>
