<svg width="8" height="11" viewBox="0 0 8 11" fill="none" xmlns="http://www.w3.org/2000/svg">
<path d="M4 0C1.79467 0 0 1.77887 0 3.96594C0 7.0735 3.624 10.2821 3.77822 10.4169C3.84178 10.4724 3.92089 10.5 4 10.5C4.07911 10.5 4.15822 10.4724 4.22178 10.4173C4.376 10.2821 8 7.0735 8 3.96594C8 1.77887 6.20533 0 4 0ZM4 6.125C2.77467 6.125 1.77778 5.14369 1.77778 3.9375C1.77778 2.73131 2.77467 1.75 4 1.75C5.22533 1.75 6.22222 2.73131 6.22222 3.9375C6.22222 5.14369 5.22533 6.125 4 6.125Z" fill="#107FAA"/>
</svg>
