<svg width="19" height="20" viewBox="0 0 19 20" fill="none" xmlns="http://www.w3.org/2000/svg">
<path d="M9.5 1C4.81286 1 1 4.62308 1 9.07692C1 13.8012 5.56279 16.6646 8.58199 18.5596L9.09589 18.8837C9.21829 18.9613 9.35914 19 9.5 19C9.64086 19 9.78171 18.9613 9.90411 18.8837L10.418 18.5596C13.4372 16.6646 18 13.8012 18 9.07692C18 4.62308 14.1871 1 9.5 1ZM9.6156 17.404L9.5 17.477L9.3844 17.404C6.4604 15.5689 2.45714 13.0563 2.45714 9.07692C2.45714 5.38646 5.61623 2.38462 9.5 2.38462C13.3838 2.38462 16.5429 5.38646 16.5429 9.07692C16.5429 13.0563 12.5386 15.5698 9.6156 17.404ZM9.5 6.07692C7.7592 6.07692 6.34286 7.42277 6.34286 9.07692C6.34286 10.7311 7.7592 12.0769 9.5 12.0769C11.2408 12.0769 12.6571 10.7311 12.6571 9.07692C12.6571 7.42277 11.2408 6.07692 9.5 6.07692ZM9.5 10.6923C8.56257 10.6923 7.8 9.96769 7.8 9.07692C7.8 8.18615 8.56257 7.46154 9.5 7.46154C10.4374 7.46154 11.2 8.18615 11.2 9.07692C11.2 9.96769 10.4374 10.6923 9.5 10.6923Z" fill="#113E5B" stroke="#113E5B" stroke-width="0.5"/>
</svg>
