<svg width="116" height="138" viewBox="0 0 116 138" fill="none" xmlns="http://www.w3.org/2000/svg">
<path d="M102.023 0V119.891H100.871C70.8713 119.891 40.8755 119.891 10.8836 119.891C7.02831 119.891 4.01231 122.184 3.09918 125.81C2.99309 126.228 2.96846 126.665 2.88889 127.216H101.99V129.008H3.04613C3.30096 130.615 4.09682 132.088 5.30245 133.184C6.72771 134.558 8.63979 135.311 10.6202 135.28C45.1324 135.273 79.6446 135.273 114.157 135.28H115.841V137.5H10.3967C5.37633 137.5 1.07778 133.468 0.73488 128.432C0.66289 127.397 0.625 126.351 0.625 125.318C0.625 86.8686 0.625 48.42 0.625 9.97213C0.625 5.11095 3.39093 1.41161 7.90924 0.289513C8.67599 0.10518 9.46216 0.0136949 10.2508 0.0170302C40.5004 0.00315377 70.7488 1.73409e-07 100.996 0.00756915L102.023 0ZM86.8272 110.382C86.615 109.903 86.4843 109.625 86.363 109.338C85.5636 107.457 84.7736 105.574 83.9589 103.699C83.8699 103.496 83.6482 103.349 83.4891 103.177C83.366 103.328 83.1557 103.468 83.1348 103.633C82.7825 106.282 82.4453 108.931 82.1402 111.591C82.1175 111.781 82.3733 112 82.5002 112.206C82.7275 112.055 83.0856 111.947 83.1557 111.743C83.3034 111.304 83.3035 110.816 83.3584 110.346C83.5213 108.965 83.683 107.582 83.8434 106.198C84.1029 106.465 84.3025 106.784 84.4288 107.133C85.0596 108.674 85.6772 110.221 86.3232 111.756C86.4085 111.958 86.6453 112.229 86.8101 112.227C86.9749 112.225 87.189 111.957 87.3103 111.762C87.4271 111.54 87.5228 111.307 87.5963 111.067C88.2745 109.385 88.9528 107.703 89.6992 105.848C89.7541 106.168 89.7787 106.287 89.7939 106.407L90.3907 111.468C90.4418 111.905 90.5631 112.356 91.1144 112.172C91.3038 112.11 91.372 111.661 91.4743 111.381C91.5046 111.302 91.4554 111.192 91.444 111.103C91.1503 108.762 90.8756 106.42 90.5517 104.081C90.5119 103.771 90.33 103.479 90.2126 103.18C89.9852 103.438 89.6764 103.659 89.5457 103.96C88.6496 106.032 87.7801 108.121 86.8272 110.382ZM65.3818 103.048C62.6329 103.057 60.7024 105.025 60.7233 107.79C60.7441 110.452 62.7693 112.433 65.4405 112.403C66.0589 112.406 66.6716 112.286 67.2423 112.048C67.813 111.81 68.3301 111.46 68.7628 111.019C69.1956 110.578 69.5351 110.054 69.7614 109.479C69.9877 108.904 70.096 108.29 70.08 107.673C70.0668 105.027 68.0492 103.037 65.3818 103.048ZM71.3323 107.68C71.3134 110.369 73.2684 112.371 75.9415 112.399C76.5587 112.417 77.1733 112.311 77.7488 112.088C78.3243 111.865 78.8491 111.528 79.2921 111.098C79.7351 110.669 80.0873 110.155 80.3279 109.587C80.5685 109.019 80.6926 108.408 80.6929 107.792C80.7289 105.126 78.7302 103.061 76.1007 103.048C73.3044 103.033 71.3512 104.938 71.3323 107.68ZM57.5254 108.458C59.1925 107.555 59.7457 106.543 59.4066 105.162C59.0921 103.88 58.1089 103.245 56.3338 103.201C55.5135 103.18 54.6894 103.23 53.871 103.184C53.17 103.146 52.9351 103.406 52.9465 104.108C52.9787 106.503 52.9465 108.901 52.9806 111.298C52.9806 111.607 53.2458 112.121 53.4731 112.174C54.121 112.326 54.1172 111.773 54.1191 111.321C54.1191 110.42 54.1191 109.519 54.1191 108.645C56.169 108.306 56.169 108.306 57.0631 109.938C57.3814 110.517 57.7129 111.09 58.0104 111.682C58.3078 112.274 58.7511 112.327 59.4199 112.034C59.0921 111.398 58.7966 110.817 58.4916 110.242C58.1866 109.667 57.8664 109.084 57.5254 108.458ZM43.3945 104.558C43.1451 104.143 42.8015 103.792 42.3915 103.534C41.9814 103.276 41.5165 103.118 41.034 103.072C39.2627 102.83 37.8362 103.595 37.5122 104.9C37.1731 106.267 37.9138 107.26 39.7856 107.962C40.4051 108.193 41.0984 108.323 41.6119 108.698C42.0002 108.982 42.3696 109.597 42.3469 110.04C42.3242 110.437 41.8146 110.986 41.3997 111.143C40.2365 111.608 39.2002 111.2 38.2662 110.411C38.0446 110.221 37.6638 110.221 37.3569 110.14C37.4023 110.486 37.3266 110.927 37.5141 111.162C38.378 112.256 40.2857 112.693 41.7672 112.218C43.1729 111.767 43.7981 110.766 43.5783 109.326C43.4192 108.282 42.65 107.799 41.7899 107.434C40.981 107.084 40.1076 106.857 39.3593 106.414C39.1675 106.276 39.0099 106.095 38.8986 105.887C38.7872 105.678 38.7252 105.447 38.7171 105.211C38.7417 104.864 39.2172 104.424 39.5961 104.265C40.3937 103.916 41.2026 104.085 41.9206 104.594C42.1953 104.783 42.4663 104.987 42.7826 105.218L43.3945 104.558ZM50.1919 105.165C51.0349 104.787 51.052 104.261 50.3814 103.916C49.6008 103.513 48.7218 103.16 47.8598 103.084C46.4143 102.955 45.2739 103.816 45.0522 104.942C44.7908 106.267 45.38 107.173 46.9277 107.799C47.6552 108.095 48.4566 108.263 49.1064 108.675C49.5118 108.933 49.9437 109.561 49.9077 109.981C49.8717 110.401 49.3394 110.975 48.8999 111.149C47.7386 111.61 46.7042 111.188 45.7797 110.392C45.5694 110.202 45.1754 110.238 44.8666 110.17C44.9101 110.494 44.84 110.912 45.0162 111.126C45.8915 112.186 47.1001 112.45 48.4168 112.38C49.8566 112.301 50.9478 111.474 51.1372 110.337C51.3608 108.98 50.7792 108.042 49.3034 107.419C48.5456 107.101 47.7878 106.821 47.03 106.511C46.439 106.267 46.0222 105.788 46.2609 105.186C46.4812 104.729 46.8704 104.376 47.3464 104.2C48.4528 103.826 49.3489 104.408 50.1919 105.165ZM36.5896 112.076C36.5229 111.832 36.4439 111.592 36.3528 111.357C35.2161 108.836 34.0794 106.316 32.9314 103.807C32.8139 103.551 32.5525 103.366 32.3479 103.148C32.1584 103.366 31.8875 103.553 31.7796 103.809C30.6012 106.342 29.4456 108.887 28.2918 111.432C28.209 111.649 28.1419 111.872 28.091 112.098L28.324 112.352C28.6783 112.123 29.2713 111.958 29.3452 111.656C29.6994 110.331 30.5595 110.1 31.7417 110.259C32.2443 110.331 32.7546 110.331 33.2572 110.259C34.2859 110.102 34.9301 110.448 35.1896 111.482C35.3487 112.221 35.8413 112.38 36.582 112.078L36.5896 112.076ZM29.2315 95.2348C29.2864 95.2102 29.3395 95.1648 29.3944 95.1648C30.6258 95.1572 31.8566 95.1528 33.0867 95.1515C35.0058 95.1515 35.3184 94.5839 34.3617 92.8809C34.3162 92.7976 34.2651 92.7181 34.2139 92.6386C33.3955 91.4314 31.9406 90.9243 30.4591 91.3141C29.0951 91.6793 28.0664 93.036 27.9963 94.5574C27.9186 96.3134 28.7541 97.6909 30.2223 98.2454C31.5617 98.7487 33.5717 98.3892 34.2727 97.4885C34.3939 97.3333 34.4489 96.9094 34.3731 96.8621C34.1558 96.7302 33.897 96.6843 33.6475 96.7335C33.3861 96.7997 33.1777 97.0457 32.9219 97.163C31.1298 97.9748 29.1425 96.9511 29.2239 95.2329L29.2315 95.2348ZM12.2154 107.058C12.2286 109.731 13.2744 111.387 15.0287 112.068C16.7829 112.749 18.4387 112.477 19.8671 111.211C20.0793 111.022 20.265 110.503 20.1551 110.316C19.8747 109.835 19.5091 110.078 19.1529 110.382C17.5994 111.707 15.6254 111.642 14.3201 110.246C13.0811 108.921 13.066 106.579 14.2879 105.228C15.5402 103.843 17.5729 103.756 19.1264 105.039C19.4598 105.313 19.8217 105.663 20.1229 105.154C20.2403 104.965 20.0452 104.397 19.8198 104.208C18.3553 102.912 16.6522 102.679 14.8941 103.451C13.0603 104.249 12.2381 105.769 12.2154 107.058ZM21.5854 91.9196C21.5854 90.9583 21.629 90.1674 21.5646 89.3859C21.5381 89.0585 21.3183 88.506 21.1251 88.4776C20.4923 88.383 20.4089 88.8731 20.4127 89.4086C20.4279 92.088 20.4127 94.7674 20.4127 97.4487C20.4127 97.8556 20.3654 98.3949 20.9659 98.2946C21.2103 98.251 21.5343 97.7704 21.5513 97.4696C21.6233 96.4023 21.5703 95.3275 21.5816 94.2527C21.5949 92.9755 22.275 92.2621 23.459 92.2507C24.6431 92.2394 25.3194 92.9509 25.3365 94.2433C25.3516 95.3786 25.3062 96.514 25.3649 97.6493C25.3762 97.8858 25.721 98.1053 25.9124 98.3324C26.1018 98.1035 26.4675 97.8821 26.4807 97.6455C26.5576 96.3852 26.5576 95.1214 26.4807 93.861C26.2913 91.5903 24.2471 90.5174 22.2106 91.5525C22.0401 91.6414 21.8866 91.7398 21.5854 91.9196ZM15.1158 90.3471V91.6112C15.1158 93.5942 15.095 95.5849 15.1423 97.5623C15.1423 97.8234 15.5061 98.0788 15.6993 98.3362C15.8887 98.0807 16.2487 97.8272 16.2563 97.5661C16.3055 95.7722 16.2828 93.9708 16.2828 92.1826C16.2828 91.5979 16.2828 91.0113 16.2828 90.3452C17.1183 90.3452 17.8116 90.385 18.4955 90.3225C18.7304 90.2998 18.9426 90.016 19.1643 89.8514C18.9445 89.6621 18.7267 89.2837 18.5012 89.2837C16.6434 89.2383 14.7843 89.2383 12.9239 89.2837C12.6947 89.2837 12.473 89.6451 12.2476 89.84C12.4654 90.0084 12.67 90.3017 12.9012 90.3244C13.5775 90.3888 14.2728 90.3471 15.1063 90.3471H15.1158ZM23.3113 111.185C23.2791 110.857 23.2469 110.67 23.245 110.484C23.245 108.314 23.262 106.132 23.2147 103.971C23.2147 103.712 22.849 103.46 22.6463 103.205C22.4569 103.459 22.1045 103.708 22.1007 103.962C22.0609 106.479 22.0856 108.995 22.0723 111.512C22.0723 112.046 22.2883 112.233 22.8055 112.225C24.0956 112.206 25.3895 112.248 26.6777 112.195C26.9581 112.184 27.2271 111.881 27.4999 111.712C27.2252 111.536 26.9562 111.222 26.6721 111.207C25.5752 111.149 24.4764 111.185 23.3018 111.185H23.3113Z" fill="white"/>
<path d="M115.586 69.559V131.246C115.586 133.014 115.072 133.517 113.269 133.517C111.344 133.517 109.419 133.517 107.492 133.517C105.748 133.517 105.194 132.949 105.194 131.178C105.194 90.4317 105.186 49.6904 105.168 8.95417C105.168 7.4574 105.464 6.23312 106.422 5.0656C107.6 3.63128 108.616 2.06261 109.713 0.562058C110.247 -0.168348 110.558 -0.181594 111.079 0.527998C112.496 2.45998 113.92 4.39196 115.275 6.36179C115.517 6.71185 115.574 7.24547 115.574 7.68636C115.588 28.3131 115.592 48.9373 115.586 69.559ZM114.565 128.251V7.52552H106.269V128.251H114.565ZM114.619 129.155H106.2C106.2 130.12 106.2 130.966 106.2 131.804C106.2 132.467 106.589 132.785 107.214 132.788C109.355 132.802 111.497 132.828 113.636 132.756C113.972 132.745 114.53 132.277 114.572 131.963C114.701 131.061 114.619 130.113 114.619 129.163V129.155ZM106.424 6.65509H114.404C113.519 5.42891 112.752 4.32384 111.941 3.24905C111.571 2.76652 109.247 2.78734 108.875 3.27554C108.059 4.34844 107.294 5.44405 106.424 6.65509Z" fill="white"/>
<path d="M61.8879 107.767C61.8652 105.665 63.3694 104.089 65.3851 104.1C67.3611 104.1 68.8767 105.644 68.9126 107.669C68.9294 108.142 68.8508 108.614 68.6815 109.057C68.5121 109.5 68.2556 109.904 67.927 110.246C67.5984 110.588 67.2044 110.86 66.7684 111.047C66.3325 111.234 65.8634 111.331 65.3889 111.334C63.4357 111.355 61.9107 109.801 61.8879 107.767Z" fill="white"/>
<path d="M72.4974 107.767C72.4727 105.674 73.9845 104.091 75.9946 104.102C77.9724 104.102 79.4804 105.637 79.5221 107.669C79.5391 108.143 79.4606 108.615 79.2915 109.058C79.1223 109.501 78.8657 109.905 78.5371 110.247C78.2085 110.589 77.8144 110.862 77.3783 111.049C76.9422 111.236 76.4729 111.333 75.9983 111.336C74.0489 111.357 72.5201 109.801 72.4974 107.767Z" fill="white"/>
<path d="M54.1698 104.249C55.117 104.249 55.9961 104.196 56.8637 104.265C57.2605 104.298 57.6296 104.481 57.8958 104.777C58.1619 105.072 58.3051 105.458 58.2959 105.856C58.2959 106.732 57.7011 107.355 56.7804 107.451C54.1281 107.729 54.0883 107.699 54.1281 105.038C54.1281 104.819 54.1508 104.598 54.1698 104.249Z" fill="white"/>
<path d="M34.1518 109.183C33.8448 109.217 33.6971 109.247 33.5493 109.247C32.5774 109.247 31.6075 109.247 30.4424 109.247L32.3065 105.008C32.9526 106.477 33.5209 107.76 34.1518 109.183Z" fill="white"/>
<path d="M29.2539 94.0769C29.5059 92.8374 30.1557 92.2716 31.3492 92.247C32.5427 92.2224 33.2304 92.7428 33.579 94.0769H29.2539Z" fill="white"/>
<path d="M109.044 68.2892C109.044 87.4273 109.044 106.566 109.044 125.706C109.044 125.957 109.098 126.232 109.015 126.462C108.943 126.652 108.712 126.786 108.551 126.943C108.38 126.767 108.142 126.619 108.058 126.409C107.975 126.199 108.034 125.912 108.034 125.653C108.034 114.395 108.034 103.139 108.034 91.8836C108.05 76.6573 108.077 61.4298 108.113 46.201C108.132 34.5662 108.149 22.932 108.163 11.2985C108.163 11.045 108.106 10.7763 108.178 10.5416C108.294 10.2668 108.439 10.0049 108.61 9.76013C108.793 9.98814 108.952 10.2349 109.083 10.4962C109.159 10.6854 109.1 10.9333 109.1 11.1528V68.2892H109.044Z" fill="white"/>
<path d="M111.638 79.8584C111.638 64.7507 111.638 49.6437 111.638 34.5373C111.638 26.6844 111.691 18.8316 111.719 10.9807C111.719 10.729 111.668 10.4546 111.751 10.2238C111.818 10.0346 112.047 9.90968 112.204 9.75641C112.377 9.8969 112.528 10.062 112.653 10.2465C112.729 10.3998 112.674 10.6249 112.674 10.8142C112.66 28.9495 112.645 47.0847 112.63 65.22C112.617 75.0919 112.572 84.9618 112.551 94.8318C112.53 105.176 112.515 115.52 112.505 125.865C112.533 126.083 112.525 126.305 112.482 126.521C112.426 126.686 112.193 126.932 112.104 126.9C111.999 126.869 111.903 126.816 111.82 126.746C111.737 126.676 111.67 126.589 111.622 126.491C111.537 126.27 111.596 125.993 111.596 125.734V79.8584H111.638Z" fill="white"/>
</svg>
