<svg width="6" height="26" viewBox="0 0 6 26" fill="none" xmlns="http://www.w3.org/2000/svg">
<path d="M3 6C1.34575 6 0 4.65426 0 3.00017C0 1.34574 1.34575 0 3 0C4.65425 0 6 1.34574 6 3.00017C6 4.65431 4.65425 6 3 6ZM3 1.30994C2.06806 1.30994 1.3099 2.06824 1.3099 3.00017C1.3099 3.93211 2.06806 4.69006 3 4.69006C3.93194 4.69006 4.6901 3.93211 4.6901 3.00017C4.6901 2.06824 3.93194 1.30994 3 1.30994Z" fill="white"/>
<path d="M3 16C1.3457 16 0 14.6542 0 13C0 11.3458 1.34575 10 3 10C4.65425 10 6 11.3458 6 13C6 14.6542 4.6543 16 3 16ZM3 11.31C2.06806 11.31 1.3099 12.068 1.3099 13C1.3099 13.932 2.06806 14.69 3 14.69C3.93194 14.69 4.6901 13.932 4.6901 13C4.6901 12.068 3.93194 11.31 3 11.31Z" fill="white"/>
<path d="M3 26C1.34575 26 0 24.6543 0 22.9998C0 21.3457 1.34575 20 3 20C4.65425 20 6 21.3457 6 22.9998C6 24.6543 4.65425 26 3 26ZM3 21.3099C2.06806 21.3099 1.3099 22.0679 1.3099 22.9998C1.3099 23.9318 2.06806 24.6901 3 24.6901C3.93194 24.6901 4.6901 23.9318 4.6901 22.9998C4.6901 22.0679 3.93194 21.3099 3 21.3099Z" fill="white"/>
</svg>
