<svg width="16" height="16" viewBox="0 0 16 16" fill="none" xmlns="http://www.w3.org/2000/svg">
<path d="M14.75 12.5V8C14.75 4.27208 11.7279 1.25 8 1.25C4.27208 1.25 1.25 4.27208 1.25 8V12.5M3.125 14.75C2.08947 14.75 1.25 13.9105 1.25 12.875V11.375C1.25 10.3395 2.08947 9.5 3.125 9.5C4.16053 9.5 5 10.3395 5 11.375V12.875C5 13.9105 4.16053 14.75 3.125 14.75ZM12.875 14.75C11.8395 14.75 11 13.9105 11 12.875V11.375C11 10.3395 11.8395 9.5 12.875 9.5C13.9105 9.5 14.75 10.3395 14.75 11.375V12.875C14.75 13.9105 13.9105 14.75 12.875 14.75Z" stroke="#113E5B" stroke-width="1.5" stroke-linecap="round" stroke-linejoin="round"/>
</svg>
