<svg width="150" height="150" viewBox="0 0 344 327" fill="none" xmlns="http://www.w3.org/2000/svg">
<path d="M268.759 85.5724C266.417 80.8 263.833 76.1503 261.017 71.6414C228.139 20.048 140.128 -8.0442 96.4718 45.2906C86.074 57.9983 82.4545 73.354 75.4531 87.9398C59.5361 121.091 29.7961 140.915 11.1519 171.619C-3.3043 195.415 -1.37584 225.918 6.68339 251.643C15.4478 279.606 30.8683 299.135 55.5353 313.972C83.1885 330.609 112.763 325.989 142.654 320.197C156.096 317.592 169.955 314.937 183.67 315.93C200.875 317.174 217.864 322.19 234.939 324.622C252.691 327.162 271.12 327.759 288.188 322.233C343.02 304.553 356.001 221.709 333.478 174.217C325.505 157.415 311.991 144.448 299.442 131.294C285.9 117.09 277.596 103.195 268.759 85.5724Z" fill="#107FAA"/>
<path opacity="0.7" d="M268.759 85.5724C266.417 80.8 263.833 76.1503 261.017 71.6414C228.139 20.048 140.128 -8.0442 96.4718 45.2906C86.074 57.9983 82.4545 73.354 75.4531 87.9398C59.5361 121.091 29.7961 140.915 11.1519 171.619C-3.3043 195.415 -1.37584 225.918 6.68339 251.643C15.4478 279.606 30.8683 299.135 55.5353 313.972C83.1885 330.609 112.763 325.989 142.654 320.197C156.096 317.592 169.955 314.937 183.67 315.93C200.875 317.174 217.864 322.19 234.939 324.622C252.691 327.162 271.12 327.759 288.188 322.233C343.02 304.553 356.001 221.709 333.478 174.217C325.505 157.415 311.991 144.448 299.442 131.294C285.9 117.09 277.596 103.195 268.759 85.5724Z" fill="white"/>
<path d="M75.4675 279.584C76.5973 263.156 80.1663 238.115 88.8228 208.504C104.445 155.04 115.749 122.789 115.857 122.465C115.952 122.152 115.922 121.815 115.774 121.524C115.626 121.233 115.371 121.011 115.063 120.903C114.754 120.795 114.416 120.811 114.119 120.946C113.822 121.082 113.589 121.327 113.468 121.63C113.353 121.947 102.027 154.256 86.3835 207.792C77.1225 239.497 73.9924 264.423 72.9922 279.584H75.4675Z" fill="#263238"/>
<path d="M276.135 0.936157H334.615V115.14H242.48V0.936157H265.104" stroke="#FF992A" stroke-linecap="round" stroke-linejoin="round"/>
<path d="M324.944 55.5519V103.152H252.152V12.9243H324.944V47.8308" stroke="#FF992A" stroke-linecap="round" stroke-linejoin="round"/>
<path d="M307.429 34.6337H269.666V81.442H307.429V34.6337Z" stroke="#FF992A" stroke-linecap="round" stroke-linejoin="round"/>
<path d="M209.359 33.0723H236.76V86.587H193.586V33.0723H204.185" stroke="#263238" stroke-linecap="round" stroke-linejoin="round"/>
<path d="M232.227 58.6604V80.9672H198.119V38.685H232.227V55.0409" stroke="#263238" stroke-linecap="round" stroke-linejoin="round"/>
<path d="M224.024 48.8597H206.33V70.7923H224.024V48.8597Z" stroke="#263238" stroke-linecap="round" stroke-linejoin="round"/>
<path d="M155.873 11.629H99.9403C99.0202 11.6281 98.109 11.8085 97.2587 12.1599C96.4084 12.5113 95.6358 13.0269 94.9849 13.6771C94.3339 14.3274 93.8176 15.0995 93.4653 15.9495C93.113 16.7994 92.9316 17.7104 92.9316 18.6305V46.9313C92.9316 48.7889 93.6691 50.5705 94.9819 51.8846C96.2947 53.1988 98.0755 53.938 99.9331 53.94H124.794L131.789 65.5611L134.055 53.9112H155.866C157.724 53.9112 159.507 53.1728 160.821 51.8584C162.136 50.544 162.874 48.7613 162.874 46.9025V18.6305C162.872 16.7741 162.134 14.9944 160.821 13.6818C159.509 12.3692 157.729 11.6309 155.873 11.629Z" fill="#FDF9F0" stroke="#263238" stroke-linecap="round" stroke-linejoin="round"/>
<path d="M119.275 33.2162C119.275 33.7285 119.123 34.2294 118.838 34.6554C118.553 35.0814 118.149 35.4134 117.676 35.6095C117.202 35.8055 116.681 35.8568 116.179 35.7569C115.676 35.6569 115.215 35.4102 114.852 35.0479C114.49 34.6856 114.243 34.224 114.144 33.7215C114.044 33.219 114.095 32.6982 114.291 32.2248C114.487 31.7515 114.819 31.3469 115.245 31.0623C115.671 30.7776 116.172 30.6257 116.684 30.6257C117.371 30.6257 118.03 30.8986 118.516 31.3844C119.002 31.8702 119.275 32.5291 119.275 33.2162Z" fill="#263238" stroke="#263238" stroke-linecap="round" stroke-linejoin="round"/>
<path d="M131.788 33.2162C131.788 33.7285 131.636 34.2294 131.352 34.6554C131.067 35.0814 130.663 35.4134 130.189 35.6095C129.716 35.8055 129.195 35.8568 128.693 35.7569C128.19 35.6569 127.728 35.4102 127.366 35.0479C127.004 34.6856 126.757 34.224 126.657 33.7215C126.557 33.219 126.609 32.6982 126.805 32.2248C127.001 31.7515 127.333 31.3469 127.759 31.0623C128.185 30.7776 128.686 30.6257 129.198 30.6257C129.885 30.6257 130.544 30.8986 131.03 31.3844C131.515 31.8702 131.788 32.5291 131.788 33.2162Z" fill="#263238" stroke="#263238" stroke-linecap="round" stroke-linejoin="round"/>
<path d="M141.725 35.8066C143.156 35.8066 144.316 34.6468 144.316 33.2162C144.316 31.7855 143.156 30.6257 141.725 30.6257C140.295 30.6257 139.135 31.7855 139.135 33.2162C139.135 34.6468 140.295 35.8066 141.725 35.8066Z" fill="#263238" stroke="#263238" stroke-linecap="round" stroke-linejoin="round"/>
<path d="M126.421 167.179C126.421 167.179 90.1759 177.131 86.3909 185.169C82.6059 193.206 90.8882 279.433 90.8882 279.433H164.796C164.521 275.296 165.694 271.193 168.113 267.826C172.135 262.379 179.007 253.377 179.482 246.505C179.957 239.633 179.007 227.077 179.007 227.077L198.349 274.569L230.054 276.108C230.054 276.108 204.595 203.863 194.881 190.832C185.167 177.8 159.852 170.497 149.159 168.842C141.625 167.786 134.029 167.231 126.421 167.179Z" fill="#FF992A" stroke="#263238" stroke-linecap="round" stroke-linejoin="round"/>
<path d="M179.008 227.113L186.052 210.598" stroke="#263238" stroke-linecap="round" stroke-linejoin="round"/>
<path d="M195.111 208.109C191.301 211.396 187.854 215.082 184.828 219.104" stroke="#263238" stroke-linecap="round" stroke-linejoin="round"/>
<path d="M199.112 204.828C199.112 204.828 198.205 205.504 196.773 206.691" stroke="#263238" stroke-linecap="round" stroke-linejoin="round"/>
<path d="M210.662 251.931C212.554 251.49 214.52 251.475 216.419 251.888" stroke="#263238" stroke-linecap="round" stroke-linejoin="round"/>
<path d="M200.025 257.068C202.057 255.536 204.265 254.253 206.602 253.247" stroke="#263238" stroke-linecap="round" stroke-linejoin="round"/>
<path d="M203.978 251.298C203.978 251.298 196.062 254.946 193.645 258.889" stroke="#263238" stroke-linecap="round" stroke-linejoin="round"/>
<path d="M156.269 264.775L138.266 271.172" stroke="#263238" stroke-linecap="round" stroke-linejoin="round"/>
<path d="M145.842 265.725L133.285 272.359" stroke="#263238" stroke-linecap="round" stroke-linejoin="round"/>
<path d="M130.867 195.545C132.683 197.42 134.623 199.17 136.674 200.783" stroke="#263238" stroke-linecap="round" stroke-linejoin="round"/>
<path d="M119.814 182.708C119.814 182.708 124.024 188.284 129.075 193.674" stroke="#263238" stroke-linecap="round" stroke-linejoin="round"/>
<path d="M120.412 192.645C120.412 192.645 130.357 203.489 136.077 205.597" stroke="#263238" stroke-linecap="round" stroke-linejoin="round"/>
<path d="M162.011 184.096C162.011 184.096 161.075 192.508 157.031 196.243" stroke="#263238" stroke-linecap="round" stroke-linejoin="round"/>
<path d="M158.062 172.857C158.062 172.857 156.162 186.378 150.031 189.968C143.9 193.559 134.611 189.968 131.02 181.333C127.429 172.699 121.932 151.91 121.716 147.715C121.5 143.52 126.364 141.8 133.546 146.448C140.727 151.097 158.062 172.857 158.062 172.857Z" fill="white" stroke="#263238" stroke-linecap="round" stroke-linejoin="round"/>
<path d="M133.062 162.833L154.75 183.312C154.75 183.312 156.254 180.168 158.06 172.857L133.062 162.833Z" fill="#263238" stroke="#263238" stroke-linecap="round" stroke-linejoin="round"/>
<path d="M182.878 161.696C183.094 159.163 176.755 154.723 176.755 154.723L171.43 161.2C170.106 160.055 168.926 159.228 168.926 159.228L157.305 173.382C157.305 173.382 157.305 180.988 159.838 182.017C162.37 183.046 164.702 176.102 164.702 176.102C164.702 176.102 168.926 180.959 172.725 179.7C175.064 178.923 174.207 175.109 173.2 172.288C174.538 173.576 177.669 176.145 180.554 175.166C184.361 173.9 179.712 164.603 179.712 164.603C179.712 164.603 182.684 164.236 182.878 161.696Z" fill="#263238" stroke="#263238" stroke-linecap="round" stroke-linejoin="round"/>
<path d="M183.836 131.87L181.454 138.418C180.232 141.752 179.741 145.311 180.015 148.852C180.288 152.527 179.397 156.195 177.468 159.336C172.82 167.151 169.992 173.519 161.832 175.598C150.506 178.477 137.05 167.906 133.049 162.833C129.048 157.76 128.465 151.097 126.141 147.082C123.817 143.066 123.183 138.627 126.781 129.33C130.379 120.033 168.401 101.266 172.409 103.18C176.417 105.095 185.937 118.817 186.571 121.774C187.204 124.732 183.836 131.87 183.836 131.87Z" fill="white" stroke="#263238" stroke-linecap="round" stroke-linejoin="round"/>
<path d="M127.003 134.827C127.003 134.827 132.076 137.576 133.552 134.194C135.027 130.812 136.084 128.063 136.084 128.063C136.084 128.063 152.779 122.199 159.751 117.759C164.217 114.86 168.391 111.535 172.214 107.829L179.28 117.629C182.115 121.569 183.697 126.27 183.821 131.121V131.841C183.821 131.841 190.369 125.761 193.327 120.054C196.284 114.348 190.16 102.734 181.094 95.5457C172.027 88.3572 165.04 89.2135 165.04 89.2135C165.04 89.2135 152.045 77.4988 134.278 84.4283C120.391 89.8395 107.985 104.396 107.776 116.651C107.604 123.736 108.244 130.817 109.683 137.756C109.683 137.756 85.4624 159.307 85.0162 163.322C84.5701 167.338 89.2617 166.301 89.2617 166.301C89.2617 166.301 86.2251 171.518 91.5068 174.9C96.7885 178.282 99.1918 172.216 99.1918 172.216C99.1918 172.216 96.6589 177.081 99.1918 178.556C101.725 180.031 108.043 173.677 108.043 173.677C108.043 173.677 100.998 178.772 103.725 179.829C106.452 180.887 111.756 174.123 111.756 174.123C111.756 174.123 110.489 182.571 114.504 182.362C118.52 182.154 122.528 176.872 122.528 176.872C122.528 176.872 119.995 181.729 125.068 181.729C130.141 181.729 133.307 179.614 131.825 171.374C130.342 163.135 124.219 142.009 124.435 141.152C124.65 140.296 127.003 134.827 127.003 134.827Z" fill="#263238" stroke="#263238" stroke-linecap="round" stroke-linejoin="round"/>
<path d="M132.509 125.041C126.889 127.862 121.097 130.143 115.592 131.244" stroke="white" stroke-linecap="round" stroke-linejoin="round"/>
<path d="M158.522 108.203C152.032 113.288 145.196 117.917 138.064 122.055" stroke="white" stroke-linecap="round" stroke-linejoin="round"/>
<path d="M165.069 102.857C165.069 102.857 163.565 104.181 160.975 106.26" stroke="white" stroke-linecap="round" stroke-linejoin="round"/>
<path d="M123.427 121.983C119.877 124.125 116.173 126.001 112.346 127.596" stroke="white" stroke-linecap="round" stroke-linejoin="round"/>
<path d="M142.762 108.124C137.256 112.776 131.424 117.03 125.312 120.853" stroke="white" stroke-linecap="round" stroke-linejoin="round"/>
<path d="M186.649 116.838C186.859 118.478 186.838 120.14 186.584 121.774" stroke="white" stroke-linecap="round" stroke-linejoin="round"/>
<path d="M175.209 105.289C175.209 105.289 182.765 106.728 185.672 113.326" stroke="white" stroke-linecap="round" stroke-linejoin="round"/>
<path d="M130.386 136.936C130.386 136.936 126.371 129.546 121.751 132.928C117.132 136.31 121.543 145.16 124.5 148.348C127.458 151.536 129.782 149.19 129.782 149.19" fill="white"/>
<path d="M130.386 136.936C130.386 136.936 126.371 129.546 121.751 132.928C117.132 136.31 121.543 145.16 124.5 148.348C127.458 151.536 129.782 149.19 129.782 149.19" stroke="#263238" stroke-linecap="round" stroke-linejoin="round"/>
<path d="M155.6 145.455C156.768 145.455 157.715 143.848 157.715 141.865C157.715 139.882 156.768 138.274 155.6 138.274C154.432 138.274 153.484 139.882 153.484 141.865C153.484 143.848 154.432 145.455 155.6 145.455Z" fill="#263238"/>
<path d="M174.826 145.038C175.995 145.038 176.942 143.43 176.942 141.447C176.942 139.464 175.995 137.857 174.826 137.857C173.658 137.857 172.711 139.464 172.711 141.447C172.711 143.43 173.658 145.038 174.826 145.038Z" fill="#263238"/>
<path d="M163.133 155.745C163.133 155.745 168.17 157.854 169.89 155.529C171.609 153.205 170.098 148.981 170.098 148.981" stroke="#263238" stroke-linecap="round" stroke-linejoin="round"/>
<path d="M147.072 135.101C147.072 135.101 153.203 130.877 160.384 133.662" stroke="#263238" stroke-width="2" stroke-linecap="round" stroke-linejoin="round"/>
<path d="M170.48 134.835C170.48 134.835 175.762 130.395 181.044 135.043" stroke="#263238" stroke-width="2" stroke-linecap="round" stroke-linejoin="round"/>
<path d="M166.091 162.502C166.091 162.502 160.384 163.984 154.045 159.753C154.092 161.02 154.487 162.249 155.188 163.306C155.889 164.362 156.868 165.205 158.017 165.74C162.047 167.669 166.091 162.502 166.091 162.502Z" fill="white" stroke="#263238" stroke-linecap="round" stroke-linejoin="round"/>
<path d="M98.2281 172.195C98.2281 172.195 80.6993 178.117 76.202 189.465C71.7046 200.812 71.9781 222.068 71.791 233.128C71.5823 245.598 68.8263 262.091 69.3085 265.919C70.5029 275.482 78.0009 280.786 85.3406 279.368C92.6802 277.951 97.9691 277.116 99.4946 269.028C100.703 262.552 100.286 238.129 102.171 225.659" fill="#FF992A"/>
<path d="M98.2281 172.195C98.2281 172.195 80.6993 178.117 76.202 189.465C71.7046 200.812 71.9781 222.068 71.791 233.128C71.5823 245.598 68.8263 262.091 69.3085 265.919C70.5029 275.482 78.0009 280.786 85.3406 279.368C92.6802 277.951 97.9691 277.116 99.4946 269.028C100.703 262.552 100.286 238.129 102.171 225.659" stroke="#263238" stroke-linecap="round" stroke-linejoin="round"/>
<path d="M102.021 222.867C101.733 219.233 101.561 216.909 101.561 216.909L102.021 222.867Z" fill="#92E3A9"/>
<path d="M102.021 222.867C101.733 219.233 101.561 216.909 101.561 216.909" stroke="#263238" stroke-linecap="round" stroke-linejoin="round"/>
<path d="M96.7598 206.648C96.7598 206.648 105.87 216.369 107.388 222.745" stroke="#263238" stroke-linecap="round" stroke-linejoin="round"/>
<path d="M73.7417 259.501C78.1814 252.399 101.402 249.858 105.619 249.858C109.836 249.858 115.383 247.613 115.383 247.613L120.046 262.487C120.046 262.487 115.383 266.704 111.836 270.035C108.288 273.367 92.832 284.779 80.8439 284.563C68.8558 284.348 69.3307 265.919 69.3307 265.919" fill="#92E3A9"/>
<path d="M73.7417 259.501C78.1814 252.399 101.402 249.858 105.619 249.858C109.836 249.858 115.383 247.613 115.383 247.613L120.046 262.487C120.046 262.487 115.383 266.704 111.836 270.035C108.288 273.367 92.832 284.779 80.8439 284.563C68.8558 284.348 69.3307 265.919 69.3307 265.919" stroke="#263238" stroke-linecap="round" stroke-linejoin="round"/>
<path d="M156.254 245.354C156.254 245.354 161.227 240.144 158.622 239.669C156.017 239.194 150.095 247.484 150.095 247.484C150.095 247.484 151.282 239.907 148.907 241.324C146.533 242.742 145.36 248.196 145.123 249.146C144.885 250.096 144.648 241.799 143.223 245.591C141.798 249.384 140.855 252.456 140.855 252.456L156.254 245.354Z" fill="white" stroke="#263238" stroke-linecap="round" stroke-linejoin="round"/>
<path d="M113.39 247.959C113.39 247.959 120.737 234.459 122.629 233.035C124.522 231.61 128.551 227.825 130.919 225.925C133.286 224.026 133.998 225.688 133.998 228.3C133.998 230.912 131.394 234.661 129.264 236.1C127.811 237.181 126.6 238.554 125.709 240.13C129.275 244.134 133.895 247.054 139.043 248.556L141.82 249.362C141.82 249.362 152.714 245.577 156.269 245.339C159.824 245.102 161.457 247.383 159.349 247.944C156.104 248.808 144.065 256.169 142.295 258.364C141.41 259.465 126.659 259.551 124.054 260.522C121.449 261.494 120.499 264.782 114.34 263.365C108.18 261.947 108.18 250.564 113.39 247.959Z" fill="white" stroke="#263238" stroke-linecap="round" stroke-linejoin="round"/>
<path d="M69.9492 257.903C69.9492 257.903 74.3098 251.362 84.5854 251.988" stroke="#263238" stroke-linecap="round" stroke-linejoin="round"/>
<path d="M183.799 267.826C183.799 267.826 159.175 263.955 156.635 264.804C154.095 265.653 148.72 279.195 149.281 280.354C149.842 281.513 169.076 282.873 171.904 282.873C174.732 282.873 178.122 281.174 178.122 281.174C180.235 282.049 182.567 282.25 184.799 281.75C188.476 280.901 188.872 279.764 188.872 279.764C188.872 279.764 227.614 281.203 229.593 280.045C231.572 278.886 230.737 265.301 220.296 257.687C209.855 250.074 201.292 260.645 194.787 263.444C188.282 266.243 183.799 267.826 183.799 267.826Z" fill="white" stroke="#263238" stroke-linecap="round" stroke-linejoin="round"/>
<path d="M160.593 267.064L154.938 280.923" stroke="#263238" stroke-linecap="round" stroke-linejoin="round"/>
<path d="M166.465 268.423L161.68 281.577" stroke="#263238" stroke-linecap="round" stroke-linejoin="round"/>
<path d="M171.847 269.819C171.847 269.819 168.652 280.383 168.652 281.182C168.652 281.98 169.854 282.578 169.854 282.578" stroke="#263238" stroke-linecap="round" stroke-linejoin="round"/>
<path d="M178.123 281.203L178.022 277.994L175.23 279.591" stroke="#263238" stroke-linecap="round" stroke-linejoin="round"/>
<path d="M190.982 273.209C191.357 274.294 191.497 275.447 191.393 276.591C191.288 277.734 190.942 278.843 190.378 279.843C197.516 280.088 227.853 281.074 229.594 280.073C231.581 278.944 230.739 265.3 220.276 257.659C209.813 250.017 201.272 260.616 194.767 263.415C188.262 266.214 183.801 267.797 183.801 267.797C183.801 267.797 189.183 268.423 190.982 273.209Z" fill="#FF992A" stroke="#263238" stroke-linecap="round" stroke-linejoin="round"/>
<path d="M301.061 220.305C300.948 219.961 300.809 219.627 300.643 219.305C297.542 213.513 259.296 203.59 259.296 203.59L241.106 206.691C241.106 206.691 220.432 216.413 214.848 222.817C211.689 226.415 209.459 243.958 208.113 258.493C207.394 259.436 203.709 264.365 202.759 269.287C201.702 274.777 206.58 279.03 206.58 279.03H310.573C310.573 279.03 309.523 270.884 308.084 260.566C311.854 261.343 314.502 264.602 314.646 263.775C314.84 262.616 303.673 226.58 301.061 220.305Z" fill="#FF992A" stroke="#263238" stroke-linecap="round" stroke-linejoin="round"/>
<path d="M285.576 260.429C285.576 260.429 272.271 272.662 265.932 276.49" stroke="#263238" stroke-linecap="round" stroke-linejoin="round"/>
<path d="M291.706 263.178C291.706 263.178 284.733 272.266 281.775 275.008" stroke="#263238" stroke-linecap="round" stroke-linejoin="round"/>
<path d="M233.781 240.115L234.817 233.603C230.045 228.184 224.511 223.487 218.389 219.658C217.109 220.593 215.924 221.651 214.849 222.817C214.05 223.738 213.309 225.537 212.633 227.955C219.073 229.703 227.571 233.222 233.781 240.115Z" fill="#263238"/>
<path d="M231.405 268.783L237.565 263.811C228.556 252.658 217.553 251.089 208.667 252.881C208.465 254.773 208.285 256.658 208.113 258.493C207.875 258.803 207.307 259.565 206.623 260.609C214.193 259.27 224.188 259.846 231.405 268.783Z" fill="#263238"/>
<path d="M223.893 255.996C223.893 255.996 228.116 256.421 231.498 262.969" stroke="#707070" stroke-linecap="round" stroke-linejoin="round"/>
<path d="M216.697 257.687C216.697 257.687 222.224 255.78 230.369 265.077" stroke="#707070" stroke-linecap="round" stroke-linejoin="round"/>
<path d="M232.608 252.773L234.831 247.218C226.822 238.065 217.489 236.467 210.668 237.367C210.286 239.734 209.948 242.26 209.596 244.857C211.481 244.958 213.237 245.044 214.446 245.066C219.806 245.131 228.391 247.952 232.608 252.773Z" fill="#263238"/>
<path d="M231.852 256.838V266.912L313.66 260.782C312.94 258.875 312.573 255.644 311.35 252.571L231.852 256.838Z" fill="#263238"/>
<path d="M224.857 227.94C226.361 232.308 254.799 215.441 302.787 224.472C302.032 222.644 301.434 221.198 301.06 220.306C300.948 219.962 300.808 219.627 300.643 219.305C299.779 217.686 296.153 215.708 291.389 213.779C247.236 205.741 222.015 220.414 220.799 221.147L224.857 227.94Z" fill="#263238"/>
<path d="M234.118 236.964L231.959 247.901C232.491 247.793 278.372 249.34 308.435 241.979C307.284 239.151 306.399 235.122 305.32 232.488C279.408 234.467 237.931 238.079 234.118 236.964Z" fill="#263238"/>
<path d="M309.976 274.482C309.703 272.395 309.35 269.704 308.933 266.639L224.541 279.052H278.905L309.976 274.482Z" fill="#263238"/>
<path d="M271.997 207.166C264.902 205.051 259.297 203.568 259.297 203.568L241.106 206.67C241.106 206.67 238.026 208.109 233.91 210.267C236.788 216.873 243.984 221.565 252.454 221.565C262.218 221.579 270.313 215.362 271.997 207.166Z" fill="#263238" stroke="#263238" stroke-linecap="round" stroke-linejoin="round"/>
<path d="M292.534 278.994L283.021 224.263L308.091 260.559L303.22 279.318L292.534 278.994Z" fill="#263238"/>
<path d="M291.534 221.867C290.638 222.229 289.873 222.853 289.339 223.659C288.819 224.563 288.076 225.318 287.181 225.853C285.742 226.458 285.849 228.278 286.094 229.135C286.339 229.991 285.972 233.502 286.814 234.474C287.656 235.445 288.023 235.323 288.634 235.683C289.246 236.043 289.239 241.029 290.577 243.821C291.915 246.613 292.736 248.189 292.736 248.189C292.736 248.189 296.564 276.576 297.471 278.9C299.442 283.937 307.063 283.635 309.977 282.541C312.891 281.448 318.475 274.166 316.892 267.006C315.309 259.846 302.932 245.642 301.723 241.511C300.514 237.381 302.695 229.739 303.162 224.882C303.546 221.367 304.321 217.906 305.472 214.563C306.077 212.62 306.444 209.951 304.033 210.922C301.623 211.894 301.241 215.412 301.241 215.412C301.241 215.412 298.572 205.95 297.478 204.734C296.384 203.518 295.319 204.979 295.175 205.705C295.031 206.432 297.722 216.024 297.722 216.024L297.355 218.694C297.355 218.694 293.592 211.412 292.383 209.951C291.174 208.49 288.742 205.583 287.404 206.187C286.065 206.792 287.044 208.979 287.771 209.706C288.497 210.433 291.656 216.506 291.656 216.506L292.506 221.486L291.534 221.867Z" fill="white" stroke="#263238" stroke-linecap="round" stroke-linejoin="round"/>
<path d="M287.15 225.853C287.15 225.853 291.403 225.371 291.763 225.609" stroke="#263238" stroke-linecap="round" stroke-linejoin="round"/>
<path d="M292.498 221.486C292.498 221.486 294.801 221.241 295.168 222.335" stroke="#263238" stroke-linecap="round" stroke-linejoin="round"/>
<path d="M288.611 235.69L288.734 230.466" stroke="#263238" stroke-linecap="round" stroke-linejoin="round"/>
<path d="M288.612 232.653L287.029 231.804" stroke="#263238" stroke-linecap="round" stroke-linejoin="round"/>
<path d="M301.232 215.412C301.805 217.104 302.172 218.858 302.326 220.637" stroke="#263238" stroke-linecap="round" stroke-linejoin="round"/>
<path d="M229.023 268.603C229.023 268.603 221.345 262.962 215.107 262.724C208.868 262.487 205.155 266.2 204.191 271.719C203.227 277.238 205.875 281.793 210.667 282.995C215.459 284.197 231.182 280.836 231.182 280.836L229.023 268.603Z" fill="white" stroke="#263238" stroke-linecap="round" stroke-linejoin="round"/>
<path d="M304.393 275.044L287.734 275.274C286.072 275.094 254.756 275.115 252.993 275.533C246.884 276.972 245.798 277.648 238.695 280.16C231.593 282.671 216.389 282.801 216.389 282.801V286.031L264.888 289.903L294.39 289.744L318.604 287.319L304.393 275.044Z" fill="white" stroke="#263238" stroke-linecap="round" stroke-linejoin="round"/>
<path d="M309.81 277.022C308.666 276.252 305.414 274.374 302.298 275.533C298.434 276.972 296.721 279.85 292.224 282.362C287.726 284.873 279.135 286.679 279.135 286.679V289.91H309.81V277.022Z" fill="#E8E8E8" stroke="#263238" stroke-linecap="round" stroke-linejoin="round"/>
<path d="M309.285 277.022C310.005 276.252 312.091 274.374 314.077 275.533C316.538 276.972 317.632 279.85 320.51 282.362C323.389 284.873 328.858 282.067 328.858 282.067V285.297L309.285 289.903V277.022Z" fill="#E8E8E8" stroke="#263238" stroke-linecap="round" stroke-linejoin="round"/>
<path d="M279.027 292.652L328.858 288.046V285.297L279.027 289.903V292.652Z" fill="#FF992A" stroke="#263238" stroke-linecap="round" stroke-linejoin="round"/>
<path d="M215.668 288.78L279.026 292.651V289.903L215.668 286.031V288.78Z" fill="#FF992A" stroke="#263238" stroke-linecap="round" stroke-linejoin="round"/>
<path d="M279.185 286.794L216.359 282.923L215.668 286.031L279.026 289.903L279.185 286.794Z" fill="white" stroke="#263238" stroke-linecap="round" stroke-linejoin="round"/>
<path d="M308.573 286.722C308.333 285.483 307.651 284.374 306.654 283.599C305.658 282.825 304.414 282.439 303.154 282.513" stroke="#263238" stroke-linecap="round" stroke-linejoin="round"/>
<path d="M306.551 286.715C306.551 286.715 303.378 283.211 300.212 284.146C297.045 285.082 292.973 287.91 292.973 287.91" stroke="#263238" stroke-linecap="round" stroke-linejoin="round"/>
<path d="M305.76 279.275C305.76 279.275 307.364 277.447 308.724 282.153" stroke="#263238" stroke-linecap="round" stroke-linejoin="round"/>
<path d="M309.357 281.851C309.357 281.851 310.149 277.648 312.3 277.886C314.452 278.123 316.949 282.088 316.949 282.088" stroke="#263238" stroke-linecap="round" stroke-linejoin="round"/>
<path d="M309.523 286.809C309.523 286.809 311.768 282.448 313.697 282.685C314.865 282.853 315.936 283.429 316.719 284.312" stroke="#263238" stroke-linecap="round" stroke-linejoin="round"/>
<path d="M239.766 280.714L239.227 284.988L237.162 281.39L229.246 250.484C229.202 250.313 229.192 250.135 229.216 249.96C229.24 249.785 229.299 249.617 229.389 249.464C229.478 249.312 229.597 249.179 229.738 249.072C229.879 248.966 230.04 248.888 230.211 248.844C230.557 248.756 230.924 248.809 231.231 248.991C231.538 249.173 231.761 249.47 231.851 249.815L239.766 280.714Z" fill="white" stroke="#263238" stroke-linecap="round" stroke-linejoin="round"/>
<path d="M232.608 252.773L231.889 249.822C231.85 249.646 231.776 249.479 231.672 249.331C231.567 249.184 231.434 249.059 231.28 248.964C231.126 248.869 230.954 248.807 230.776 248.779C230.597 248.752 230.414 248.762 230.239 248.807C230.064 248.852 229.9 248.931 229.756 249.041C229.613 249.151 229.493 249.289 229.404 249.446C229.314 249.603 229.258 249.777 229.237 249.957C229.217 250.136 229.233 250.318 229.284 250.492L230.039 253.435L232.608 252.773Z" stroke="#263238" stroke-linecap="round" stroke-linejoin="round"/>
<path d="M226.808 265.783C226.808 265.783 225.109 269.323 225.958 270.453C226.808 271.582 234.306 280.073 236.428 280.217C238.551 280.361 238.126 276.252 237.148 275.123C236.169 273.993 231.629 265.646 230.355 265.049C229.081 264.451 228.211 264.653 226.808 265.783Z" fill="white" stroke="#263238" stroke-linecap="round" stroke-linejoin="round"/>
<path d="M225.959 270.453C225.959 270.453 221.433 274.554 223.7 276.929C225.967 279.303 233.882 282.167 235.155 281.174C236.429 280.181 235.299 279.476 235.299 279.476C235.299 279.476 227.377 272.007 225.959 270.453Z" fill="white" stroke="#263238" stroke-linecap="round" stroke-linejoin="round"/>
<path d="M223.7 276.958C223.7 276.958 221.008 280.354 223.836 281.916C226.664 283.477 231.752 282.477 233.191 282.052C233.891 281.876 234.559 281.589 235.17 281.203C231.078 280.661 227.159 279.21 223.7 276.958Z" fill="white" stroke="#263238" stroke-linecap="round" stroke-linejoin="round"/>
<path d="M241.243 268.33C241.243 268.33 236.854 269.46 236.998 271.021C237.142 272.583 237.983 276.677 238.696 278.095C238.871 278.395 239.117 278.649 239.412 278.834C239.707 279.019 240.042 279.13 240.389 279.158C240.736 279.186 241.085 279.129 241.405 278.992C241.725 278.856 242.008 278.644 242.229 278.375C242.948 277.245 242.797 271.446 242.797 270.597C242.797 269.747 242.373 268.481 241.243 268.33Z" fill="white" stroke="#263238" stroke-linecap="round" stroke-linejoin="round"/>
<path d="M223.836 281.915C223.836 281.915 223.275 284.743 225.959 285.024C228.643 285.305 233.32 284.456 234.73 283.326C236.141 282.196 233.176 282.052 233.176 282.052C233.176 282.052 227.232 283.182 223.836 281.915Z" fill="white" stroke="#263238" stroke-linecap="round" stroke-linejoin="round"/>
<path d="M239.874 197.819L238.91 211.181C238.91 211.181 241.069 216.549 252.474 217.658C263.879 218.766 268.808 208.353 268.808 208.353L264.678 195.084L239.874 197.819Z" fill="white" stroke="#263238" stroke-linecap="round" stroke-linejoin="round"/>
<path d="M270.263 173.389C270.263 173.389 273.638 169.453 275.703 174.411C277.768 179.369 269.227 187.774 269.227 187.774L270.263 173.389Z" fill="white" stroke="#263238" stroke-linecap="round" stroke-linejoin="round"/>
<path d="M228.665 178.837C228.665 178.837 225.131 175.109 222.512 179.93C219.893 184.751 224.585 187.507 227.887 189.443C231.19 191.379 232.018 191.508 232.018 191.508L228.665 178.837Z" fill="white" stroke="#263238" stroke-linecap="round" stroke-linejoin="round"/>
<path d="M228.492 155.889C228.492 155.889 223.664 162.639 224.894 169.252C226.125 175.865 230.125 193.084 233.435 197.495C236.745 201.906 243.769 207.965 252.864 208.238C261.959 208.512 267.881 202.316 269.119 194.458C270.357 186.601 273.53 172.152 268.709 159.919C263.888 147.686 253.001 145.455 243.639 146.247C235.242 146.988 229.73 153.407 228.492 155.889Z" fill="white" stroke="#263238" stroke-linecap="round" stroke-linejoin="round"/>
<path d="M271.263 173.188C271.179 168.64 270.317 164.14 268.716 159.883C263.895 147.65 253.008 145.419 243.646 146.211C235.242 146.931 229.73 153.407 228.492 155.853C228.492 155.853 223.664 162.603 224.894 169.216C225.326 171.518 226.089 175.109 227.053 179.002C228.665 177.563 232.73 173.483 232.09 169.489C231.262 164.531 229.615 157.501 233.054 154.889C236.494 152.277 244.351 156.263 248.885 154.889C253.418 153.515 259.081 149.787 261.974 151.716C264.866 153.644 266.932 159.156 267.486 164.668C267.91 169.043 269.709 171.756 271.263 173.188Z" fill="#263238" stroke="#263238" stroke-linecap="round" stroke-linejoin="round"/>
<path d="M275.897 145.218C275.897 145.218 277.826 143.009 277.689 141.498C277.552 139.987 273.695 139.843 273.695 139.843C273.695 139.843 274.415 138.878 273.695 135.158C272.976 131.438 267.356 132.956 267.356 132.956C267.628 132.476 267.735 131.92 267.661 131.373C267.587 130.825 267.336 130.318 266.946 129.927C265.564 128.409 261.571 130.337 261.571 130.337C261.763 129.67 261.814 128.97 261.719 128.283C261.625 127.595 261.388 126.934 261.024 126.344C259.779 124.142 255.375 127.444 255.375 127.444C254.844 126.325 254.198 125.264 253.447 124.278C252.339 122.897 249.172 125.379 249.172 125.379C248.966 124.111 248.274 122.973 247.244 122.206C245.589 121.105 242.286 124.688 242.286 124.688C242.286 124.688 242.149 122.623 240.768 122.069C239.386 121.515 238.703 124.948 238.703 124.948C238.372 124.321 237.876 123.797 237.268 123.433C236.66 123.069 235.964 122.878 235.256 122.882C232.781 122.882 234.155 127.567 234.155 127.567C233.721 126.962 233.167 126.454 232.526 126.075C231.886 125.696 231.174 125.454 230.435 125.365C227.959 125.091 229.888 128.804 229.888 128.804C228.825 128.261 227.631 128.024 226.441 128.121C224.376 128.258 225.721 131.841 225.721 131.841C225.721 131.841 223.793 130.459 220.49 131.424C217.187 132.388 221.037 135.835 221.037 135.835L218.159 136.382C215.28 136.936 218.439 140.246 218.439 140.246C218.439 140.246 216.784 139.526 213.618 140.929C210.452 142.332 214.446 144.923 214.446 144.923C213.396 144.736 212.322 144.736 211.272 144.923C209.071 145.204 211.827 148.643 211.827 148.643C211.827 148.643 205.444 148.06 210.754 154.767C209.423 155.105 207.79 155.817 208.207 157.213C208.891 159.494 214.129 159.264 214.129 159.264C214.129 159.264 210.711 161.998 213.676 163.135C216.216 164.114 220.605 164.416 223.239 162.747C224.849 163.01 226.496 162.946 228.082 162.56L237.076 159.991C244.888 157.769 253.044 157.01 261.132 157.753C262.801 157.911 264.111 158.012 264.586 158.012C266.377 158.012 272.58 157.875 273.681 155.81C274.782 153.745 273.408 153.191 273.408 153.191C273.408 153.191 276.71 150.852 277.401 148.643C278.092 146.434 275.897 145.218 275.897 145.218Z" fill="#263238" stroke="#263238" stroke-linecap="round" stroke-linejoin="round"/>
<path d="M246.445 181.801C246.855 182.952 246.517 184.118 245.726 184.413C244.934 184.708 243.898 184.017 243.488 182.873C243.078 181.729 243.416 180.556 244.207 180.261C244.999 179.966 246.035 180.693 246.445 181.801Z" fill="#263238"/>
<path d="M258.346 180.787C258.202 181.995 258.792 183.06 259.655 183.168C260.519 183.276 261.346 182.377 261.498 181.168C261.649 179.959 261.051 178.894 260.188 178.786C259.324 178.678 258.497 179.578 258.346 180.787Z" fill="#263238"/>
<path d="M237.307 177.815C237.307 177.815 240.905 173.54 246.949 175.886" stroke="#263238" stroke-width="3" stroke-linecap="round" stroke-linejoin="round"/>
<path d="M256.994 175.311C256.994 175.311 260.988 171.317 265.672 174.21" stroke="#263238" stroke-width="3" stroke-linecap="round" stroke-linejoin="round"/>
<path d="M251.77 191.983C251.77 191.983 255.216 193.084 257.145 190.601" stroke="#263238" stroke-linecap="round" stroke-linejoin="round"/>
<path d="M247.775 195.977C247.775 195.977 255.216 199.697 260.447 194.458" stroke="#263238" stroke-linecap="round" stroke-linejoin="round"/>
<path d="M199.4 289.809L98.3643 282.491L49.3613 288.543L50.2464 292.033L151.008 298.264L199.4 289.809Z" fill="#E8E8E8" stroke="#263238" stroke-linecap="round" stroke-linejoin="round"/>
<path d="M139.762 286.988V293.709L175.042 289.543L139.762 286.988Z" fill="#E8E8E8" stroke="#263238" stroke-linecap="round" stroke-linejoin="round"/>
<path d="M49.3618 288.543L150.174 294.774L133.955 230.876L33.1426 224.644L49.3618 288.543Z" fill="#137EA7" stroke="#263238" stroke-linecap="round" stroke-linejoin="round"/>
<path d="M83.5767 261.285C84.6633 265.545 88.9879 268.992 93.2406 268.992C97.4933 268.992 100.069 265.545 98.9972 261.285C97.925 257.025 93.5932 253.586 89.3333 253.586C85.0734 253.586 82.483 257.04 83.5767 261.285Z" fill="#B7D9E5" stroke="#263238" stroke-linecap="round" stroke-linejoin="round"/>
<path d="M50.2462 292.033L151.059 298.264L150.08 294.652L49.2676 288.413L50.2462 292.033Z" fill="#E8E8E8" stroke="#263238" stroke-linecap="round" stroke-linejoin="round"/>
<path d="M151.01 298.264L200.178 292.824L199.401 289.809L150.232 295.249L151.01 298.264Z" fill="#263238" stroke="#263238" stroke-linecap="round" stroke-linejoin="round"/>
</svg>
