<svg width="31" height="27" viewBox="0 0 31 27" fill="none" xmlns="http://www.w3.org/2000/svg">
<path d="M19.2049 9.64108H1.62602C1.04944 9.64108 0.571289 9.16294 0.571289 8.58635C0.571289 8.00976 1.04944 7.53162 1.62602 7.53162H19.2049C19.7815 7.53162 20.2597 8.00976 20.2597 8.58635C20.2597 9.16294 19.7815 9.64108 19.2049 9.64108Z" fill="#107FAA"/>
<path d="M10.0636 20.8916H7.25102C6.67444 20.8916 6.19629 20.4134 6.19629 19.8368C6.19629 19.2603 6.67444 18.7821 7.25102 18.7821H10.0636C10.6402 18.7821 11.1184 19.2603 11.1184 19.8368C11.1184 20.4134 10.6402 20.8916 10.0636 20.8916Z" fill="#FF992A"/>
<path d="M19.2054 20.8916H13.5801C13.0036 20.8916 12.5254 20.4134 12.5254 19.8368C12.5254 19.2603 13.0036 18.7821 13.5801 18.7821H19.2054C19.782 18.7821 20.2601 19.2603 20.2601 19.8368C20.2601 20.4134 19.782 20.8916 19.2054 20.8916Z" fill="#FF992A"/>
<path d="M23.5082 26.5168H7.87004C2.27293 26.5168 0.571289 24.8292 0.571289 19.2883V7.72844C0.571289 2.18757 2.27293 0.5 7.87004 0.5H19.2049C19.7815 0.5 20.2597 0.978146 20.2597 1.55473C20.2597 2.13132 19.7815 2.60947 19.2049 2.60947H7.87004C3.45423 2.60947 2.68076 3.36888 2.68076 7.72844V19.2743C2.68076 23.6338 3.45423 24.3932 7.87004 24.3932H23.4942C27.91 24.3932 28.6835 23.6338 28.6835 19.2743V16.3491C28.6835 15.7725 29.1616 15.2944 29.7382 15.2944C30.3148 15.2944 30.7929 15.7725 30.7929 16.3491V19.2743C30.807 24.8292 29.1054 26.5168 23.5082 26.5168Z" fill="#107FAA"/>
<path d="M26.94 11.0473C26.7994 11.0473 26.6728 11.0192 26.5322 10.963C26.1384 10.7942 25.8853 10.4145 25.8853 9.9926V1.55473C25.8853 0.978146 26.3634 0.5 26.94 0.5C27.5166 0.5 27.9947 0.978146 27.9947 1.55473V7.44718L29.0073 6.43463C29.4151 6.0268 30.0901 6.0268 30.498 6.43463C30.9058 6.84246 30.9058 7.51749 30.498 7.92532L27.6853 10.7379C27.4885 10.9348 27.2212 11.0473 26.94 11.0473Z" fill="#FF992A"/>
<path d="M26.9395 11.0472C26.6723 11.0472 26.4051 10.9487 26.1942 10.7378L23.3816 7.92522C22.9737 7.51739 22.9737 6.84237 23.3816 6.43453C23.7894 6.0267 24.4644 6.0267 24.8722 6.43453L27.6849 9.24716C28.0927 9.65499 28.0927 10.33 27.6849 10.7378C27.4739 10.9487 27.2067 11.0472 26.9395 11.0472Z" fill="#FF992A"/>
</svg>
