<svg width="22" height="22" viewBox="0 0 22 22" fill="none" xmlns="http://www.w3.org/2000/svg">
<path d="M10.7502 0C4.82224 0 0.000244141 4.823 0.000244141 10.75C0.000244141 16.677 4.82224 21.5 10.7502 21.5C16.6782 21.5 21.5002 16.677 21.5002 10.75C21.5002 4.823 16.6782 0 10.7502 0ZM10.7502 20C5.64924 20 1.50024 15.851 1.50024 10.75C1.50024 5.649 5.64924 1.5 10.7502 1.5C15.8512 1.5 20.0002 5.649 20.0002 10.75C20.0002 15.851 15.8512 20 10.7502 20ZM15.0002 10.75C15.0002 11.164 14.6642 11.5 14.2502 11.5H11.5002V14.25C11.5002 14.664 11.1642 15 10.7502 15C10.3362 15 10.0002 14.664 10.0002 14.25V11.5H7.25024C6.83624 11.5 6.50024 11.164 6.50024 10.75C6.50024 10.336 6.83624 10 7.25024 10H10.0002V7.25C10.0002 6.836 10.3362 6.5 10.7502 6.5C11.1642 6.5 11.5002 6.836 11.5002 7.25V10H14.2502C14.6642 10 15.0002 10.336 15.0002 10.75Z" fill="white"/>
</svg>
