<svg width="14" height="14" viewBox="0 0 14 14" fill="none" xmlns="http://www.w3.org/2000/svg">
<path d="M0.0200939 5.6519C0.0683279 5.50339 0.196651 5.39517 0.351144 5.37275L4.69121 4.74206L6.6322 0.809309C6.70127 0.669309 6.84387 0.580688 6.99997 0.580688C7.1561 0.580688 7.29868 0.669309 7.36777 0.809309L9.30884 4.74206L13.6488 5.37275C13.8033 5.39517 13.9317 5.50339 13.9799 5.65187C14.0282 5.80037 13.9879 5.96337 13.8761 6.07233L10.7357 9.13356L11.477 13.4561C11.5034 13.61 11.4401 13.7655 11.3138 13.8573C11.2424 13.9092 11.1577 13.9356 11.0727 13.9356C11.0074 13.9356 10.9419 13.92 10.8819 13.8885L7 11.8476L3.11827 13.8885C2.98004 13.9611 2.81262 13.949 2.68632 13.8573C2.56002 13.7655 2.49672 13.61 2.5231 13.4561L3.26458 9.13356L0.123863 6.0723C0.0120831 5.96337 -0.0281954 5.80037 0.0200939 5.6519Z" fill="#FF992A"/>
</svg>
