<svg width="31" height="27" viewBox="0 0 31 27" fill="none" xmlns="http://www.w3.org/2000/svg">
<path d="M24.5 2.75C21.329 2.75 18.75 5.329 18.75 8.5C18.75 11.671 21.329 14.25 24.5 14.25C27.671 14.25 30.25 11.671 30.25 8.5C30.25 5.329 27.671 2.75 24.5 2.75ZM24.5 12.9826C22.0283 12.9826 20.0174 10.9717 20.0174 8.5C20.0174 6.02826 22.0283 4.01744 24.5 4.01744C26.9717 4.01744 28.9826 6.02826 28.9826 8.5C28.9826 10.9717 26.9717 12.9826 24.5 12.9826ZM26.4828 10.4833C26.7304 10.2358 26.7304 9.83447 26.4828 9.58693L25.1337 8.23781V5.94236C25.1337 5.59247 24.8499 5.30864 24.5 5.30864C24.1501 5.30864 23.8663 5.59247 23.8663 5.94236V8.5005C23.8663 8.66822 23.9331 8.82951 24.052 8.94845L25.5863 10.4827C25.5865 10.4829 25.5866 10.483 25.5867 10.4831C25.7106 10.6076 25.8735 10.6691 26.0349 10.6691C26.1972 10.6691 26.3597 10.6065 26.4828 10.4833Z" fill="#FF992A" stroke="#FF992A" stroke-width="0.5"/>
<path d="M12.2049 9.64108H1.62602C1.04944 9.64108 0.571289 9.16294 0.571289 8.58635C0.571289 8.00976 1.04944 7.53162 1.62602 7.53162H12.2049C12.7815 7.53162 13.2597 8.00976 13.2597 8.58635C13.2597 9.16294 12.7815 9.64108 12.2049 9.64108Z" fill="#107FAA"/>
<path d="M10.0636 20.8916H7.25102C6.67444 20.8916 6.19629 20.4134 6.19629 19.8368C6.19629 19.2603 6.67444 18.7821 7.25102 18.7821H10.0636C10.6402 18.7821 11.1184 19.2603 11.1184 19.8368C11.1184 20.4134 10.6402 20.8916 10.0636 20.8916Z" fill="#FF992A"/>
<path d="M19.2054 20.8916H13.5801C13.0036 20.8916 12.5254 20.4134 12.5254 19.8368C12.5254 19.2603 13.0036 18.7821 13.5801 18.7821H19.2054C19.782 18.7821 20.2601 19.2603 20.2601 19.8368C20.2601 20.4134 19.782 20.8916 19.2054 20.8916Z" fill="#FF992A"/>
<path d="M23.5082 26.5168H7.87004C2.27293 26.5168 0.571289 24.8292 0.571289 19.2883V7.72844C0.571289 2.18757 2.27293 0.5 7.87004 0.5H19.2049C19.7815 0.5 20.2597 0.978146 20.2597 1.55473C20.2597 2.13132 19.7815 2.60947 19.2049 2.60947H7.87004C3.45423 2.60947 2.68076 3.36888 2.68076 7.72844V19.2743C2.68076 23.6338 3.45423 24.3932 7.87004 24.3932H23.4942C27.91 24.3932 28.6835 23.6338 28.6835 19.2743V16.3491C28.6835 15.7725 29.1616 15.2944 29.7382 15.2944C30.3148 15.2944 30.7929 15.7725 30.7929 16.3491V19.2743C30.807 24.8292 29.1054 26.5168 23.5082 26.5168Z" fill="#107FAA"/>
</svg>
