<svg width="16" height="16" viewBox="0 0 16 16" fill="none" xmlns="http://www.w3.org/2000/svg">
<path d="M8.00016 15.1666C4.04816 15.1666 0.833496 11.952 0.833496 7.99998C0.833496 4.04798 4.04816 0.833313 8.00016 0.833313C11.9522 0.833313 15.1668 4.04798 15.1668 7.99998C15.1668 11.952 11.9522 15.1666 8.00016 15.1666ZM8.00016 1.83331C4.5995 1.83331 1.8335 4.59931 1.8335 7.99998C1.8335 11.4006 4.5995 14.1666 8.00016 14.1666C11.4008 14.1666 14.1668 11.4006 14.1668 7.99998C14.1668 4.59931 11.4008 1.83331 8.00016 1.83331ZM8.50016 11V7.95262C8.50016 7.67662 8.27616 7.45262 8.00016 7.45262C7.72416 7.45262 7.50016 7.67662 7.50016 7.95262V11C7.50016 11.276 7.72416 11.5 8.00016 11.5C8.27616 11.5 8.50016 11.276 8.50016 11ZM8.68018 5.66665C8.68018 5.29865 8.38218 4.99998 8.01351 4.99998H8.00684C7.63884 4.99998 7.34342 5.29865 7.34342 5.66665C7.34342 6.03465 7.64551 6.33331 8.01351 6.33331C8.38151 6.33331 8.68018 6.03465 8.68018 5.66665Z" fill="#113E5B"/>
</svg>
