<svg width="20" height="20" viewBox="0 0 20 20" fill="none" xmlns="http://www.w3.org/2000/svg">
<path d="M18.7972 17.8185L15.2516 14.2729C16.4368 12.8671 17.154 11.0551 17.154 9.07692C17.154 4.62308 13.5309 1 9.07701 1C4.62312 1 1 4.62308 1 9.07692C1 13.5308 4.62312 17.1538 9.07701 17.1538C11.0552 17.1538 12.8672 16.4366 14.2731 15.2514L17.8186 18.7969C17.9534 18.9317 18.1307 19 18.3079 19C18.4851 19 18.6624 18.9326 18.7972 18.7969C19.0676 18.5274 19.0676 18.0889 18.7972 17.8185ZM2.38463 9.07692C2.38463 5.38646 5.38651 2.38462 9.07701 2.38462C12.7675 2.38462 15.7694 5.38646 15.7694 9.07692C15.7694 12.7674 12.7675 15.7692 9.07701 15.7692C5.38651 15.7692 2.38463 12.7674 2.38463 9.07692Z" fill="white" stroke="white" stroke-width="0.2"/>
</svg>
