<svg width="42" height="42" viewBox="0 0 42 42" fill="none" xmlns="http://www.w3.org/2000/svg">
<circle cx="21" cy="21" r="21" fill="#113E5B"/>
<path d="M14.3689 30.8046C14.0057 30.8037 13.6578 30.6589 13.4012 30.4019C13.1446 30.145 13.0004 29.7968 13 29.4337V22.8061C13.0001 22.6562 13.0489 22.5105 13.1392 22.3908C13.2294 22.2712 13.3561 22.1842 13.5002 22.143L16.0958 21.4013L13.5002 20.6596C13.3561 20.6184 13.2294 20.5314 13.1392 20.4118C13.0489 20.2922 13.0001 20.1465 13 19.9966V13.369C13.0001 13.1356 13.0598 12.9062 13.1735 12.7024C13.2872 12.4986 13.451 12.3272 13.6495 12.2045C13.848 12.0819 14.0746 12.0119 14.3077 12.0014C14.5408 11.9909 14.7728 12.0401 14.9815 12.1443L31.3332 20.3209C31.5336 20.4214 31.7021 20.5757 31.8199 20.7665C31.9376 20.9573 32 21.1771 32 21.4013C32 21.6256 31.9376 21.8453 31.8199 22.0362C31.7021 22.227 31.5336 22.3813 31.3332 22.4818L14.9815 30.6583C14.7915 30.7541 14.5817 30.8042 14.3689 30.8046ZM14.3799 23.327V29.4337L30.4122 21.4013L14.3654 13.3787L14.3792 19.4757L18.7949 20.7383C18.9387 20.7797 19.0652 20.8668 19.1553 20.9864C19.2453 21.106 19.294 21.2516 19.294 21.4013C19.294 21.551 19.2453 21.6967 19.1553 21.8163C19.0652 21.9359 18.9387 22.023 18.7949 22.0644L14.3799 23.327Z" fill="white"/>
</svg>
