<svg width="76" height="76" viewBox="0 0 76 76" fill="none" xmlns="http://www.w3.org/2000/svg">
<circle opacity="0.12" cx="38" cy="38" r="37.5" fill="#F4F5F6" stroke="#113E5B"/>
<path d="M48.2656 49.1868V65.0791H21.5469C20.602 65.0791 19.6959 64.7038 19.0278 64.0357C18.3597 63.3676 17.9844 62.4614 17.9844 61.5166V49.193C17.9844 47.6199 18.5051 46.0911 19.4651 44.8449C20.4251 43.5988 21.7706 42.7054 23.2916 42.304L31.374 40.1719H34.9365L42.9655 42.2996C44.4849 42.7022 45.8286 43.5959 46.7872 44.8416C47.7458 46.0872 48.2656 47.6149 48.2656 49.1868Z" fill="#FF992A"/>
<path d="M48.2666 57.9844V49.1868C48.2666 47.6149 47.7468 46.0872 46.7881 44.8416C45.8295 43.5959 44.4859 42.7022 42.9665 42.2996L37.9728 40.9734C37.1518 42.3463 36.7184 43.916 36.7187 45.5156C36.7187 45.988 36.9064 46.4411 37.2405 46.7752C37.5745 47.1092 38.0276 47.2969 38.5 47.2969H37.6094C37.2333 47.2984 36.8674 47.4189 36.564 47.6411C36.2606 47.8633 36.0353 48.1759 35.9205 48.534C35.8056 48.8921 35.807 49.2773 35.9245 49.6346C36.0419 49.9918 36.2695 50.3027 36.5745 50.5227L35.8281 57.9844H48.2666Z" fill="#E8859B"/>
<path d="M20.6562 61.5166V49.193C20.6563 47.6199 21.1769 46.0911 22.137 44.8449C23.097 43.5988 24.4425 42.7054 25.9635 42.304L34.0459 40.1719H31.374L23.2916 42.304C21.7706 42.7054 20.4251 43.5988 19.4651 44.8449C18.5051 46.0911 17.9844 47.6199 17.9844 49.193V61.5166C17.9844 62.4614 18.3597 63.3676 19.0278 64.0357C19.6959 64.7038 20.602 65.0791 21.5469 65.0791H24.2188C23.2739 65.0791 22.3678 64.7038 21.6997 64.0357C21.0316 63.3676 20.6562 62.4614 20.6562 61.5166Z" fill="#E17E13"/>
<path d="M46.9526 29.5084C46.5178 29.039 46.218 28.4607 46.0852 27.8347C45.9524 27.2088 45.9915 26.5586 46.1983 25.953C46.5859 24.8794 46.6189 23.7096 46.2923 22.6158C45.9658 21.522 45.2969 20.5617 44.3841 19.8763C43.952 19.5693 43.5976 19.1656 43.3491 18.6974C43.1007 18.2292 42.9649 17.7094 42.9528 17.1795C42.9528 15.2464 42.1849 13.3924 40.818 12.0255C39.451 10.6586 37.5971 9.89063 35.6639 9.89062H30.648C28.7148 9.89063 26.8609 10.6586 25.4939 12.0255C24.127 13.3924 23.3591 15.2464 23.3591 17.1795C23.347 17.7094 23.2112 18.2292 22.9628 18.6974C22.7143 19.1656 22.3599 19.5693 21.9278 19.8763C21.015 20.5617 20.3461 21.522 20.0196 22.6158C19.693 23.7096 19.726 24.8794 20.1136 25.953C20.3205 26.5586 20.3596 27.2088 20.2268 27.8348C20.094 28.4607 19.7942 29.0391 19.3593 29.5084C18.8541 30.0764 18.4764 30.7461 18.2517 31.4722C18.0269 32.1984 17.9603 32.9643 18.0563 33.7184C18.2471 35.0298 18.9084 36.227 19.9169 37.0867C20.9254 37.9464 22.2122 38.4098 23.5372 38.3906H42.7747C44.0992 38.4092 45.3852 37.9456 46.3931 37.0861C47.401 36.2267 48.062 35.0301 48.2529 33.7193C48.3493 32.9653 48.2831 32.1993 48.0588 31.473C47.8346 30.7467 47.4574 30.0768 46.9526 29.5084Z" fill="#C67A60"/>
<path d="M34.9375 40.1719L34.4156 40.6938C34.0816 41.0277 33.6286 41.2153 33.1562 41.2153C32.6839 41.2153 32.2309 41.0277 31.8969 40.6938L31.375 40.1719V34.8281H34.9375V40.1719Z" fill="#F7D1C6"/>
<path d="M33.1562 36.6094C31.0304 36.6094 28.9916 35.7649 27.4883 34.2617C25.9851 32.7584 25.1406 30.7196 25.1406 28.5938V18.7969H41.1719V28.5938C41.1719 30.7196 40.3274 32.7584 38.8242 34.2617C37.3209 35.7649 35.2821 36.6094 33.1562 36.6094Z" fill="#F7D1C6"/>
<path d="M41.1719 29.4844V24.1406H42.0625C42.5349 24.1406 42.988 24.3283 43.322 24.6623C43.6561 24.9964 43.8438 25.4495 43.8438 25.9219V26.8125C43.8438 27.5211 43.5622 28.2007 43.0612 28.7018C42.5601 29.2029 41.8805 29.4844 41.1719 29.4844Z" fill="#F7D1C6"/>
<path d="M24.25 24.1406H25.1406V29.4844C24.432 29.4844 23.7524 29.2029 23.2513 28.7018C22.7502 28.2007 22.4688 27.5211 22.4688 26.8125V25.9219C22.4688 25.4495 22.6564 24.9964 22.9905 24.6623C23.3245 24.3283 23.7776 24.1406 24.25 24.1406Z" fill="#F7D1C6"/>
<path d="M56.3125 47.2969H38.5L37.6094 56.2031H57.2031L56.3125 47.2969Z" fill="#C67A60"/>
<path d="M40.2812 41.9531H54.5312V49.0781C54.5312 50.9678 53.7806 52.7801 52.4444 54.1163C51.1082 55.4525 49.2959 56.2031 47.4062 56.2031C45.5166 56.2031 43.7043 55.4525 42.3681 54.1163C41.0319 52.7801 40.2812 50.9678 40.2812 49.0781V41.9531Z" fill="#F7D1C6"/>
<path d="M39.3906 45.5156H40.2812V49.0781H39.3906C38.9182 49.0781 38.4651 48.8905 38.1311 48.5564C37.797 48.2224 37.6094 47.7693 37.6094 47.2969C37.6094 46.8245 37.797 46.3714 38.1311 46.0373C38.4651 45.7033 38.9182 45.5156 39.3906 45.5156Z" fill="#F7D1C6"/>
<path d="M55.4219 49.1093H54.5312V45.5468H55.4219C55.8943 45.5468 56.3474 45.7345 56.6814 46.0685C57.0155 46.4026 57.2031 46.8556 57.2031 47.328C57.2031 47.8005 57.0155 48.2535 56.6814 48.5876C56.3474 48.9216 55.8943 49.1093 55.4219 49.1093Z" fill="#F7D1C6"/>
<path d="M54.5312 45.5156H50.9688L49.1875 43.7344L47.4062 45.5156H40.2812C39.8088 45.5156 39.3558 45.328 39.0217 44.9939C38.6877 44.6599 38.5 44.2068 38.5 43.7344C38.5 41.3723 39.4383 39.107 41.1086 37.4367C42.7788 35.7665 45.0442 34.8281 47.4062 34.8281C49.7683 34.8281 52.0337 35.7665 53.7039 37.4367C55.3742 39.107 56.3125 41.3723 56.3125 43.7344C56.3125 44.2068 56.1248 44.6599 55.7908 44.9939C55.4567 45.328 55.0037 45.5156 54.5312 45.5156Z" fill="#C67A60"/>
<path d="M51.8301 56.2307H42.9238C41.0342 56.2307 39.2219 56.9814 37.8857 58.3176C36.5495 59.6538 35.7988 61.4661 35.7988 63.3557V65.1094H58.9551V63.3557C58.9551 61.4661 58.2044 59.6538 56.8682 58.3176C55.532 56.9814 53.7197 56.2307 51.8301 56.2307Z" fill="#113E5B"/>
<path d="M39.4164 65.1094C40.1202 65.1021 40.7928 64.8174 41.2879 64.3171C41.783 63.8168 42.0607 63.1414 42.0607 62.4375V60.6562C42.0619 60.0267 41.8402 59.4171 41.435 58.9353C41.0298 58.4536 40.4672 58.1308 39.8467 58.0241C39.2263 57.9174 38.5882 58.0338 38.0453 58.3525C37.5025 58.6713 37.0899 59.1719 36.8808 59.7656H36.7668C36.1264 60.8534 35.7881 62.0925 35.7871 63.3548V65.1094H39.4146H39.4164Z" fill="#82D0D8"/>
<path d="M45.625 56.2031H49.1875V57.0938C49.1875 57.5662 48.9998 58.0192 48.6658 58.3533C48.3317 58.6873 47.8787 58.875 47.4062 58.875C46.9338 58.875 46.4808 58.6873 46.1467 58.3533C45.8127 58.0192 45.625 57.5662 45.625 57.0938V56.2031Z" fill="#F7D1C6"/>
<path d="M37.6094 57.9844C37.0585 57.9856 36.5215 58.1576 36.0724 58.4766C35.6233 58.7955 35.284 59.2459 35.1014 59.7656H25.1406C24.6682 59.7656 24.2151 59.578 23.8811 59.2439C23.547 58.9099 23.3594 58.4568 23.3594 57.9844V56.2031H18.0156V61.5469C18.0156 62.4917 18.391 63.3978 19.0591 64.0659C19.7272 64.734 20.6333 65.1094 21.5781 65.1094H37.637C38.3408 65.1021 39.0133 64.8174 39.5085 64.3171C40.0036 63.8168 40.2813 63.1414 40.2812 62.4375V60.6562C40.2812 59.9476 39.9997 59.268 39.4987 58.767C38.9976 58.2659 38.318 57.9844 37.6094 57.9844Z" fill="#F7D1C6"/>
<path d="M24.25 65.1094C23.3052 65.1094 22.399 64.734 21.7309 64.0659C21.0628 63.3978 20.6875 62.4917 20.6875 61.5469V56.2031H18.0156V61.5469C18.0156 62.4917 18.391 63.3978 19.0591 64.0659C19.7272 64.734 20.6333 65.1094 21.5781 65.1094H24.25Z" fill="#F4B19F"/>
<path d="M27.8107 28.5938V18.7969H25.1388V28.5938C25.1324 29.7611 25.3825 30.9157 25.8713 31.9758C26.3602 33.0359 27.0759 33.9757 27.9678 34.7288C28.8598 35.4819 29.9063 36.0299 31.0334 36.334C32.1605 36.6382 33.3406 36.6912 34.4904 36.4891C32.6236 36.1745 30.9286 35.2089 29.7058 33.7637C28.4831 32.3184 27.8117 30.4869 27.8107 28.5938Z" fill="#F4B19F"/>
<path d="M42.0625 17.9062L41.1719 24.1406L36.7188 20.5781L35.1236 21.4892C32.0835 23.2268 28.6423 24.1408 25.1406 24.1406L24.25 17.9062H42.0625Z" fill="#C67A60"/>
<path d="M43.8438 49.7986C44.08 49.7986 44.3065 49.7048 44.4735 49.5378C44.6405 49.3708 44.7344 49.1442 44.7344 48.908V48.1875C44.7344 47.9513 44.6405 47.7248 44.4735 47.5577C44.3065 47.3907 44.08 47.2969 43.8438 47.2969C43.6075 47.2969 43.381 47.3907 43.214 47.5577C43.047 47.7248 42.9531 47.9513 42.9531 48.1875V48.908C42.9531 49.1442 43.047 49.3708 43.214 49.5378C43.381 49.7048 43.6075 49.7986 43.8438 49.7986Z" fill="#C67A60"/>
<path d="M20.7282 33.7184C20.6322 32.9643 20.6988 32.1984 20.9235 31.4722C21.1483 30.7461 21.526 30.0764 22.0312 29.5084C22.466 29.039 22.7657 28.4607 22.8985 27.8347C23.0314 27.2088 22.9923 26.5586 22.7855 25.953C22.3979 24.8794 22.3649 23.7096 22.6914 22.6158C23.018 21.522 23.6869 20.5617 24.5997 19.8763C25.0318 19.5693 25.3862 19.1656 25.6346 18.6974C25.8831 18.2292 26.0188 17.7094 26.0309 17.1795C26.0309 15.2464 26.7989 13.3924 28.1658 12.0255C29.5327 10.6586 31.3867 9.89063 33.3198 9.89062H30.648C28.7148 9.89063 26.8609 10.6586 25.4939 12.0255C24.127 13.3924 23.3591 15.2464 23.3591 17.1795C23.347 17.7094 23.2112 18.2292 22.9628 18.6974C22.7143 19.1656 22.3599 19.5693 21.9278 19.8763C21.015 20.5617 20.3461 21.522 20.0196 22.6158C19.693 23.7096 19.726 24.8794 20.1136 25.953C20.3204 26.5586 20.3595 27.2088 20.2267 27.8347C20.0939 28.4607 19.7941 29.039 19.3593 29.5084C18.8541 30.0764 18.4764 30.7461 18.2517 31.4722C18.0269 32.1984 17.9603 32.9643 18.0563 33.7184C18.2471 35.0298 18.9084 36.227 19.9169 37.0867C20.9254 37.9464 22.2122 38.4098 23.5372 38.3906H26.2091C24.884 38.4098 23.5972 37.9464 22.5888 37.0867C21.5803 36.227 20.9189 35.0298 20.7282 33.7184Z" fill="#B26049"/>
<path d="M50.9688 49.7986C51.205 49.7986 51.4315 49.7048 51.5985 49.5378C51.7655 49.3708 51.8594 49.1442 51.8594 48.908V48.1875C51.8594 47.9513 51.7655 47.7248 51.5985 47.5577C51.4315 47.3907 51.205 47.2969 50.9688 47.2969C50.7325 47.2969 50.506 47.3907 50.339 47.5577C50.172 47.7248 50.0781 47.9513 50.0781 48.1875V48.908C50.0781 49.1442 50.172 49.3708 50.339 49.5378C50.506 49.7048 50.7325 49.7986 50.9688 49.7986Z" fill="#C67A60"/>
<path d="M44.9941 53.2703C45.2847 53.6299 45.652 53.92 46.0691 54.1193C46.4863 54.3185 46.9428 54.422 47.4051 54.422C47.8674 54.422 48.3238 54.3185 48.741 54.1193C49.1582 53.92 49.5255 53.6299 49.816 53.2703C49.9782 53.1023 50.068 52.8773 50.066 52.6438C50.0639 52.4103 49.9703 52.1869 49.8051 52.0218C49.64 51.8567 49.4166 51.763 49.1831 51.761C48.9496 51.7589 48.7246 51.8487 48.5566 52.0109C48.4323 52.2032 48.2617 52.3613 48.0606 52.4707C47.8594 52.5802 47.6341 52.6375 47.4051 52.6375C47.1761 52.6375 46.9507 52.5802 46.7496 52.4707C46.5484 52.3613 46.3779 52.2032 46.2535 52.0109C46.0855 51.8487 45.8605 51.7589 45.627 51.761C45.3935 51.763 45.1701 51.8567 45.005 52.0218C44.8399 52.1869 44.7462 52.4103 44.7442 52.6438C44.7421 52.8773 44.8319 53.1023 44.9941 53.2703Z" fill="#F97878"/>
<path d="M29.5938 26.8125V25.9219C29.5938 25.6857 29.4999 25.4591 29.3329 25.2921C29.1659 25.1251 28.9393 25.0312 28.7031 25.0312C28.4669 25.0312 28.2404 25.1251 28.0734 25.2921C27.9063 25.4591 27.8125 25.6857 27.8125 25.9219V26.8125C27.8125 27.0487 27.9063 27.2752 28.0734 27.4423C28.2404 27.6093 28.4669 27.7031 28.7031 27.7031C28.9393 27.7031 29.1659 27.6093 29.3329 27.4423C29.4999 27.2752 29.5938 27.0487 29.5938 26.8125Z" fill="#C67A60"/>
<path d="M37.6094 27.7031C37.8456 27.7031 38.0721 27.6093 38.2391 27.4423C38.4062 27.2752 38.5 27.0487 38.5 26.8125V25.9219C38.5 25.6857 38.4062 25.4591 38.2391 25.2921C38.0721 25.1251 37.8456 25.0312 37.6094 25.0312C37.3732 25.0312 37.1466 25.1251 36.9796 25.2921C36.8126 25.4591 36.7188 25.6857 36.7188 25.9219V26.8125C36.7188 27.0487 36.8126 27.2752 36.9796 27.4423C37.1466 27.6093 37.3732 27.7031 37.6094 27.7031Z" fill="#C67A60"/>
<path d="M33.1551 34.674C33.6029 34.675 34.0464 34.5873 34.4602 34.4161C34.874 34.2449 35.2498 33.9936 35.566 33.6765C35.7282 33.5086 35.818 33.2836 35.816 33.0501C35.8139 32.8166 35.7203 32.5932 35.5551 32.428C35.39 32.2629 35.1666 32.1693 34.9331 32.1672C34.6996 32.1652 34.4746 32.255 34.3066 32.4172C34.001 32.7221 33.5868 32.8933 33.1551 32.8933C32.7233 32.8933 32.3092 32.7221 32.0035 32.4172C31.8355 32.255 31.6105 32.1652 31.377 32.1672C31.1435 32.1693 30.9201 32.2629 30.755 32.428C30.5899 32.5932 30.4962 32.8166 30.4942 33.0501C30.4921 33.2836 30.5819 33.5086 30.7441 33.6765C31.0604 33.9935 31.4363 34.2448 31.85 34.416C32.2638 34.5872 32.7073 34.6749 33.1551 34.674Z" fill="#F97878"/>
</svg>
