<svg width="76" height="76" viewBox="0 0 76 76" fill="none" xmlns="http://www.w3.org/2000/svg">
<circle opacity="0.12" cx="38" cy="38" r="37.5" fill="#F4F5F6" stroke="#113E5B"/>
<path d="M53.3244 39.436L53.0099 42.2656L52.7978 44.1719H26.1103L25.8982 42.2656L25.5837 39.436C25.3041 36.9177 25.6817 34.3699 26.6798 32.041C27.559 29.9885 27.9583 27.7624 27.8474 25.5323L27.6818 22.2345C27.6022 20.6391 27.8476 19.0442 28.4033 17.5466C28.959 16.049 29.8132 14.68 30.9142 13.5227C32.0152 12.3654 33.34 11.4439 34.808 10.8143C36.276 10.1847 37.8567 9.85999 39.4541 9.85999C41.0514 9.85999 42.6321 10.1847 44.1001 10.8143C45.5682 11.4439 46.8929 12.3654 47.9939 13.5227C49.0949 14.68 49.9492 16.049 50.5048 17.5466C51.0605 19.0442 51.306 20.6391 51.2263 22.2345L51.0607 25.5323C50.9498 27.7624 51.3492 29.9885 52.2283 32.041C53.2267 34.3698 53.6044 36.9177 53.3244 39.436Z" fill="#8F4D2E"/>
<path d="M53.3237 39.436L53.0092 42.2656H42.3128V31.7812L44.219 27.9688V20.3438C44.2178 18.046 43.4626 15.8122 42.0692 13.9852C40.6758 12.1582 38.7214 10.8389 36.5059 10.2299C38.2959 9.77042 40.1688 9.73781 41.9738 10.1347C43.7787 10.5316 45.4652 11.3469 46.8974 12.5149C48.3296 13.6829 49.4674 15.1709 50.2192 16.8592C50.971 18.5474 51.3158 20.3886 51.2257 22.2345L51.0601 25.5323C50.9492 27.7624 51.3485 29.9885 52.2277 32.041C53.2261 34.3698 53.6037 36.9177 53.3237 39.436Z" fill="#82462A"/>
<path d="M44.6 40.3594C44.4247 40.3595 44.2512 40.325 44.0892 40.258C43.9273 40.191 43.7802 40.0927 43.6562 39.9688C43.5323 39.8448 43.434 39.6977 43.367 39.5358C43.3 39.3738 43.2655 39.2003 43.2656 39.025V32.7344H35.6406V39.025C35.6407 39.2003 35.6063 39.3738 35.5392 39.5358C35.4722 39.6977 35.3739 39.8448 35.25 39.9688C35.1261 40.0927 34.9789 40.191 34.817 40.258C34.6551 40.325 34.4815 40.3595 34.3063 40.3594H32.7812V46.0781H46.125V40.3594H44.6Z" fill="#FEC9A3"/>
<path d="M40.0279 37.5C41.208 37.4871 42.3491 37.0753 43.2656 36.3316V32.7344H35.6406V36.3312C36.5571 37.075 37.6982 37.487 38.8784 37.5H40.0279Z" fill="#FEB784"/>
<path d="M48.0312 22.25V27.0156C48.0312 29.2907 47.1275 31.4726 45.5188 33.0813C43.9101 34.69 41.7282 35.5938 39.4531 35.5938C37.1781 35.5938 34.9962 34.69 33.3875 33.0813C31.7788 31.4726 30.875 29.2907 30.875 27.0156V22.25C32.7491 21.0011 34.2645 19.2845 35.2713 17.2699L35.6406 16.5312L36.1815 16.9828C38.5497 18.9562 41.2796 20.4494 44.2188 21.3791C45.4635 21.7736 46.7387 22.0649 48.0312 22.25Z" fill="#FEC9A3"/>
<path d="M48.031 22.25V27.0156C48.0305 29.0067 47.3379 30.9356 46.0716 32.4721C44.8053 34.0086 43.0441 35.0569 41.0898 35.4377C42.0822 34.4636 42.8701 33.3012 43.4073 32.0187C43.9445 30.7362 44.2203 29.3593 44.2185 27.9688V21.3791C45.4632 21.7736 46.7384 22.0649 48.031 22.25Z" fill="#FEC093"/>
<path d="M35.1641 26.0625C34.8813 26.0625 34.6049 25.9787 34.3698 25.8216C34.1347 25.6645 33.9514 25.4412 33.8432 25.1799C33.735 24.9187 33.7067 24.6312 33.7618 24.3539C33.817 24.0766 33.9532 23.8218 34.1531 23.6219C34.3531 23.4219 34.6078 23.2858 34.8851 23.2306C35.1625 23.1754 35.4499 23.2037 35.7112 23.312C35.9724 23.4202 36.1957 23.6034 36.3528 23.8385C36.5099 24.0736 36.5938 24.35 36.5938 24.6328C36.5933 25.0119 36.4426 25.3753 36.1746 25.6433C35.9065 25.9113 35.5431 26.0621 35.1641 26.0625Z" fill="#7A432A"/>
<path d="M43.7422 26.0625C43.4594 26.0625 43.183 25.9787 42.9479 25.8216C42.7128 25.6645 42.5295 25.4412 42.4213 25.1799C42.3131 24.9187 42.2848 24.6312 42.34 24.3539C42.3951 24.0766 42.5313 23.8218 42.7312 23.6219C42.9312 23.4219 43.1859 23.2858 43.4633 23.2306C43.7406 23.1754 44.0281 23.2037 44.2893 23.312C44.5505 23.4202 44.7738 23.6034 44.9309 23.8385C45.088 24.0736 45.1719 24.35 45.1719 24.6328C45.1715 25.0119 45.0207 25.3753 44.7527 25.6433C44.4846 25.9113 44.1212 26.0621 43.7422 26.0625Z" fill="#7A432A"/>
<path d="M39.4531 30.8281C38.695 30.8273 37.9682 30.5257 37.4322 29.9897C36.8961 29.4536 36.5946 28.7268 36.5938 27.9688H38.5C38.5 28.2215 38.6004 28.464 38.7792 28.6427C38.9579 28.8215 39.2003 28.9219 39.4531 28.9219C39.7059 28.9219 39.9483 28.8215 40.1271 28.6427C40.3058 28.464 40.4062 28.2215 40.4062 27.9688H42.3125C42.3116 28.7268 42.0101 29.4536 41.4741 29.9897C40.938 30.5257 40.2112 30.8273 39.4531 30.8281Z" fill="#F7A468"/>
<path d="M34.6875 44.1719H44.2188V50.8438H34.6875V44.1719Z" fill="#E0E0DE"/>
<path d="M58.8687 65.1013C58.1926 65.2139 57.4984 65.0828 56.9099 64.7313C56.3214 64.3798 55.8769 63.8307 55.6555 63.182L49.3601 51.3715C49.7609 52.5699 49.8492 53.8507 49.6165 55.0927C49.3838 56.3347 48.8379 57.4968 48.0305 58.4688V66.0938H30.8742V58.4688C30.0551 57.4855 29.5036 56.3075 29.2732 55.0488C29.0428 53.79 29.1412 52.493 29.5589 51.2834L23.1611 63.182C22.9155 63.9041 22.3946 64.5 21.7117 64.8398C21.0289 65.1797 20.2395 65.236 19.5153 64.9966C18.7911 64.7571 18.1908 64.2413 17.8452 63.5613C17.4996 62.8814 17.4366 62.0924 17.6699 61.3663L24.6682 43.9467C25.0935 42.8873 25.8261 41.9794 26.7719 41.3401C27.7176 40.7007 28.8331 40.3592 29.9747 40.3594H33.7336L39.4524 50.8438L45.1711 40.3594H48.9157C50.0605 40.3602 51.1787 40.7042 52.126 41.3471C53.0732 41.99 53.8059 42.9022 54.2294 43.9658L61.1479 61.3663C61.2742 61.7616 61.3141 62.1795 61.2647 62.5915C61.2154 63.0036 61.0779 63.4003 60.8617 63.7546C60.6455 64.1088 60.3557 64.4125 60.0118 64.6448C59.6679 64.8772 59.2781 65.0329 58.8687 65.1013Z" fill="#113C58"/>
<path d="M16.8434 61.6867L17.5309 52.75H23.2496V61.9328C23.2496 62.7835 22.9117 63.5995 22.3101 64.2011C21.7085 64.8027 20.8925 65.1406 20.0418 65.1406C19.5998 65.1406 19.1626 65.0493 18.7575 64.8723C18.3525 64.6954 17.9884 64.4367 17.6881 64.1124C17.3878 63.7881 17.1578 63.4052 17.0124 62.9878C16.867 62.5704 16.8095 62.1274 16.8434 61.6867Z" fill="#134E74"/>
<path d="M19.7736 38.8463C19.5042 38.9136 19.2534 39.0406 19.0397 39.2178C18.826 39.3951 18.6548 39.618 18.5388 39.8703C18.4228 40.1225 18.3649 40.3976 18.3694 40.6752C18.3739 40.9528 18.4407 41.2258 18.5649 41.4742L19.4375 43.2188H16.0219C15.1341 43.2188 14.2585 43.0121 13.4644 42.6151L12.5146 42.1402C12.3402 42.053 12.1465 42.0118 11.9517 42.0206C11.757 42.0294 11.5677 42.0878 11.4018 42.1902C11.236 42.2927 11.0991 42.4359 11.0042 42.6062C10.9092 42.7765 10.8594 42.9682 10.8594 43.1631V45.8531C10.8594 46.2071 10.958 46.5541 11.1441 46.8553C11.3302 47.1564 11.5965 47.3998 11.9132 47.5581L13.4644 48.3338C14.2585 48.7308 15.1341 48.9375 16.0219 48.9375H23.25V43.2188L21.9448 39.9559C21.7782 39.5397 21.4664 39.198 21.0673 38.994C20.6681 38.79 20.2085 38.7375 19.7736 38.8463Z" fill="#FEC9A3"/>
<path d="M17.5312 48.9375H23.25V52.75H17.5312V48.9375Z" fill="#E0E0DE"/>
<path d="M58.8686 65.1013C58.1925 65.2139 57.4983 65.0828 56.9098 64.7313C56.3213 64.3798 55.8768 63.8307 55.6554 63.182L49.36 51.3715C49.7608 52.5699 49.8491 53.8507 49.6164 55.0927C49.3837 56.3347 48.8378 57.4968 48.0304 58.4688V66.0938H31.1875C39.0544 60.9564 45.6917 54.437 51.2627 40.8645C52.6172 41.4732 53.6814 42.5856 54.2293 43.9658L61.1478 61.3663C61.2742 61.7616 61.314 62.1795 61.2647 62.5915C61.2153 63.0036 61.0778 63.4003 60.8617 63.7546C60.6455 64.1088 60.3556 64.4125 60.0117 64.6448C59.6678 64.8772 59.278 65.0329 58.8686 65.1013Z" fill="#134E74"/>
<path d="M52.7969 62.2812L43.2656 60.375V47.0312L52.7969 48.9375V62.2812Z" fill="#FF992A"/>
<path d="M56.6094 62.2812L66.1406 60.375V47.0312L56.6094 48.9375V62.2812Z" fill="#FF992A"/>
<path d="M52.7969 48.9375H56.6094V62.2812H52.7969V48.9375Z" fill="#E87900"/>
<path d="M54.7031 48.9375C54.7031 48.1385 54.4197 47.3654 53.9032 46.7557C53.3868 46.1461 52.6708 45.7394 51.8827 45.608L43.2656 44.1719V47.0312L52.7969 48.9375H54.7031C54.7031 48.1385 54.9866 47.3654 55.503 46.7557C56.0195 46.1461 56.7354 45.7394 57.5235 45.608L66.1406 44.1719V47.0312L56.6094 48.9375H54.7031Z" fill="#D4BD81"/>
<path d="M64.391 62.1904L60.5785 62.8259C60.442 62.8486 60.3022 62.8413 60.1687 62.8046C60.0353 62.7678 59.9114 62.7024 59.8058 62.6129C59.7002 62.5235 59.6153 62.4121 59.5571 62.2865C59.4989 62.1609 59.4688 62.0241 59.4688 61.8857V58.3431C59.4687 58.0494 59.5729 57.7652 59.7627 57.5412C59.9525 57.3171 60.2156 57.1676 60.5053 57.1193L63.7426 56.5797C63.9203 56.55 64.1024 56.5594 64.2762 56.6073C64.4499 56.6551 64.6112 56.7402 64.7487 56.8567C64.8862 56.9732 64.9967 57.1183 65.0725 57.2818C65.1483 57.4453 65.1875 57.6234 65.1875 57.8036V61.2502C65.1875 61.4758 65.1075 61.6941 64.9616 61.8663C64.8158 62.0384 64.6136 62.1533 64.391 62.1904Z" fill="#FEC9A3"/>
</svg>
