<svg width="18" height="18" viewBox="0 0 18 18" fill="none" xmlns="http://www.w3.org/2000/svg">
<path d="M12 5.99975V3.37524C12 2.75144 12 2.43953 11.8686 2.24785C11.7538 2.08039 11.576 1.96662 11.3758 1.93256C11.1467 1.89357 10.8635 2.02428 10.2971 2.28569L3.64426 5.35624C3.13913 5.58938 2.88656 5.70595 2.70158 5.88674C2.53804 6.04656 2.41321 6.24166 2.33663 6.45712C2.25 6.70084 2.25 6.97901 2.25 7.53535V11.2497M12.375 10.8747H12.3825M2.25 8.39975L2.25 13.3497C2.25 14.1898 2.25 14.6099 2.41349 14.9307C2.5573 15.213 2.78677 15.4424 3.06901 15.5863C3.38988 15.7497 3.80992 15.7497 4.65 15.7497H13.35C14.1901 15.7497 14.6101 15.7497 14.931 15.5863C15.2132 15.4424 15.4427 15.213 15.5865 14.9307C15.75 14.6099 15.75 14.1898 15.75 13.3497V8.39975C15.75 7.55967 15.75 7.13963 15.5865 6.81876C15.4427 6.53652 15.2132 6.30705 14.931 6.16324C14.6101 5.99975 14.1901 5.99975 13.35 5.99975L4.65 5.99975C3.80992 5.99975 3.38988 5.99975 3.06901 6.16324C2.78677 6.30705 2.5573 6.53652 2.41349 6.81876C2.25 7.13963 2.25 7.55967 2.25 8.39975ZM12.75 10.8747C12.75 11.0819 12.5821 11.2497 12.375 11.2497C12.1679 11.2497 12 11.0819 12 10.8747C12 10.6676 12.1679 10.4997 12.375 10.4997C12.5821 10.4997 12.75 10.6676 12.75 10.8747Z" stroke="#113E5B" stroke-width="1.5" stroke-linecap="round" stroke-linejoin="round"/>
</svg>
